{"glyphs":{"0":{"ha":854,"x_min":79,"x_max":776,"o":"m 776 407 q 750 238 776 315 q 677 105 724 161 q 567 17 631 49 q 428 -14 503 -14 q 289 17 353 -14 q 178 105 225 49 q 106 238 132 161 q 79 407 79 315 q 106 576 79 499 q 178 709 132 653 q 289 797 225 765 q 428 829 353 829 q 567 797 503 829 q 677 709 631 765 q 750 576 724 653 q 776 407 776 499 m 681 407 q 662 543 681 482 q 610 648 643 604 q 530 716 576 692 q 428 740 483 740 q 324 716 371 740 q 244 648 278 692 q 192 543 211 604 q 174 407 174 482 q 192 271 174 332 q 244 166 211 210 q 324 99 278 122 q 428 75 371 75 q 530 99 483 75 q 610 166 576 122 q 662 271 643 210 q 681 407 681 332 z "},"1":{"ha":594,"x_min":64,"x_max":564,"o":"m 564 86 l 564 0 l 93 0 l 93 86 l 290 86 l 290 681 q 251 644 278 664 q 192 608 225 625 q 125 581 160 592 q 64 569 90 569 l 64 661 q 134 679 96 661 q 206 721 172 697 q 264 765 240 744 q 290 793 288 786 l 388 793 l 388 86 l 564 86 z "},"2":{"ha":740,"x_min":71,"x_max":667,"o":"m 71 0 q 80 101 71 51 q 115 196 89 150 q 185 284 140 242 q 301 364 231 326 q 383 403 339 383 q 464 449 426 424 q 526 504 501 474 q 550 576 550 535 q 538 629 550 603 q 503 676 526 656 q 447 710 481 697 q 368 722 413 722 q 285 709 322 722 q 221 678 249 696 q 174 640 193 660 q 146 607 156 619 l 83 675 q 115 706 92 683 q 177 750 139 728 q 267 790 215 772 q 385 807 319 807 q 497 790 447 807 q 581 742 546 772 q 633 672 615 711 q 651 588 651 632 q 624 487 651 529 q 558 414 597 444 q 478 364 519 383 q 411 332 438 344 q 307 278 349 304 q 239 224 265 251 q 199 163 213 196 q 181 86 186 129 l 667 86 l 667 0 l 71 0 z "},"3":{"ha":744,"x_min":54,"x_max":679,"o":"m 478 328 q 624 244 569 313 q 679 76 679 176 q 656 -38 679 14 q 591 -127 633 -90 q 490 -184 549 -164 q 358 -204 431 -204 q 174 -162 253 -204 q 54 -44 94 -119 l 119 15 q 208 -82 149 -46 q 358 -118 268 -118 q 522 -67 463 -118 q 582 78 582 -17 q 519 229 582 174 q 339 285 457 285 l 304 285 l 304 365 l 342 365 q 506 415 449 365 q 563 544 563 465 q 547 617 563 586 q 505 670 532 649 q 441 703 478 692 q 361 714 404 714 q 222 678 282 714 q 131 581 161 643 l 69 639 q 117 705 86 675 q 186 756 147 735 q 272 788 225 776 q 369 800 319 800 q 487 782 433 800 q 579 731 540 764 q 640 653 618 699 q 661 551 661 607 q 649 472 661 510 q 613 403 636 433 q 555 353 589 374 q 478 328 521 333 z "},"4":{"ha":753,"x_min":29,"x_max":710,"o":"m 493 -176 l 493 71 l 29 71 l 29 154 l 522 793 l 588 793 l 588 157 l 710 157 l 710 71 l 588 71 l 588 -176 l 493 -176 m 129 157 l 501 157 l 501 644 l 129 157 z "},"5":{"ha":765,"x_min":53,"x_max":711,"o":"m 389 433 q 515 410 457 433 q 617 346 574 388 q 686 247 661 304 q 711 119 711 189 q 684 -15 711 46 q 610 -117 657 -75 q 501 -183 564 -160 q 368 -207 439 -207 q 267 -194 315 -207 q 179 -156 219 -181 q 106 -96 139 -131 q 53 -18 74 -61 l 115 29 q 222 -81 154 -39 q 369 -122 289 -122 q 465 -105 421 -122 q 543 -56 510 -87 q 595 21 576 -24 q 614 118 614 65 q 596 212 614 169 q 546 285 578 254 q 472 332 514 315 q 379 349 429 349 q 255 320 313 349 q 161 238 197 292 l 74 238 q 81 275 75 246 q 94 344 86 304 q 113 434 103 385 q 132 533 122 483 q 183 793 156 650 l 660 793 l 660 706 l 254 706 l 186 351 q 274 412 222 390 q 389 433 326 433 z "},"6":{"ha":842,"x_min":76,"x_max":779,"o":"m 779 325 q 752 192 779 254 q 678 85 725 131 q 568 13 632 39 q 431 -14 504 -14 q 288 15 353 -14 q 175 96 222 43 q 102 226 128 149 q 76 399 76 303 q 103 660 76 549 q 177 847 129 772 q 292 957 225 921 q 440 993 358 993 q 615 944 538 993 q 733 810 693 896 l 672 754 q 581 867 644 825 q 439 910 517 910 q 328 881 378 910 q 242 797 278 851 q 187 661 207 742 q 167 479 167 581 q 272 610 197 561 q 440 658 346 658 q 573 633 511 658 q 681 562 635 607 q 753 456 726 517 q 779 325 779 394 m 432 69 q 531 90 485 69 q 613 144 578 110 q 669 226 649 179 q 689 325 689 272 q 668 424 689 378 q 613 506 647 471 q 531 560 578 540 q 432 581 483 581 q 332 560 379 581 q 249 506 285 540 q 194 424 214 471 q 174 325 174 378 q 194 226 174 272 q 251 145 215 181 q 333 90 286 110 q 432 69 379 69 z "},"7":{"ha":764,"x_min":64,"x_max":746,"o":"m 596 722 l 64 722 l 64 810 l 746 810 l 247 -176 l 139 -176 l 596 722 z "},"8":{"ha":828,"x_min":71,"x_max":756,"o":"m 756 274 q 728 156 756 208 q 653 67 700 104 q 542 9 606 29 q 410 -11 479 -11 q 274 12 336 -11 q 166 74 211 35 q 96 167 121 114 q 71 279 71 219 q 88 367 71 326 q 133 438 106 407 q 197 492 161 469 q 268 528 232 515 q 206 562 235 542 q 154 608 176 582 q 119 667 132 635 q 106 735 106 699 q 133 842 106 796 q 205 921 161 889 q 303 969 249 953 q 414 986 358 986 q 524 969 469 986 q 623 922 579 953 q 694 843 667 890 q 722 736 722 796 q 709 668 722 700 q 673 609 696 636 q 620 562 650 582 q 557 528 590 542 q 633 490 597 514 q 697 433 669 465 q 740 361 724 401 q 756 274 756 321 m 660 281 q 638 369 660 331 q 580 433 615 407 q 500 474 544 460 q 413 488 456 488 q 323 473 367 488 q 244 431 279 458 q 189 365 210 404 q 168 279 168 326 q 190 192 168 231 q 248 128 213 154 q 327 88 283 101 q 415 74 371 74 q 503 88 460 74 q 582 130 547 103 q 638 195 617 157 q 660 281 660 233 m 201 731 q 221 659 201 690 q 271 606 240 628 q 339 574 301 585 q 414 563 376 563 q 488 574 450 563 q 557 607 526 585 q 607 661 588 629 q 626 733 626 693 q 608 803 626 772 q 560 856 590 835 q 492 889 531 878 q 413 900 454 900 q 333 888 371 900 q 265 855 294 876 q 219 801 236 833 q 201 731 201 769 z "},"9":{"ha":818,"x_min":53,"x_max":756,"o":"m 53 454 q 80 587 53 525 q 153 694 107 649 q 264 767 200 740 q 401 793 328 793 q 544 765 479 793 q 656 683 610 736 q 729 553 703 631 q 756 381 756 476 q 729 119 756 231 q 655 -67 703 7 q 540 -178 607 -142 q 392 -214 474 -214 q 217 -165 294 -214 q 99 -31 139 -117 l 160 25 q 251 -88 188 -46 q 393 -131 315 -131 q 504 -101 454 -131 q 590 -17 554 -72 q 645 117 625 38 q 665 300 665 197 q 560 169 635 218 q 392 121 486 121 q 259 147 321 121 q 151 217 197 172 q 79 324 106 263 q 53 454 53 385 m 400 710 q 301 690 347 710 q 219 635 254 669 q 163 553 183 600 q 143 454 143 507 q 164 355 143 401 q 219 274 185 308 q 301 219 254 239 q 400 199 347 199 q 500 219 453 199 q 583 274 547 239 q 638 355 618 308 q 658 454 658 401 q 638 552 658 506 q 581 634 617 599 q 499 690 546 669 q 400 710 453 710 z "}," ":{"ha":356,"x_min":0,"x_max":0,"o":""},"Ǽ":{"ha":1376,"x_min":-1,"x_max":1314,"o":"m 754 1121 l 692 1144 l 774 1274 l 874 1274 l 754 1121 m 633 986 l 1301 986 l 1301 900 l 754 900 l 754 546 l 1226 546 l 1226 460 l 754 460 l 754 86 l 1314 86 l 1314 0 l 660 0 l 660 308 l 300 308 l 104 0 l -1 0 l 633 986 m 653 394 l 653 869 l 344 394 l 653 394 z "},"´":{"ha":308,"x_min":68,"x_max":250,"o":"m 131 861 l 68 885 l 150 1014 l 250 1014 l 131 861 z "},"Á":{"ha":943,"x_min":21,"x_max":925,"o":"m 21 0 l 433 986 l 513 986 l 925 0 l 821 0 l 693 308 l 250 308 l 124 0 l 21 0 m 474 872 l 271 385 l 671 385 l 474 872 m 482 1121 l 419 1144 l 501 1274 l 601 1274 l 482 1121 z "},"Ă":{"ha":943,"x_min":21,"x_max":925,"o":"m 21 0 l 433 986 l 513 986 l 925 0 l 821 0 l 693 308 l 250 308 l 124 0 l 21 0 m 474 872 l 271 385 l 671 385 l 474 872 m 474 1182 q 526 1208 503 1182 q 553 1274 549 1235 l 610 1274 q 599 1219 610 1244 q 570 1174 589 1193 q 526 1144 551 1156 q 474 1133 501 1133 q 376 1174 415 1133 q 338 1274 338 1214 l 396 1274 q 419 1210 396 1238 q 474 1182 443 1182 z "},"˘":{"ha":392,"x_min":60,"x_max":332,"o":"m 196 922 q 248 949 225 922 q 275 1014 271 975 l 332 1014 q 322 959 332 985 q 292 915 311 933 q 249 885 274 896 q 196 874 224 874 q 99 914 138 874 q 60 1014 60 954 l 118 1014 q 142 950 118 978 q 196 922 165 922 z "},"Â":{"ha":943,"x_min":21,"x_max":925,"o":"m 21 0 l 433 986 l 513 986 l 925 0 l 821 0 l 693 308 l 250 308 l 124 0 l 21 0 m 474 872 l 271 385 l 671 385 l 474 872 m 301 1156 l 438 1274 l 507 1274 l 644 1156 l 590 1126 l 472 1214 l 354 1126 l 301 1156 z "},"ˆ":{"ha":458,"x_min":58,"x_max":401,"o":"m 58 896 l 194 1014 l 264 1014 l 401 896 l 347 867 l 229 954 l 111 867 l 58 896 z "},"Ä":{"ha":943,"x_min":21,"x_max":925,"o":"m 21 0 l 433 986 l 513 986 l 925 0 l 821 0 l 693 308 l 250 308 l 124 0 l 21 0 m 474 872 l 271 385 l 671 385 l 474 872 m 329 1139 l 329 1269 l 410 1269 l 410 1139 l 329 1139 m 536 1139 l 536 1269 l 617 1269 l 617 1139 l 536 1139 z "},"¨":{"ha":457,"x_min":85,"x_max":372,"o":"m 85 879 l 85 1010 l 165 1010 l 165 879 l 85 879 m 292 879 l 292 1010 l 372 1010 l 372 879 l 292 879 z "},"À":{"ha":943,"x_min":21,"x_max":925,"o":"m 21 0 l 433 986 l 513 986 l 925 0 l 821 0 l 693 308 l 250 308 l 124 0 l 21 0 m 474 872 l 271 385 l 671 385 l 474 872 m 344 1274 l 443 1274 l 526 1144 l 465 1121 l 344 1274 z "},"`":{"ha":308,"x_min":68,"x_max":250,"o":"m 68 1014 l 167 1014 l 250 885 l 189 861 l 68 1014 z "},"Ā":{"ha":943,"x_min":21,"x_max":925,"o":"m 21 0 l 433 986 l 513 986 l 925 0 l 821 0 l 693 308 l 250 308 l 124 0 l 21 0 m 474 872 l 271 385 l 671 385 l 474 872 m 272 1181 l 272 1246 l 674 1246 l 674 1181 l 272 1181 z "},"¯":{"ha":550,"x_min":75,"x_max":476,"o":"m 75 921 l 75 986 l 476 986 l 476 921 l 75 921 z "},"Ą":{"ha":943,"x_min":21,"x_max":925,"o":"m 857 -243 q 779 -205 806 -232 q 753 -142 753 -178 q 778 -72 753 -107 q 857 0 803 -37 l 821 0 l 693 308 l 250 308 l 124 0 l 21 0 l 433 986 l 513 986 l 925 0 q 837 -69 863 -39 q 811 -129 811 -99 q 883 -190 811 -181 l 857 -243 m 474 872 l 271 385 l 671 385 l 474 872 z "},"˛":{"ha":333,"x_min":76,"x_max":249,"o":"m 181 -243 q 103 -205 129 -232 q 76 -142 76 -178 q 110 -61 76 -101 q 218 24 143 -21 l 249 0 q 160 -69 186 -39 q 135 -129 135 -99 q 207 -190 135 -181 l 181 -243 l 181 -243 z "},"Å":{"ha":943,"x_min":21,"x_max":925,"o":"m 21 0 l 433 986 l 513 986 l 925 0 l 821 0 l 693 308 l 250 308 l 124 0 l 21 0 m 474 872 l 271 385 l 671 385 l 474 872 m 369 1183 q 399 1249 369 1224 q 472 1274 428 1274 q 546 1249 517 1274 q 575 1183 575 1224 q 546 1117 575 1142 q 472 1092 517 1092 q 399 1117 428 1092 q 369 1183 369 1142 m 472 1236 q 433 1222 449 1236 q 417 1183 417 1207 q 433 1144 417 1160 q 472 1129 449 1129 q 512 1144 494 1129 q 529 1183 529 1160 q 513 1222 529 1207 q 472 1236 496 1236 z "},"˚":{"ha":344,"x_min":69,"x_max":275,"o":"m 69 924 q 99 989 69 964 q 172 1014 128 1014 q 246 989 217 1014 q 275 924 275 964 q 246 857 275 882 q 172 832 217 832 q 99 857 128 832 q 69 924 69 882 m 172 976 q 133 962 149 976 q 117 924 117 947 q 133 885 117 900 q 172 869 149 869 q 212 885 194 869 q 229 924 229 900 q 213 962 229 947 q 172 976 196 976 z "},"Ǻ":{"ha":943,"x_min":21,"x_max":925,"o":"m 525 1119 q 562 1088 549 1108 q 575 1040 575 1068 q 561 991 575 1013 q 524 958 547 969 l 925 0 l 821 0 l 693 308 l 250 308 l 124 0 l 21 0 l 422 958 q 369 1040 369 981 q 393 1101 369 1076 q 456 1129 417 1125 l 507 1275 l 607 1275 l 525 1119 m 474 872 l 271 385 l 671 385 l 474 872 m 472 1093 q 433 1078 449 1093 q 417 1040 417 1064 q 433 1001 417 1017 q 472 986 449 986 q 512 1001 494 986 q 529 1040 529 1017 q 513 1078 529 1064 q 472 1093 496 1093 z "},"Ã":{"ha":943,"x_min":21,"x_max":925,"o":"m 21 0 l 433 986 l 513 986 l 925 0 l 821 0 l 693 308 l 250 308 l 124 0 l 21 0 m 474 872 l 271 385 l 671 385 l 474 872 m 558 1146 q 503 1154 526 1146 q 460 1173 481 1163 q 422 1192 440 1183 q 381 1201 403 1201 q 344 1192 357 1201 q 323 1170 331 1182 q 313 1148 315 1158 q 311 1135 311 1138 l 253 1135 q 258 1163 253 1142 q 276 1207 263 1185 q 315 1247 290 1229 q 379 1264 340 1264 q 430 1255 408 1264 q 471 1235 451 1246 q 510 1215 490 1224 q 557 1206 531 1206 q 599 1215 583 1206 q 624 1238 615 1225 q 634 1260 632 1250 q 636 1274 636 1271 l 694 1274 q 689 1246 694 1267 q 669 1203 683 1225 q 627 1163 654 1181 q 558 1146 600 1146 z "},"˜":{"ha":564,"x_min":61,"x_max":503,"o":"m 367 886 q 312 894 335 886 q 269 913 289 903 q 230 933 249 924 q 189 942 211 942 q 152 932 165 942 q 131 910 139 922 q 122 888 124 899 q 119 875 119 878 l 61 875 q 66 903 61 882 q 85 947 71 925 q 124 987 99 969 q 188 1004 149 1004 q 238 995 217 1004 q 279 975 260 986 q 319 955 299 964 q 365 946 339 946 q 408 956 392 946 q 432 978 424 965 q 442 1001 440 990 q 444 1014 444 1011 l 503 1014 q 497 986 503 1007 q 477 943 492 965 q 435 903 463 921 q 367 886 408 886 z "},"B":{"ha":928,"x_min":125,"x_max":865,"o":"m 865 254 q 843 152 865 199 q 783 72 821 106 q 696 19 746 38 q 589 0 646 0 l 125 0 l 125 986 l 599 986 q 692 964 650 986 q 763 906 733 942 q 808 826 792 871 q 824 735 824 781 q 786 598 824 660 q 682 506 749 536 q 816 413 767 481 q 865 254 865 344 m 768 271 q 756 341 768 307 q 720 401 743 375 q 666 442 697 426 q 599 458 635 458 l 221 458 l 221 85 l 589 85 q 660 100 626 85 q 717 141 693 115 q 754 201 740 167 q 768 271 768 235 m 221 901 l 221 538 l 560 538 q 627 553 596 538 q 681 593 658 568 q 717 651 704 618 q 729 719 729 683 q 717 790 729 757 q 684 848 706 824 q 633 887 663 872 q 568 901 603 901 l 221 901 z "},"C":{"ha":957,"x_min":61,"x_max":913,"o":"m 61 500 q 92 677 61 589 q 183 835 124 765 q 331 948 243 904 q 529 992 418 992 q 754 932 661 992 q 893 776 847 872 l 815 729 q 758 811 792 778 q 686 865 725 844 q 606 895 647 886 q 524 904 564 904 q 367 868 435 904 q 252 774 299 832 q 182 642 206 715 q 158 494 158 569 q 187 338 158 413 q 265 205 215 263 q 381 113 314 147 q 528 79 449 79 q 613 90 569 79 q 698 123 657 100 q 774 180 739 146 q 832 263 808 214 l 913 221 q 846 123 889 165 q 750 51 803 81 q 638 7 697 22 q 522 -8 579 -8 q 336 36 421 -8 q 190 152 251 81 q 95 315 129 224 q 61 500 61 406 z "},"Ć":{"ha":957,"x_min":61,"x_max":913,"o":"m 536 1121 l 474 1144 l 556 1274 l 656 1274 l 536 1121 m 61 500 q 92 677 61 589 q 183 835 124 765 q 331 948 243 904 q 529 992 418 992 q 754 932 661 992 q 893 776 847 872 l 815 729 q 758 811 792 778 q 686 865 725 844 q 606 895 647 886 q 524 904 564 904 q 367 868 435 904 q 252 774 299 832 q 182 642 206 715 q 158 494 158 569 q 187 338 158 413 q 265 205 215 263 q 381 113 314 147 q 528 79 449 79 q 613 90 569 79 q 698 123 657 100 q 774 180 739 146 q 832 263 808 214 l 913 221 q 846 123 889 165 q 750 51 803 81 q 638 7 697 22 q 522 -8 579 -8 q 336 36 421 -8 q 190 152 251 81 q 95 315 129 224 q 61 500 61 406 z "},"Č":{"ha":957,"x_min":61,"x_max":913,"o":"m 408 1274 l 526 1186 l 644 1274 l 699 1246 l 561 1126 l 492 1126 l 356 1246 l 408 1274 m 61 500 q 92 677 61 589 q 183 835 124 765 q 331 948 243 904 q 529 992 418 992 q 754 932 661 992 q 893 776 847 872 l 815 729 q 758 811 792 778 q 686 865 725 844 q 606 895 647 886 q 524 904 564 904 q 367 868 435 904 q 252 774 299 832 q 182 642 206 715 q 158 494 158 569 q 187 338 158 413 q 265 205 215 263 q 381 113 314 147 q 528 79 449 79 q 613 90 569 79 q 698 123 657 100 q 774 180 739 146 q 832 263 808 214 l 913 221 q 846 123 889 165 q 750 51 803 81 q 638 7 697 22 q 522 -8 579 -8 q 336 36 421 -8 q 190 152 251 81 q 95 315 129 224 q 61 500 61 406 z "},"ˇ":{"ha":458,"x_min":58,"x_max":401,"o":"m 111 1014 l 229 926 l 347 1014 l 401 986 l 264 867 l 194 867 l 58 986 l 111 1014 z "},"Ç":{"ha":958,"x_min":63,"x_max":914,"o":"m 417 -175 q 469 -192 436 -185 q 539 -200 503 -200 q 618 -151 618 -200 q 599 -112 618 -124 q 549 -101 581 -101 q 488 -108 519 -101 q 438 -121 456 -114 l 499 -7 q 322 44 403 -1 q 184 161 242 90 q 94 320 126 232 q 63 500 63 408 q 94 677 63 589 q 185 835 125 765 q 332 948 244 904 q 531 992 419 992 q 756 932 663 992 q 894 776 849 872 l 817 729 q 760 811 793 778 q 688 865 726 844 q 607 895 649 886 q 525 904 565 904 q 368 868 436 904 q 253 774 300 832 q 183 642 207 715 q 160 494 160 569 q 188 338 160 413 q 266 205 217 263 q 383 113 315 147 q 529 79 450 79 q 615 90 571 79 q 699 123 658 100 q 775 180 740 146 q 833 263 810 214 l 914 221 q 853 128 892 169 q 765 59 814 88 q 662 14 717 31 q 553 -7 607 -3 l 514 -71 q 541 -64 526 -65 q 567 -62 556 -62 q 644 -84 615 -62 q 672 -147 672 -106 q 636 -219 672 -194 q 531 -244 600 -244 q 456 -237 490 -244 q 393 -218 421 -229 l 417 -175 z "},"¸":{"ha":393,"x_min":31,"x_max":310,"o":"m 54 -175 q 107 -192 74 -185 q 176 -200 140 -200 q 256 -151 256 -200 q 237 -112 256 -124 q 186 -101 218 -101 q 125 -108 157 -101 q 75 -121 93 -114 l 154 25 l 200 7 l 151 -71 q 178 -64 164 -65 q 204 -62 193 -62 q 281 -84 253 -62 q 310 -147 310 -106 q 274 -219 310 -194 q 168 -244 238 -244 q 93 -237 128 -244 q 31 -218 58 -229 l 54 -175 z "},"Ĉ":{"ha":957,"x_min":61,"x_max":913,"o":"m 356 1156 l 492 1274 l 561 1274 l 699 1156 l 644 1126 l 526 1214 l 408 1126 l 356 1156 m 61 500 q 92 677 61 589 q 183 835 124 765 q 331 948 243 904 q 529 992 418 992 q 754 932 661 992 q 893 776 847 872 l 815 729 q 758 811 792 778 q 686 865 725 844 q 606 895 647 886 q 524 904 564 904 q 367 868 435 904 q 252 774 299 832 q 182 642 206 715 q 158 494 158 569 q 187 338 158 413 q 265 205 215 263 q 381 113 314 147 q 528 79 449 79 q 613 90 569 79 q 698 123 657 100 q 774 180 739 146 q 832 263 808 214 l 913 221 q 846 123 889 165 q 750 51 803 81 q 638 7 697 22 q 522 -8 579 -8 q 336 36 421 -8 q 190 152 251 81 q 95 315 129 224 q 61 500 61 406 z "},"Ċ":{"ha":957,"x_min":61,"x_max":913,"o":"m 61 500 q 92 677 61 589 q 183 835 124 765 q 331 948 243 904 q 529 992 418 992 q 754 932 661 992 q 893 776 847 872 l 815 729 q 758 811 792 778 q 686 865 725 844 q 606 895 647 886 q 524 904 564 904 q 367 868 435 904 q 252 774 299 832 q 182 642 206 715 q 158 494 158 569 q 187 338 158 413 q 265 205 215 263 q 381 113 314 147 q 528 79 449 79 q 613 90 569 79 q 698 123 657 100 q 774 180 739 146 q 832 263 808 214 l 913 221 q 846 123 889 165 q 750 51 803 81 q 638 7 697 22 q 522 -8 579 -8 q 336 36 421 -8 q 190 152 251 81 q 95 315 129 224 q 61 500 61 406 m 483 1139 l 483 1274 l 569 1274 l 569 1139 l 483 1139 z "},"˙":{"ha":225,"x_min":69,"x_max":156,"o":"m 69 879 l 69 1014 l 156 1014 l 156 879 l 69 879 z "},"D":{"ha":997,"x_min":125,"x_max":931,"o":"m 125 0 l 125 986 l 458 986 q 665 947 576 986 q 813 842 754 908 q 901 685 872 775 q 931 494 931 596 q 897 291 931 382 q 803 135 864 200 q 654 35 742 71 q 458 0 567 0 l 125 0 m 833 494 q 808 658 833 583 q 735 786 783 732 q 618 870 688 840 q 458 900 549 900 l 221 900 l 221 86 l 458 86 q 620 117 550 86 q 738 203 690 149 q 809 333 785 258 q 833 494 833 407 z "},"Ď":{"ha":997,"x_min":125,"x_max":931,"o":"m 360 1274 l 478 1186 l 596 1274 l 650 1246 l 513 1126 l 443 1126 l 307 1246 l 360 1274 m 125 0 l 125 986 l 458 986 q 665 947 576 986 q 813 842 754 908 q 901 685 872 775 q 931 494 931 596 q 897 291 931 382 q 803 135 864 200 q 654 35 742 71 q 458 0 567 0 l 125 0 m 833 494 q 808 658 833 583 q 735 786 783 732 q 618 870 688 840 q 458 900 549 900 l 221 900 l 221 86 l 458 86 q 620 117 550 86 q 738 203 690 149 q 809 333 785 258 q 833 494 833 407 z "},"Đ":{"ha":1004,"x_min":47,"x_max":938,"o":"m 132 0 l 132 458 l 47 458 l 47 533 l 132 533 l 132 986 l 465 986 q 672 947 583 986 q 820 842 761 908 q 908 685 879 775 q 938 494 938 596 q 904 291 938 382 q 810 135 871 200 q 661 35 749 71 q 465 0 574 0 l 132 0 m 840 494 q 815 658 840 583 q 742 786 790 732 q 625 870 694 840 q 465 900 556 900 l 228 900 l 228 533 l 465 533 l 465 458 l 228 458 l 228 86 l 465 86 q 627 117 557 86 q 744 203 697 149 q 816 333 792 258 q 840 494 840 407 z "},"E":{"ha":851,"x_min":125,"x_max":788,"o":"m 788 86 l 788 0 l 125 0 l 125 986 l 775 986 l 775 900 l 221 900 l 221 544 l 704 544 l 704 463 l 221 463 l 221 86 l 788 86 z "},"É":{"ha":851,"x_min":125,"x_max":788,"o":"m 478 1121 l 415 1144 l 497 1274 l 597 1274 l 478 1121 m 788 86 l 788 0 l 125 0 l 125 986 l 775 986 l 775 900 l 221 900 l 221 544 l 704 544 l 704 463 l 221 463 l 221 86 l 788 86 z "},"Ĕ":{"ha":851,"x_min":125,"x_max":788,"o":"m 788 86 l 788 0 l 125 0 l 125 986 l 775 986 l 775 900 l 221 900 l 221 544 l 704 544 l 704 463 l 221 463 l 221 86 l 788 86 m 469 1182 q 522 1208 499 1182 q 549 1274 544 1235 l 606 1274 q 595 1219 606 1244 q 566 1174 585 1193 q 522 1144 547 1156 q 469 1133 497 1133 q 372 1174 411 1133 q 333 1274 333 1214 l 392 1274 q 415 1210 392 1238 q 469 1182 439 1182 z "},"Ě":{"ha":851,"x_min":125,"x_max":788,"o":"m 350 1274 l 468 1186 l 586 1274 l 640 1246 l 503 1126 l 433 1126 l 297 1246 l 350 1274 m 788 86 l 788 0 l 125 0 l 125 986 l 775 986 l 775 900 l 221 900 l 221 544 l 704 544 l 704 463 l 221 463 l 221 86 l 788 86 z "},"Ê":{"ha":851,"x_min":125,"x_max":788,"o":"m 297 1156 l 433 1274 l 503 1274 l 640 1156 l 586 1126 l 468 1214 l 350 1126 l 297 1156 m 788 86 l 788 0 l 125 0 l 125 986 l 775 986 l 775 900 l 221 900 l 221 544 l 704 544 l 704 463 l 221 463 l 221 86 l 788 86 z "},"Ë":{"ha":851,"x_min":125,"x_max":788,"o":"m 325 1139 l 325 1269 l 406 1269 l 406 1139 l 325 1139 m 532 1139 l 532 1269 l 613 1269 l 613 1139 l 532 1139 m 788 86 l 788 0 l 125 0 l 125 986 l 775 986 l 775 900 l 221 900 l 221 544 l 704 544 l 704 463 l 221 463 l 221 86 l 788 86 z "},"Ė":{"ha":851,"x_min":125,"x_max":788,"o":"m 788 86 l 788 0 l 125 0 l 125 986 l 775 986 l 775 900 l 221 900 l 221 544 l 704 544 l 704 463 l 221 463 l 221 86 l 788 86 m 425 1139 l 425 1274 l 511 1274 l 511 1139 l 425 1139 z "},"È":{"ha":851,"x_min":125,"x_max":788,"o":"m 788 86 l 788 0 l 125 0 l 125 986 l 775 986 l 775 900 l 221 900 l 221 544 l 704 544 l 704 463 l 221 463 l 221 86 l 788 86 m 340 1274 l 439 1274 l 522 1144 l 461 1121 l 340 1274 z "},"Ē":{"ha":851,"x_min":125,"x_max":788,"o":"m 788 86 l 788 0 l 125 0 l 125 986 l 775 986 l 775 900 l 221 900 l 221 544 l 704 544 l 704 463 l 221 463 l 221 86 l 788 86 m 269 1181 l 269 1246 l 671 1246 l 671 1181 l 269 1181 z "},"Ŋ":{"ha":1065,"x_min":125,"x_max":942,"o":"m 221 804 l 221 0 l 125 0 l 125 986 l 199 986 l 844 169 l 844 985 l 942 985 l 942 -35 q 923 -123 942 -83 q 874 -191 904 -162 q 806 -235 844 -219 q 726 -251 767 -251 q 642 -239 682 -251 q 569 -197 601 -226 l 617 -133 q 663 -160 636 -153 q 717 -167 690 -167 q 765 -157 742 -167 q 806 -130 788 -147 q 836 -89 825 -112 q 847 -37 847 -65 l 847 13 l 221 804 z "},"Ę":{"ha":851,"x_min":125,"x_max":788,"o":"m 788 86 l 788 0 l 497 0 q 409 -69 435 -39 q 383 -129 383 -99 q 456 -190 383 -181 l 429 -243 q 351 -205 378 -232 q 325 -142 325 -178 q 350 -72 325 -107 q 429 0 375 -37 l 125 0 l 125 986 l 775 986 l 775 900 l 221 900 l 221 544 l 704 544 l 704 463 l 221 463 l 221 86 l 788 86 z "},"Ð":{"ha":1004,"x_min":47,"x_max":938,"o":"m 132 0 l 132 458 l 47 458 l 47 533 l 132 533 l 132 986 l 465 986 q 672 947 583 986 q 820 842 761 908 q 908 685 879 775 q 938 494 938 596 q 904 291 938 382 q 810 135 871 200 q 661 35 749 71 q 465 0 574 0 l 132 0 m 840 494 q 815 658 840 583 q 742 786 790 732 q 625 870 694 840 q 465 900 556 900 l 228 900 l 228 533 l 465 533 l 465 458 l 228 458 l 228 86 l 465 86 q 627 117 557 86 q 744 203 697 149 q 816 333 792 258 q 840 494 840 407 z "},"Ẽ":{"ha":851,"x_min":125,"x_max":788,"o":"m 788 86 l 788 0 l 125 0 l 125 986 l 775 986 l 775 900 l 221 900 l 221 544 l 704 544 l 704 463 l 221 463 l 221 86 l 788 86 m 554 1146 q 499 1154 522 1146 q 456 1173 476 1163 q 417 1192 436 1183 q 376 1201 399 1201 q 340 1192 353 1201 q 319 1170 326 1182 q 309 1148 311 1158 q 307 1135 307 1138 l 249 1135 q 253 1163 249 1142 q 272 1207 258 1185 q 311 1247 286 1229 q 375 1264 336 1264 q 426 1255 404 1264 q 467 1235 447 1246 q 506 1215 486 1224 q 553 1206 526 1206 q 595 1215 579 1206 q 619 1238 611 1225 q 630 1260 628 1250 q 632 1274 632 1271 l 690 1274 q 685 1246 690 1267 q 665 1203 679 1225 q 623 1163 650 1181 q 554 1146 596 1146 z "},"€":{"ha":1115,"x_min":47,"x_max":1042,"o":"m 196 578 q 244 731 208 657 q 340 864 281 806 q 478 957 399 922 q 658 992 558 992 q 883 932 790 992 q 1022 776 976 872 l 944 729 q 888 811 921 778 q 815 865 854 844 q 735 895 776 886 q 653 904 693 904 q 515 877 576 904 q 409 805 454 850 q 335 701 364 760 q 294 578 306 642 l 764 578 l 739 518 l 288 518 q 288 466 288 485 q 292 432 289 447 l 714 432 l 688 372 l 304 372 q 355 256 321 310 q 435 163 389 203 q 537 101 481 124 q 657 79 593 79 q 742 90 699 79 q 827 123 786 100 q 903 180 868 146 q 961 263 938 214 l 1042 221 q 975 123 1018 165 q 879 51 932 81 q 767 7 826 22 q 651 -8 708 -8 q 494 23 567 -8 q 363 106 421 54 q 265 227 306 158 q 206 372 225 296 l 47 372 l 72 432 l 194 432 q 191 467 192 449 q 190 518 190 486 l 88 518 l 113 578 l 196 578 z "},"F":{"ha":813,"x_min":125,"x_max":771,"o":"m 125 0 l 125 986 l 771 986 l 771 900 l 221 900 l 221 538 l 686 538 l 686 457 l 221 457 l 221 0 l 125 0 z "},"G":{"ha":1003,"x_min":63,"x_max":922,"o":"m 839 143 q 524 -7 701 -7 q 340 36 424 -7 q 194 150 256 79 q 97 310 132 221 q 63 494 63 400 q 97 683 63 593 q 191 842 131 774 q 335 952 251 911 q 518 993 419 993 q 649 977 590 993 q 755 933 708 961 q 836 865 801 904 q 894 778 871 825 l 819 728 q 693 863 771 819 q 517 906 615 906 q 369 871 435 906 q 256 778 303 836 q 185 647 210 721 q 160 493 160 572 q 188 335 160 410 q 267 203 217 260 q 384 114 317 147 q 531 81 451 81 q 692 120 615 81 q 839 244 768 160 l 839 410 l 621 410 l 621 485 l 922 485 l 922 0 l 839 0 l 839 143 z "},"Ğ":{"ha":1003,"x_min":63,"x_max":922,"o":"m 839 143 q 524 -7 701 -7 q 340 36 424 -7 q 194 150 256 79 q 97 310 132 221 q 63 494 63 400 q 97 683 63 593 q 191 842 131 774 q 335 952 251 911 q 518 993 419 993 q 649 977 590 993 q 755 933 708 961 q 836 865 801 904 q 894 778 871 825 l 819 728 q 693 863 771 819 q 517 906 615 906 q 369 871 435 906 q 256 778 303 836 q 185 647 210 721 q 160 493 160 572 q 188 335 160 410 q 267 203 217 260 q 384 114 317 147 q 531 81 451 81 q 692 120 615 81 q 839 244 768 160 l 839 410 l 621 410 l 621 485 l 922 485 l 922 0 l 839 0 l 839 143 m 517 1182 q 569 1208 546 1182 q 596 1274 592 1235 l 653 1274 q 642 1219 653 1244 q 613 1174 632 1193 q 569 1144 594 1156 q 517 1133 544 1133 q 419 1174 458 1133 q 381 1274 381 1214 l 439 1274 q 463 1210 439 1238 q 517 1182 486 1182 z "},"Ĝ":{"ha":1003,"x_min":63,"x_max":922,"o":"m 346 1156 l 482 1274 l 551 1274 l 689 1156 l 635 1126 l 517 1214 l 399 1126 l 346 1156 m 839 143 q 524 -7 701 -7 q 340 36 424 -7 q 194 150 256 79 q 97 310 132 221 q 63 494 63 400 q 97 683 63 593 q 191 842 131 774 q 335 952 251 911 q 518 993 419 993 q 649 977 590 993 q 755 933 708 961 q 836 865 801 904 q 894 778 871 825 l 819 728 q 693 863 771 819 q 517 906 615 906 q 369 871 435 906 q 256 778 303 836 q 185 647 210 721 q 160 493 160 572 q 188 335 160 410 q 267 203 217 260 q 384 114 317 147 q 531 81 451 81 q 692 120 615 81 q 839 244 768 160 l 839 410 l 621 410 l 621 485 l 922 485 l 922 0 l 839 0 l 839 143 z "},"Ģ":{"ha":1003,"x_min":63,"x_max":922,"o":"m 457 -182 q 486 -157 486 -182 l 486 -68 l 567 -68 l 567 -157 q 536 -215 567 -200 q 457 -229 506 -229 l 457 -182 m 839 143 q 524 -7 701 -7 q 340 36 424 -7 q 194 150 256 79 q 97 310 132 221 q 63 494 63 400 q 97 683 63 593 q 191 842 131 774 q 335 952 251 911 q 518 993 419 993 q 649 977 590 993 q 755 933 708 961 q 836 865 801 904 q 894 778 871 825 l 819 728 q 693 863 771 819 q 517 906 615 906 q 369 871 435 906 q 256 778 303 836 q 185 647 210 721 q 160 493 160 572 q 188 335 160 410 q 267 203 217 260 q 384 114 317 147 q 531 81 451 81 q 692 120 615 81 q 839 244 768 160 l 839 410 l 621 410 l 621 485 l 922 485 l 922 0 l 839 0 l 839 143 z "},"":{"ha":214,"x_min":57,"x_max":167,"o":"m 57 -182 q 86 -157 86 -182 l 86 -68 l 167 -68 l 167 -157 q 136 -215 167 -200 q 57 -229 106 -229 l 57 -182 z "},"Ġ":{"ha":1003,"x_min":63,"x_max":922,"o":"m 839 143 q 524 -7 701 -7 q 340 36 424 -7 q 194 150 256 79 q 97 310 132 221 q 63 494 63 400 q 97 683 63 593 q 191 842 131 774 q 335 952 251 911 q 518 993 419 993 q 649 977 590 993 q 755 933 708 961 q 836 865 801 904 q 894 778 871 825 l 819 728 q 693 863 771 819 q 517 906 615 906 q 369 871 435 906 q 256 778 303 836 q 185 647 210 721 q 160 493 160 572 q 188 335 160 410 q 267 203 217 260 q 384 114 317 147 q 531 81 451 81 q 692 120 615 81 q 839 244 768 160 l 839 410 l 621 410 l 621 485 l 922 485 l 922 0 l 839 0 l 839 143 m 474 1139 l 474 1274 l 560 1274 l 560 1139 l 474 1139 z "},"H":{"ha":1026,"x_min":125,"x_max":903,"o":"m 903 986 l 903 0 l 806 0 l 806 461 l 221 461 l 221 0 l 125 0 l 125 986 l 221 986 l 221 547 l 806 547 l 806 986 l 903 986 z "},"Ħ":{"ha":1038,"x_min":61,"x_max":978,"o":"m 908 986 l 908 818 l 978 818 l 978 764 l 908 764 l 908 0 l 811 0 l 811 461 l 226 461 l 226 0 l 131 0 l 131 764 l 61 764 l 61 818 l 131 818 l 131 986 l 226 986 l 226 818 l 811 818 l 811 986 l 908 986 m 811 547 l 811 764 l 226 764 l 226 547 l 811 547 z "},"Ĥ":{"ha":1026,"x_min":125,"x_max":903,"o":"m 346 1156 l 482 1274 l 551 1274 l 689 1156 l 635 1126 l 517 1214 l 399 1126 l 346 1156 m 903 986 l 903 0 l 806 0 l 806 461 l 221 461 l 221 0 l 125 0 l 125 986 l 221 986 l 221 547 l 806 547 l 806 986 l 903 986 z "},"I":{"ha":346,"x_min":125,"x_max":221,"o":"m 125 0 l 125 985 l 221 985 l 221 0 l 125 0 z "},"Ĳ":{"ha":1021,"x_min":125,"x_max":908,"o":"m 125 0 l 125 985 l 221 985 l 221 0 l 125 0 m 399 124 q 477 88 429 103 q 585 72 525 72 q 705 99 660 72 q 774 179 750 126 q 804 309 797 232 q 811 485 811 386 l 811 985 l 908 985 l 908 485 q 898 280 908 372 q 854 122 888 188 q 757 21 821 57 q 585 -15 693 -15 q 371 46 460 -15 l 399 124 z "},"J":{"ha":675,"x_min":25,"x_max":563,"o":"m 53 124 q 131 88 83 103 q 239 72 179 72 q 359 99 314 72 q 428 179 404 126 q 458 309 451 232 q 465 485 465 386 l 465 985 l 563 985 l 563 485 q 552 280 563 372 q 508 122 542 188 q 411 21 475 57 q 239 -15 347 -15 q 25 46 114 -15 l 53 124 z "},"Í":{"ha":346,"x_min":119,"x_max":301,"o":"m 125 0 l 125 985 l 221 985 l 221 0 l 125 0 m 182 1121 l 119 1144 l 201 1274 l 301 1274 l 182 1121 z "},"Ĭ":{"ha":346,"x_min":36,"x_max":308,"o":"m 125 0 l 125 985 l 221 985 l 221 0 l 125 0 m 172 1182 q 224 1208 201 1182 q 251 1274 247 1235 l 308 1274 q 298 1219 308 1244 q 269 1174 288 1193 q 225 1144 250 1156 q 172 1133 200 1133 q 75 1174 114 1133 q 36 1274 36 1214 l 94 1274 q 118 1210 94 1238 q 172 1182 142 1182 z "},"Î":{"ha":346,"x_min":1,"x_max":344,"o":"m 125 0 l 125 985 l 221 985 l 221 0 l 125 0 m 1 1156 l 138 1274 l 207 1274 l 344 1156 l 290 1126 l 172 1214 l 54 1126 l 1 1156 z "},"Ï":{"ha":346,"x_min":29,"x_max":317,"o":"m 125 0 l 125 985 l 221 985 l 221 0 l 125 0 m 29 1139 l 29 1269 l 110 1269 l 110 1139 l 29 1139 m 236 1139 l 236 1269 l 317 1269 l 317 1139 l 236 1139 z "},"İ":{"ha":346,"x_min":125,"x_max":221,"o":"m 125 0 l 125 985 l 221 985 l 221 0 l 125 0 m 129 1139 l 129 1274 l 215 1274 l 215 1139 l 129 1139 z "},"Ì":{"ha":346,"x_min":43,"x_max":225,"o":"m 125 0 l 125 985 l 221 985 l 221 0 l 125 0 m 43 1274 l 142 1274 l 225 1144 l 164 1121 l 43 1274 z "},"Ī":{"ha":346,"x_min":-26,"x_max":375,"o":"m 125 0 l 125 985 l 221 985 l 221 0 l 125 0 m -26 1181 l -26 1246 l 375 1246 l 375 1181 l -26 1181 z "},"Į":{"ha":346,"x_min":49,"x_max":221,"o":"m 153 -243 q 75 -205 101 -232 q 49 -142 49 -178 q 74 -72 49 -107 q 153 0 99 -37 l 125 0 l 125 985 l 221 985 l 221 0 q 133 -69 158 -39 q 107 -129 107 -99 q 179 -190 107 -181 l 153 -243 l 153 -243 z "},"Ĩ":{"ha":346,"x_min":-47,"x_max":394,"o":"m 125 0 l 125 985 l 221 985 l 221 0 l 125 0 m 258 1146 q 203 1154 226 1146 q 160 1173 181 1163 q 122 1192 140 1183 q 81 1201 103 1201 q 44 1192 57 1201 q 23 1170 31 1182 q 13 1148 15 1158 q 11 1135 11 1138 l -47 1135 q -42 1163 -47 1142 q -24 1207 -37 1185 q 15 1247 -10 1229 q 79 1264 40 1264 q 130 1255 108 1264 q 171 1235 151 1246 q 210 1215 190 1224 q 257 1206 231 1206 q 299 1215 283 1206 q 324 1238 315 1225 q 334 1260 332 1250 q 336 1274 336 1271 l 394 1274 q 389 1246 394 1267 q 369 1203 383 1225 q 327 1163 354 1181 q 258 1146 300 1146 z "},"Ĵ":{"ha":675,"x_min":25,"x_max":688,"o":"m 344 1156 l 481 1274 l 550 1274 l 688 1156 l 633 1126 l 515 1214 l 397 1126 l 344 1156 m 53 124 q 131 88 83 103 q 239 72 179 72 q 359 99 314 72 q 428 179 404 126 q 458 309 451 232 q 465 485 465 386 l 465 985 l 563 985 l 563 485 q 552 280 563 372 q 508 122 542 188 q 411 21 475 57 q 239 -15 347 -15 q 25 46 114 -15 l 53 124 z "},"K":{"ha":890,"x_min":125,"x_max":893,"o":"m 125 0 l 125 985 l 221 985 l 221 413 l 764 986 l 871 986 l 468 553 l 893 0 l 786 0 l 408 496 l 221 303 l 221 0 l 125 0 z "},"Ķ":{"ha":890,"x_min":125,"x_max":893,"o":"m 390 -182 q 419 -157 419 -182 l 419 -68 l 500 -68 l 500 -157 q 469 -215 500 -200 q 390 -229 439 -229 l 390 -182 m 125 0 l 125 985 l 221 985 l 221 413 l 764 986 l 871 986 l 468 553 l 893 0 l 786 0 l 408 496 l 221 303 l 221 0 l 125 0 z "},"L":{"ha":819,"x_min":125,"x_max":792,"o":"m 125 0 l 125 986 l 221 986 l 221 86 l 792 86 l 792 0 l 125 0 z "},"Ĺ":{"ha":819,"x_min":125,"x_max":792,"o":"m 486 1121 l 424 1144 l 506 1274 l 606 1274 l 486 1121 m 125 0 l 125 986 l 221 986 l 221 86 l 792 86 l 792 0 l 125 0 z "},"Ľ":{"ha":819,"x_min":125,"x_max":792,"o":"m 529 861 l 467 885 l 549 1014 l 649 1014 l 529 861 m 125 0 l 125 986 l 221 986 l 221 86 l 792 86 l 792 0 l 125 0 z "},"Ļ":{"ha":819,"x_min":125,"x_max":792,"o":"m 394 -182 q 424 -157 424 -182 l 424 -68 l 504 -68 l 504 -157 q 474 -215 504 -200 q 394 -229 443 -229 l 394 -182 m 125 0 l 125 986 l 221 986 l 221 86 l 792 86 l 792 0 l 125 0 z "},"Ŀ":{"ha":819,"x_min":125,"x_max":792,"o":"m 125 0 l 125 986 l 221 986 l 221 86 l 792 86 l 792 0 l 125 0 m 510 483 l 510 639 l 590 639 l 590 483 l 510 483 z "},"·":{"ha":263,"x_min":92,"x_max":172,"o":"m 92 342 l 92 497 l 172 497 l 172 342 l 92 342 z "},"Ł":{"ha":831,"x_min":24,"x_max":801,"o":"m 135 0 l 135 385 l 54 318 l 24 374 l 135 465 l 135 986 l 231 986 l 231 544 l 447 725 l 478 671 l 231 465 l 231 86 l 801 86 l 801 0 l 135 0 z "},"M":{"ha":1219,"x_min":125,"x_max":1094,"o":"m 999 0 l 999 810 l 639 183 l 582 183 l 221 810 l 221 0 l 125 0 l 125 986 l 224 986 l 610 311 l 996 986 l 1094 986 l 1094 0 l 999 0 z "},"N":{"ha":1074,"x_min":125,"x_max":949,"o":"m 221 806 l 221 0 l 125 0 l 125 986 l 200 986 l 853 165 l 853 985 l 949 985 l 949 0 l 865 0 l 221 806 z "},"A":{"ha":943,"x_min":21,"x_max":925,"o":"m 21 0 l 433 986 l 513 986 l 925 0 l 821 0 l 693 308 l 250 308 l 124 0 l 21 0 m 474 872 l 271 385 l 671 385 l 474 872 z "},"Ń":{"ha":1074,"x_min":125,"x_max":949,"o":"m 550 1121 l 488 1144 l 569 1274 l 669 1274 l 550 1121 m 221 806 l 221 0 l 125 0 l 125 986 l 200 986 l 853 165 l 853 985 l 949 985 l 949 0 l 865 0 l 221 806 z "},"Ň":{"ha":1074,"x_min":125,"x_max":949,"o":"m 422 1274 l 540 1186 l 658 1274 l 713 1246 l 575 1126 l 506 1126 l 369 1246 l 422 1274 m 221 806 l 221 0 l 125 0 l 125 986 l 200 986 l 853 165 l 853 985 l 949 985 l 949 0 l 865 0 l 221 806 z "},"Ņ":{"ha":1074,"x_min":125,"x_max":949,"o":"m 471 -182 q 500 -157 500 -182 l 500 -68 l 581 -68 l 581 -157 q 550 -215 581 -200 q 471 -229 519 -229 l 471 -182 m 221 806 l 221 0 l 125 0 l 125 986 l 200 986 l 853 165 l 853 985 l 949 985 l 949 0 l 865 0 l 221 806 z "},"Ṅ":{"ha":1074,"x_min":125,"x_max":949,"o":"m 497 1139 l 497 1274 l 583 1274 l 583 1139 l 497 1139 m 221 806 l 221 0 l 125 0 l 125 986 l 200 986 l 853 165 l 853 985 l 949 985 l 949 0 l 865 0 l 221 806 z "},"Ñ":{"ha":1074,"x_min":125,"x_max":949,"o":"m 221 806 l 221 0 l 125 0 l 125 986 l 200 986 l 853 165 l 853 985 l 949 985 l 949 0 l 865 0 l 221 806 m 626 1146 q 572 1154 594 1146 q 528 1173 549 1163 q 490 1192 508 1183 q 449 1201 471 1201 q 412 1192 425 1201 q 391 1170 399 1182 q 381 1148 383 1158 q 379 1135 379 1138 l 321 1135 q 326 1163 321 1142 q 344 1207 331 1185 q 383 1247 358 1229 q 447 1264 408 1264 q 498 1255 476 1264 q 539 1235 519 1246 q 578 1215 558 1224 q 625 1206 599 1206 q 667 1215 651 1206 q 692 1238 683 1225 q 702 1260 700 1250 q 704 1274 704 1271 l 763 1274 q 757 1246 763 1267 q 737 1203 751 1225 q 695 1163 722 1181 q 626 1146 668 1146 z "},"O":{"ha":1050,"x_min":63,"x_max":988,"o":"m 525 -7 q 337 35 422 -7 q 190 148 251 78 q 96 308 129 218 q 63 493 63 399 q 98 682 63 592 q 196 842 133 772 q 343 952 258 911 q 526 993 428 993 q 715 949 629 993 q 860 835 800 906 q 954 674 921 764 q 988 492 988 585 q 952 303 988 393 q 855 144 917 213 q 708 34 793 75 q 525 -7 624 -7 m 160 493 q 186 338 160 413 q 261 206 213 264 q 376 115 310 149 q 525 81 443 81 q 676 117 608 81 q 792 211 744 153 q 865 343 839 269 q 890 493 890 417 q 863 648 890 574 q 788 779 836 722 q 672 870 739 836 q 525 904 606 904 q 374 869 442 904 q 258 775 306 833 q 185 643 211 717 q 160 493 160 569 z "},"Œ":{"ha":1611,"x_min":63,"x_max":1549,"o":"m 1549 86 l 1549 0 l 893 0 l 893 250 q 833 149 869 196 q 749 67 796 101 q 645 13 701 32 q 526 -7 589 -7 q 338 35 424 -7 q 192 148 253 78 q 97 308 131 218 q 63 493 63 399 q 98 682 63 592 q 196 842 133 772 q 343 952 258 911 q 526 993 428 993 q 647 973 590 993 q 751 918 704 953 q 834 836 799 883 q 893 736 869 789 l 893 986 l 1536 986 l 1536 900 l 990 900 l 990 546 l 1461 546 l 1461 460 l 990 460 l 990 86 l 1549 86 m 525 81 q 676 116 608 81 q 792 210 744 151 q 865 342 839 268 q 890 494 890 417 q 863 648 890 574 q 788 780 836 722 q 672 872 739 838 q 525 906 606 906 q 374 870 442 906 q 258 776 306 835 q 185 644 211 718 q 160 493 160 569 q 186 338 160 413 q 261 206 213 264 q 376 115 310 149 q 525 81 443 81 z "},"Ó":{"ha":1050,"x_min":63,"x_max":988,"o":"m 535 1121 l 472 1144 l 554 1274 l 654 1274 l 535 1121 m 525 -7 q 337 35 422 -7 q 190 148 251 78 q 96 308 129 218 q 63 493 63 399 q 98 682 63 592 q 196 842 133 772 q 343 952 258 911 q 526 993 428 993 q 715 949 629 993 q 860 835 800 906 q 954 674 921 764 q 988 492 988 585 q 952 303 988 393 q 855 144 917 213 q 708 34 793 75 q 525 -7 624 -7 m 160 493 q 186 338 160 413 q 261 206 213 264 q 376 115 310 149 q 525 81 443 81 q 676 117 608 81 q 792 211 744 153 q 865 343 839 269 q 890 493 890 417 q 863 648 890 574 q 788 779 836 722 q 672 870 739 836 q 525 904 606 904 q 374 869 442 904 q 258 775 306 833 q 185 643 211 717 q 160 493 160 569 z "},"Ŏ":{"ha":1050,"x_min":63,"x_max":988,"o":"m 525 -7 q 337 35 422 -7 q 190 148 251 78 q 96 308 129 218 q 63 493 63 399 q 98 682 63 592 q 196 842 133 772 q 343 952 258 911 q 526 993 428 993 q 715 949 629 993 q 860 835 800 906 q 954 674 921 764 q 988 492 988 585 q 952 303 988 393 q 855 144 917 213 q 708 34 793 75 q 525 -7 624 -7 m 160 493 q 186 338 160 413 q 261 206 213 264 q 376 115 310 149 q 525 81 443 81 q 676 117 608 81 q 792 211 744 153 q 865 343 839 269 q 890 493 890 417 q 863 648 890 574 q 788 779 836 722 q 672 870 739 836 q 525 904 606 904 q 374 869 442 904 q 258 775 306 833 q 185 643 211 717 q 160 493 160 569 m 526 1182 q 578 1208 556 1182 q 606 1274 601 1235 l 663 1274 q 652 1219 663 1244 q 623 1174 642 1193 q 579 1144 604 1156 q 526 1133 554 1133 q 429 1174 468 1133 q 390 1274 390 1214 l 449 1274 q 472 1210 449 1238 q 526 1182 496 1182 z "},"Ô":{"ha":1050,"x_min":63,"x_max":988,"o":"m 356 1156 l 492 1274 l 561 1274 l 699 1156 l 644 1126 l 526 1214 l 408 1126 l 356 1156 m 525 -7 q 337 35 422 -7 q 190 148 251 78 q 96 308 129 218 q 63 493 63 399 q 98 682 63 592 q 196 842 133 772 q 343 952 258 911 q 526 993 428 993 q 715 949 629 993 q 860 835 800 906 q 954 674 921 764 q 988 492 988 585 q 952 303 988 393 q 855 144 917 213 q 708 34 793 75 q 525 -7 624 -7 m 160 493 q 186 338 160 413 q 261 206 213 264 q 376 115 310 149 q 525 81 443 81 q 676 117 608 81 q 792 211 744 153 q 865 343 839 269 q 890 493 890 417 q 863 648 890 574 q 788 779 836 722 q 672 870 739 836 q 525 904 606 904 q 374 869 442 904 q 258 775 306 833 q 185 643 211 717 q 160 493 160 569 z "},"Ö":{"ha":1050,"x_min":63,"x_max":988,"o":"m 382 1139 l 382 1269 l 463 1269 l 463 1139 l 382 1139 m 589 1139 l 589 1269 l 669 1269 l 669 1139 l 589 1139 m 525 -7 q 337 35 422 -7 q 190 148 251 78 q 96 308 129 218 q 63 493 63 399 q 98 682 63 592 q 196 842 133 772 q 343 952 258 911 q 526 993 428 993 q 715 949 629 993 q 860 835 800 906 q 954 674 921 764 q 988 492 988 585 q 952 303 988 393 q 855 144 917 213 q 708 34 793 75 q 525 -7 624 -7 m 160 493 q 186 338 160 413 q 261 206 213 264 q 376 115 310 149 q 525 81 443 81 q 676 117 608 81 q 792 211 744 153 q 865 343 839 269 q 890 493 890 417 q 863 648 890 574 q 788 779 836 722 q 672 870 739 836 q 525 904 606 904 q 374 869 442 904 q 258 775 306 833 q 185 643 211 717 q 160 493 160 569 z "},"Ò":{"ha":1050,"x_min":63,"x_max":988,"o":"m 525 -7 q 337 35 422 -7 q 190 148 251 78 q 96 308 129 218 q 63 493 63 399 q 98 682 63 592 q 196 842 133 772 q 343 952 258 911 q 526 993 428 993 q 715 949 629 993 q 860 835 800 906 q 954 674 921 764 q 988 492 988 585 q 952 303 988 393 q 855 144 917 213 q 708 34 793 75 q 525 -7 624 -7 m 160 493 q 186 338 160 413 q 261 206 213 264 q 376 115 310 149 q 525 81 443 81 q 676 117 608 81 q 792 211 744 153 q 865 343 839 269 q 890 493 890 417 q 863 648 890 574 q 788 779 836 722 q 672 870 739 836 q 525 904 606 904 q 374 869 442 904 q 258 775 306 833 q 185 643 211 717 q 160 493 160 569 m 397 1274 l 496 1274 l 579 1144 l 518 1121 l 397 1274 z "},"Ő":{"ha":1050,"x_min":63,"x_max":988,"o":"m 439 1121 l 388 1144 l 467 1274 l 556 1274 l 439 1121 m 614 1121 l 561 1144 l 640 1274 l 729 1274 l 614 1121 m 525 -7 q 337 35 422 -7 q 190 148 251 78 q 96 308 129 218 q 63 493 63 399 q 98 682 63 592 q 196 842 133 772 q 343 952 258 911 q 526 993 428 993 q 715 949 629 993 q 860 835 800 906 q 954 674 921 764 q 988 492 988 585 q 952 303 988 393 q 855 144 917 213 q 708 34 793 75 q 525 -7 624 -7 m 160 493 q 186 338 160 413 q 261 206 213 264 q 376 115 310 149 q 525 81 443 81 q 676 117 608 81 q 792 211 744 153 q 865 343 839 269 q 890 493 890 417 q 863 648 890 574 q 788 779 836 722 q 672 870 739 836 q 525 904 606 904 q 374 869 442 904 q 258 775 306 833 q 185 643 211 717 q 160 493 160 569 z "},"˝":{"ha":453,"x_min":60,"x_max":401,"o":"m 111 861 l 60 885 l 139 1014 l 228 1014 l 111 861 m 286 861 l 233 885 l 313 1014 l 401 1014 l 286 861 z "},"Ō":{"ha":1050,"x_min":63,"x_max":988,"o":"m 326 1181 l 326 1246 l 728 1246 l 728 1181 l 326 1181 m 525 -7 q 337 35 422 -7 q 190 148 251 78 q 96 308 129 218 q 63 493 63 399 q 98 682 63 592 q 196 842 133 772 q 343 952 258 911 q 526 993 428 993 q 715 949 629 993 q 860 835 800 906 q 954 674 921 764 q 988 492 988 585 q 952 303 988 393 q 855 144 917 213 q 708 34 793 75 q 525 -7 624 -7 m 160 493 q 186 338 160 413 q 261 206 213 264 q 376 115 310 149 q 525 81 443 81 q 676 117 608 81 q 792 211 744 153 q 865 343 839 269 q 890 493 890 417 q 863 648 890 574 q 788 779 836 722 q 672 870 739 836 q 525 904 606 904 q 374 869 442 904 q 258 775 306 833 q 185 643 211 717 q 160 493 160 569 z "},"Ǫ":{"ha":1050,"x_min":63,"x_max":988,"o":"m 488 -247 q 410 -209 436 -236 q 383 -146 383 -182 q 408 -76 383 -111 q 486 -4 433 -42 q 313 49 390 4 q 179 162 235 93 q 93 317 124 231 q 63 493 63 403 q 98 682 63 592 q 196 842 133 772 q 343 952 258 911 q 526 993 428 993 q 715 949 629 993 q 860 835 800 906 q 954 674 921 764 q 988 492 988 585 q 955 310 988 397 q 864 154 922 222 q 726 43 806 86 q 553 -6 646 0 q 467 -73 492 -43 q 442 -133 442 -103 q 514 -194 442 -185 l 488 -247 m 160 493 q 186 338 160 413 q 261 206 213 264 q 376 115 310 149 q 525 81 443 81 q 676 117 608 81 q 792 211 744 153 q 865 343 839 269 q 890 493 890 417 q 863 648 890 574 q 788 779 836 722 q 672 870 739 836 q 525 904 606 904 q 374 869 442 904 q 258 775 306 833 q 185 643 211 717 q 160 493 160 569 z "},"Ø":{"ha":1050,"x_min":63,"x_max":988,"o":"m 907 986 l 828 868 q 945 695 903 794 q 988 492 988 596 q 952 303 988 393 q 855 144 917 213 q 708 34 793 75 q 525 -7 624 -7 q 399 11 458 -7 q 290 61 340 29 l 250 0 l 143 0 l 221 117 q 104 288 146 189 q 63 493 63 386 q 98 682 63 592 q 196 842 133 772 q 343 952 258 911 q 526 993 428 993 q 650 975 592 993 q 757 925 708 957 l 799 986 l 907 986 m 890 493 q 860 655 890 578 q 776 790 829 732 l 340 136 q 426 95 381 110 q 525 81 472 81 q 676 117 608 81 q 792 211 744 153 q 865 343 839 269 q 890 493 890 417 m 160 493 q 190 329 160 407 q 272 193 219 251 l 707 849 q 622 890 667 875 q 525 904 576 904 q 374 869 442 904 q 258 775 306 833 q 185 643 211 717 q 160 493 160 569 z "},"/":{"ha":842,"x_min":40,"x_max":804,"o":"m 804 986 l 147 0 l 40 0 l 696 986 l 804 986 z "},"Ǿ":{"ha":1050,"x_min":63,"x_max":988,"o":"m 907 986 l 828 868 q 945 695 903 794 q 988 492 988 596 q 952 303 988 393 q 855 144 917 213 q 708 34 793 75 q 525 -7 624 -7 q 399 11 458 -7 q 290 61 340 29 l 250 0 l 143 0 l 221 117 q 104 288 146 189 q 63 493 63 386 q 98 682 63 592 q 196 842 133 772 q 343 952 258 911 q 526 993 428 993 q 650 975 592 993 q 757 925 708 957 l 799 986 l 907 986 m 890 493 q 860 655 890 578 q 776 790 829 732 l 340 136 q 426 95 381 110 q 525 81 472 81 q 676 117 608 81 q 792 211 744 153 q 865 343 839 269 q 890 493 890 417 m 160 493 q 190 329 160 407 q 272 193 219 251 l 707 849 q 622 890 667 875 q 525 904 576 904 q 374 869 442 904 q 258 775 306 833 q 185 643 211 717 q 160 493 160 569 m 535 1121 l 472 1144 l 554 1274 l 654 1274 l 535 1121 z "},"Õ":{"ha":1050,"x_min":63,"x_max":988,"o":"m 525 -7 q 337 35 422 -7 q 190 148 251 78 q 96 308 129 218 q 63 493 63 399 q 98 682 63 592 q 196 842 133 772 q 343 952 258 911 q 526 993 428 993 q 715 949 629 993 q 860 835 800 906 q 954 674 921 764 q 988 492 988 585 q 952 303 988 393 q 855 144 917 213 q 708 34 793 75 q 525 -7 624 -7 m 160 493 q 186 338 160 413 q 261 206 213 264 q 376 115 310 149 q 525 81 443 81 q 676 117 608 81 q 792 211 744 153 q 865 343 839 269 q 890 493 890 417 q 863 648 890 574 q 788 779 836 722 q 672 870 739 836 q 525 904 606 904 q 374 869 442 904 q 258 775 306 833 q 185 643 211 717 q 160 493 160 569 m 613 1146 q 558 1154 581 1146 q 515 1173 535 1163 q 476 1192 494 1183 q 435 1201 457 1201 q 398 1192 411 1201 q 377 1170 385 1182 q 367 1148 369 1158 q 365 1135 365 1138 l 307 1135 q 312 1163 307 1142 q 331 1207 317 1185 q 369 1247 344 1229 q 433 1264 394 1264 q 484 1255 463 1264 q 525 1235 506 1246 q 565 1215 544 1224 q 611 1206 585 1206 q 653 1215 638 1206 q 678 1238 669 1225 q 688 1260 686 1250 q 690 1274 690 1271 l 749 1274 q 743 1246 749 1267 q 723 1203 738 1225 q 681 1163 708 1181 q 613 1146 654 1146 z "},"P":{"ha":863,"x_min":125,"x_max":825,"o":"m 125 0 l 125 986 l 533 986 q 651 959 597 986 q 743 888 704 932 q 803 789 782 844 q 825 676 825 733 q 805 559 825 615 q 747 460 785 503 q 658 390 710 417 q 542 364 606 364 l 221 364 l 221 0 l 125 0 m 221 450 l 536 450 q 615 469 579 450 q 675 519 650 488 q 714 591 700 550 q 728 676 728 632 q 712 763 728 722 q 669 835 696 804 q 605 883 642 865 q 528 900 568 900 l 221 900 l 221 450 z "},"Q":{"ha":1050,"x_min":63,"x_max":988,"o":"m 794 88 q 670 18 738 43 q 525 -7 603 -7 q 337 36 422 -7 q 190 149 251 79 q 96 308 129 218 q 63 493 63 399 q 98 682 63 592 q 196 842 133 772 q 343 952 258 911 q 526 993 428 993 q 715 949 629 993 q 860 835 800 906 q 954 674 921 764 q 988 492 988 585 q 951 299 988 390 q 849 138 914 207 l 965 0 l 869 0 l 794 88 m 525 81 q 640 101 588 81 q 738 156 693 121 l 614 303 l 710 303 l 789 208 q 864 341 838 267 q 890 493 890 415 q 863 648 890 574 q 788 779 836 722 q 672 871 739 836 q 525 906 606 906 q 374 870 442 906 q 258 776 306 835 q 185 644 211 718 q 160 493 160 569 q 186 338 160 413 q 261 206 213 264 q 376 115 310 149 q 525 81 443 81 z "},"R":{"ha":917,"x_min":125,"x_max":856,"o":"m 125 0 l 125 986 l 540 986 q 658 959 604 986 q 751 888 713 932 q 812 789 790 844 q 833 676 833 733 q 817 573 833 622 q 772 484 801 524 q 703 417 743 444 q 613 381 663 390 l 856 0 l 746 0 l 513 364 l 221 364 l 221 0 l 125 0 m 221 450 l 544 450 q 623 469 588 450 q 683 519 658 488 q 722 592 708 551 q 736 676 736 632 q 720 762 736 721 q 677 833 704 803 q 613 882 650 864 q 536 900 576 900 l 221 900 l 221 450 z "},"Ŕ":{"ha":917,"x_min":125,"x_max":856,"o":"m 451 1124 l 389 1147 l 471 1276 l 571 1276 l 451 1124 m 125 0 l 125 986 l 540 986 q 658 959 604 986 q 751 888 713 932 q 812 789 790 844 q 833 676 833 733 q 817 573 833 622 q 772 484 801 524 q 703 417 743 444 q 613 381 663 390 l 856 0 l 746 0 l 513 364 l 221 364 l 221 0 l 125 0 m 221 450 l 544 450 q 623 469 588 450 q 683 519 658 488 q 722 592 708 551 q 736 676 736 632 q 720 762 736 721 q 677 833 704 803 q 613 882 650 864 q 536 900 576 900 l 221 900 l 221 450 z "},"Ř":{"ha":917,"x_min":125,"x_max":856,"o":"m 324 1276 l 442 1189 l 560 1276 l 614 1249 l 476 1129 l 407 1129 l 271 1249 l 324 1276 m 125 0 l 125 986 l 540 986 q 658 959 604 986 q 751 888 713 932 q 812 789 790 844 q 833 676 833 733 q 817 573 833 622 q 772 484 801 524 q 703 417 743 444 q 613 381 663 390 l 856 0 l 746 0 l 513 364 l 221 364 l 221 0 l 125 0 m 221 450 l 544 450 q 623 469 588 450 q 683 519 658 488 q 722 592 708 551 q 736 676 736 632 q 720 762 736 721 q 677 833 704 803 q 613 882 650 864 q 536 900 576 900 l 221 900 l 221 450 z "},"Ŗ":{"ha":917,"x_min":125,"x_max":856,"o":"m 386 -182 q 415 -157 415 -182 l 415 -68 l 496 -68 l 496 -157 q 465 -215 496 -200 q 386 -229 435 -229 l 386 -182 m 125 0 l 125 986 l 540 986 q 658 959 604 986 q 751 888 713 932 q 812 789 790 844 q 833 676 833 733 q 817 573 833 622 q 772 484 801 524 q 703 417 743 444 q 613 381 663 390 l 856 0 l 746 0 l 513 364 l 221 364 l 221 0 l 125 0 m 221 450 l 544 450 q 623 469 588 450 q 683 519 658 488 q 722 592 708 551 q 736 676 736 632 q 720 762 736 721 q 677 833 704 803 q 613 882 650 864 q 536 900 576 900 l 221 900 l 221 450 z "},"S":{"ha":850,"x_min":49,"x_max":799,"o":"m 704 801 q 592 878 663 849 q 435 907 522 907 q 243 858 303 907 q 183 724 183 808 q 199 651 183 679 q 249 601 215 622 q 335 565 283 581 q 458 535 388 550 q 600 498 538 518 q 707 447 663 478 q 775 370 751 415 q 799 258 799 325 q 772 140 799 190 q 699 57 746 90 q 586 8 651 24 q 444 -8 521 -8 q 49 135 213 -8 l 96 214 q 242 117 150 157 q 446 78 333 78 q 631 120 564 78 q 697 249 697 163 q 678 326 697 294 q 622 380 660 357 q 528 419 585 403 q 399 453 472 436 q 263 490 321 471 q 165 539 204 510 q 105 609 125 568 q 85 710 85 650 q 110 831 85 778 q 183 920 136 885 q 294 974 229 956 q 436 993 358 993 q 610 963 533 993 q 750 879 688 933 l 704 801 z "},"Ś":{"ha":850,"x_min":49,"x_max":799,"o":"m 447 1143 l 385 1167 l 467 1296 l 567 1296 l 447 1143 m 704 801 q 592 878 663 849 q 435 907 522 907 q 243 858 303 907 q 183 724 183 808 q 199 651 183 679 q 249 601 215 622 q 335 565 283 581 q 458 535 388 550 q 600 498 538 518 q 707 447 663 478 q 775 370 751 415 q 799 258 799 325 q 772 140 799 190 q 699 57 746 90 q 586 8 651 24 q 444 -8 521 -8 q 49 135 213 -8 l 96 214 q 242 117 150 157 q 446 78 333 78 q 631 120 564 78 q 697 249 697 163 q 678 326 697 294 q 622 380 660 357 q 528 419 585 403 q 399 453 472 436 q 263 490 321 471 q 165 539 204 510 q 105 609 125 568 q 85 710 85 650 q 110 831 85 778 q 183 920 136 885 q 294 974 229 956 q 436 993 358 993 q 610 963 533 993 q 750 879 688 933 l 704 801 z "},"Š":{"ha":850,"x_min":49,"x_max":799,"o":"m 321 1296 l 439 1208 l 557 1296 l 611 1268 l 474 1149 l 404 1149 l 268 1268 l 321 1296 m 704 801 q 592 878 663 849 q 435 907 522 907 q 243 858 303 907 q 183 724 183 808 q 199 651 183 679 q 249 601 215 622 q 335 565 283 581 q 458 535 388 550 q 600 498 538 518 q 707 447 663 478 q 775 370 751 415 q 799 258 799 325 q 772 140 799 190 q 699 57 746 90 q 586 8 651 24 q 444 -8 521 -8 q 49 135 213 -8 l 96 214 q 242 117 150 157 q 446 78 333 78 q 631 120 564 78 q 697 249 697 163 q 678 326 697 294 q 622 380 660 357 q 528 419 585 403 q 399 453 472 436 q 263 490 321 471 q 165 539 204 510 q 105 609 125 568 q 85 710 85 650 q 110 831 85 778 q 183 920 136 885 q 294 974 229 956 q 436 993 358 993 q 610 963 533 993 q 750 879 688 933 l 704 801 z "},"Ŝ":{"ha":850,"x_min":49,"x_max":799,"o":"m 268 1178 l 404 1296 l 474 1296 l 611 1178 l 557 1149 l 439 1236 l 321 1149 l 268 1178 m 704 801 q 592 878 663 849 q 435 907 522 907 q 243 858 303 907 q 183 724 183 808 q 199 651 183 679 q 249 601 215 622 q 335 565 283 581 q 458 535 388 550 q 600 498 538 518 q 707 447 663 478 q 775 370 751 415 q 799 258 799 325 q 772 140 799 190 q 699 57 746 90 q 586 8 651 24 q 444 -8 521 -8 q 49 135 213 -8 l 96 214 q 242 117 150 157 q 446 78 333 78 q 631 120 564 78 q 697 249 697 163 q 678 326 697 294 q 622 380 660 357 q 528 419 585 403 q 399 453 472 436 q 263 490 321 471 q 165 539 204 510 q 105 609 125 568 q 85 710 85 650 q 110 831 85 778 q 183 920 136 885 q 294 974 229 956 q 436 993 358 993 q 610 963 533 993 q 750 879 688 933 l 704 801 z "},"T":{"ha":853,"x_min":26,"x_max":826,"o":"m 826 900 l 475 900 l 475 0 l 378 0 l 378 900 l 26 900 l 26 986 l 826 986 l 826 900 z "},"Ŧ":{"ha":904,"x_min":51,"x_max":851,"o":"m 851 900 l 500 900 l 500 563 l 806 563 l 806 508 l 500 508 l 500 0 l 403 0 l 403 508 l 97 508 l 97 563 l 403 563 l 403 900 l 51 900 l 51 986 l 851 986 l 851 900 z "},"Ť":{"ha":853,"x_min":26,"x_max":826,"o":"m 311 1274 l 429 1186 l 547 1274 l 601 1246 l 464 1126 l 394 1126 l 258 1246 l 311 1274 m 826 900 l 475 900 l 475 0 l 378 0 l 378 900 l 26 900 l 26 986 l 826 986 l 826 900 z "},"Þ":{"ha":842,"x_min":125,"x_max":800,"o":"m 507 790 q 624 763 571 790 q 717 692 678 736 q 778 593 756 649 q 800 481 800 538 q 779 363 800 419 q 721 264 758 307 q 631 194 683 221 q 515 168 579 168 l 221 168 l 221 0 l 125 0 l 125 986 l 221 986 l 221 790 l 507 790 m 513 256 q 591 274 556 256 q 651 324 626 293 q 690 397 676 356 q 703 481 703 438 q 687 566 703 525 q 644 638 671 607 q 581 686 617 668 q 503 704 544 704 l 221 704 l 221 256 l 513 256 z "},"U":{"ha":1049,"x_min":110,"x_max":940,"o":"m 524 81 q 678 116 617 81 q 777 209 740 151 q 828 340 814 267 q 843 489 843 414 l 843 986 l 940 986 l 940 489 q 918 299 940 389 q 847 142 896 210 q 718 33 797 74 q 525 -7 639 -7 q 328 35 407 -7 q 200 147 249 78 q 131 306 151 217 q 110 489 110 394 l 110 986 l 206 986 l 206 489 q 221 338 206 411 q 273 207 236 264 q 371 115 310 150 q 524 81 432 81 z "},"Ú":{"ha":1049,"x_min":110,"x_max":940,"o":"m 533 1121 l 471 1144 l 553 1274 l 653 1274 l 533 1121 m 524 81 q 678 116 617 81 q 777 209 740 151 q 828 340 814 267 q 843 489 843 414 l 843 986 l 940 986 l 940 489 q 918 299 940 389 q 847 142 896 210 q 718 33 797 74 q 525 -7 639 -7 q 328 35 407 -7 q 200 147 249 78 q 131 306 151 217 q 110 489 110 394 l 110 986 l 206 986 l 206 489 q 221 338 206 411 q 273 207 236 264 q 371 115 310 150 q 524 81 432 81 z "},"Ŭ":{"ha":1049,"x_min":110,"x_max":940,"o":"m 524 81 q 678 116 617 81 q 777 209 740 151 q 828 340 814 267 q 843 489 843 414 l 843 986 l 940 986 l 940 489 q 918 299 940 389 q 847 142 896 210 q 718 33 797 74 q 525 -7 639 -7 q 328 35 407 -7 q 200 147 249 78 q 131 306 151 217 q 110 489 110 394 l 110 986 l 206 986 l 206 489 q 221 338 206 411 q 273 207 236 264 q 371 115 310 150 q 524 81 432 81 m 525 1182 q 577 1208 554 1182 q 604 1274 600 1235 l 661 1274 q 651 1219 661 1244 q 622 1174 640 1193 q 578 1144 603 1156 q 525 1133 553 1133 q 428 1174 467 1133 q 389 1274 389 1214 l 447 1274 q 471 1210 447 1238 q 525 1182 494 1182 z "},"Û":{"ha":1049,"x_min":110,"x_max":940,"o":"m 354 1156 l 490 1274 l 560 1274 l 697 1156 l 643 1126 l 525 1214 l 407 1126 l 354 1156 m 524 81 q 678 116 617 81 q 777 209 740 151 q 828 340 814 267 q 843 489 843 414 l 843 986 l 940 986 l 940 489 q 918 299 940 389 q 847 142 896 210 q 718 33 797 74 q 525 -7 639 -7 q 328 35 407 -7 q 200 147 249 78 q 131 306 151 217 q 110 489 110 394 l 110 986 l 206 986 l 206 489 q 221 338 206 411 q 273 207 236 264 q 371 115 310 150 q 524 81 432 81 z "},"Ü":{"ha":1049,"x_min":110,"x_max":940,"o":"m 382 1139 l 382 1269 l 463 1269 l 463 1139 l 382 1139 m 589 1139 l 589 1269 l 669 1269 l 669 1139 l 589 1139 m 524 81 q 678 116 617 81 q 777 209 740 151 q 828 340 814 267 q 843 489 843 414 l 843 986 l 940 986 l 940 489 q 918 299 940 389 q 847 142 896 210 q 718 33 797 74 q 525 -7 639 -7 q 328 35 407 -7 q 200 147 249 78 q 131 306 151 217 q 110 489 110 394 l 110 986 l 206 986 l 206 489 q 221 338 206 411 q 273 207 236 264 q 371 115 310 150 q 524 81 432 81 z "},"Ù":{"ha":1049,"x_min":110,"x_max":940,"o":"m 524 81 q 678 116 617 81 q 777 209 740 151 q 828 340 814 267 q 843 489 843 414 l 843 986 l 940 986 l 940 489 q 918 299 940 389 q 847 142 896 210 q 718 33 797 74 q 525 -7 639 -7 q 328 35 407 -7 q 200 147 249 78 q 131 306 151 217 q 110 489 110 394 l 110 986 l 206 986 l 206 489 q 221 338 206 411 q 273 207 236 264 q 371 115 310 150 q 524 81 432 81 m 396 1274 l 494 1274 l 578 1144 l 517 1121 l 396 1274 z "},"Ű":{"ha":1049,"x_min":110,"x_max":940,"o":"m 524 81 q 678 116 617 81 q 777 209 740 151 q 828 340 814 267 q 843 489 843 414 l 843 986 l 940 986 l 940 489 q 918 299 940 389 q 847 142 896 210 q 718 33 797 74 q 525 -7 639 -7 q 328 35 407 -7 q 200 147 249 78 q 131 306 151 217 q 110 489 110 394 l 110 986 l 206 986 l 206 489 q 221 338 206 411 q 273 207 236 264 q 371 115 310 150 q 524 81 432 81 m 436 1121 l 385 1144 l 464 1274 l 553 1274 l 436 1121 m 611 1121 l 558 1144 l 638 1274 l 726 1274 l 611 1121 z "},"Ū":{"ha":1049,"x_min":110,"x_max":940,"o":"m 524 81 q 678 116 617 81 q 777 209 740 151 q 828 340 814 267 q 843 489 843 414 l 843 986 l 940 986 l 940 489 q 918 299 940 389 q 847 142 896 210 q 718 33 797 74 q 525 -7 639 -7 q 328 35 407 -7 q 200 147 249 78 q 131 306 151 217 q 110 489 110 394 l 110 986 l 206 986 l 206 489 q 221 338 206 411 q 273 207 236 264 q 371 115 310 150 q 524 81 432 81 m 325 1181 l 325 1246 l 726 1246 l 726 1181 l 325 1181 z "},"Ų":{"ha":1049,"x_min":110,"x_max":940,"o":"m 524 81 q 678 116 617 81 q 777 209 740 151 q 828 340 814 267 q 843 489 843 414 l 843 986 l 940 986 l 940 489 q 919 304 940 392 q 852 149 899 217 q 731 40 806 82 q 551 -6 657 -1 q 465 -74 490 -44 q 440 -133 440 -103 q 513 -194 440 -185 l 486 -247 q 408 -209 435 -236 q 382 -146 382 -182 q 407 -77 382 -111 q 485 -6 432 -43 q 306 46 378 1 q 191 159 235 90 q 128 313 147 228 q 110 489 110 399 l 110 986 l 206 986 l 206 489 q 221 338 206 411 q 273 207 236 264 q 371 115 310 150 q 524 81 432 81 z "},"Ů":{"ha":1049,"x_min":110,"x_max":940,"o":"m 422 1183 q 451 1249 422 1224 q 525 1274 481 1274 q 599 1249 569 1274 q 628 1183 628 1224 q 599 1117 628 1142 q 525 1092 569 1092 q 451 1117 481 1092 q 422 1183 422 1142 m 525 1236 q 485 1222 501 1236 q 469 1183 469 1207 q 485 1144 469 1160 q 525 1129 501 1129 q 565 1144 547 1129 q 582 1183 582 1160 q 565 1222 582 1207 q 525 1236 549 1236 m 524 81 q 678 116 617 81 q 777 209 740 151 q 828 340 814 267 q 843 489 843 414 l 843 986 l 940 986 l 940 489 q 918 299 940 389 q 847 142 896 210 q 718 33 797 74 q 525 -7 639 -7 q 328 35 407 -7 q 200 147 249 78 q 131 306 151 217 q 110 489 110 394 l 110 986 l 206 986 l 206 489 q 221 338 206 411 q 273 207 236 264 q 371 115 310 150 q 524 81 432 81 z "},"Ũ":{"ha":1049,"x_min":110,"x_max":940,"o":"m 524 81 q 678 116 617 81 q 777 209 740 151 q 828 340 814 267 q 843 489 843 414 l 843 986 l 940 986 l 940 489 q 918 299 940 389 q 847 142 896 210 q 718 33 797 74 q 525 -7 639 -7 q 328 35 407 -7 q 200 147 249 78 q 131 306 151 217 q 110 489 110 394 l 110 986 l 206 986 l 206 489 q 221 338 206 411 q 273 207 236 264 q 371 115 310 150 q 524 81 432 81 m 611 1146 q 556 1154 579 1146 q 513 1173 533 1163 q 474 1192 493 1183 q 433 1201 456 1201 q 397 1192 410 1201 q 376 1170 383 1182 q 366 1148 368 1158 q 364 1135 364 1138 l 306 1135 q 310 1163 306 1142 q 329 1207 315 1185 q 368 1247 343 1229 q 432 1264 393 1264 q 483 1255 461 1264 q 524 1235 504 1246 q 563 1215 543 1224 q 610 1206 583 1206 q 652 1215 636 1206 q 676 1238 668 1225 q 687 1260 685 1250 q 689 1274 689 1271 l 747 1274 q 742 1246 747 1267 q 722 1203 736 1225 q 680 1163 707 1181 q 611 1146 653 1146 z "},"V":{"ha":940,"x_min":17,"x_max":924,"o":"m 118 986 l 471 121 l 821 986 l 924 986 l 513 0 l 428 0 l 17 986 l 118 986 z "},"W":{"ha":1453,"x_min":17,"x_max":1436,"o":"m 493 979 l 586 979 l 725 629 l 865 979 l 957 979 l 785 558 l 974 113 l 1331 986 l 1436 986 l 1019 0 l 933 0 l 726 488 l 518 0 l 432 0 l 17 986 l 119 986 l 478 113 l 665 558 l 493 979 z "},"Ẃ":{"ha":1453,"x_min":17,"x_max":1436,"o":"m 733 1121 l 671 1144 l 753 1274 l 853 1274 l 733 1121 m 493 979 l 586 979 l 725 629 l 865 979 l 957 979 l 785 558 l 974 113 l 1331 986 l 1436 986 l 1019 0 l 933 0 l 726 488 l 518 0 l 432 0 l 17 986 l 119 986 l 478 113 l 665 558 l 493 979 z "},"Ŵ":{"ha":1453,"x_min":17,"x_max":1436,"o":"m 554 1156 l 690 1274 l 760 1274 l 897 1156 l 843 1126 l 725 1214 l 607 1126 l 554 1156 m 493 979 l 586 979 l 725 629 l 865 979 l 957 979 l 785 558 l 974 113 l 1331 986 l 1436 986 l 1019 0 l 933 0 l 726 488 l 518 0 l 432 0 l 17 986 l 119 986 l 478 113 l 665 558 l 493 979 z "},"Ẅ":{"ha":1453,"x_min":17,"x_max":1436,"o":"m 581 1139 l 581 1269 l 661 1269 l 661 1139 l 581 1139 m 788 1139 l 788 1269 l 868 1269 l 868 1139 l 788 1139 m 493 979 l 586 979 l 725 629 l 865 979 l 957 979 l 785 558 l 974 113 l 1331 986 l 1436 986 l 1019 0 l 933 0 l 726 488 l 518 0 l 432 0 l 17 986 l 119 986 l 478 113 l 665 558 l 493 979 z "},"Ẁ":{"ha":1453,"x_min":17,"x_max":1436,"o":"m 493 979 l 586 979 l 725 629 l 865 979 l 957 979 l 785 558 l 974 113 l 1331 986 l 1436 986 l 1019 0 l 933 0 l 726 488 l 518 0 l 432 0 l 17 986 l 119 986 l 478 113 l 665 558 l 493 979 m 596 1274 l 694 1274 l 778 1144 l 717 1121 l 596 1274 z "},"X":{"ha":876,"x_min":7,"x_max":869,"o":"m 115 986 l 439 556 l 763 986 l 869 986 l 490 486 l 858 0 l 751 0 l 439 417 l 126 0 l 18 0 l 386 486 l 7 986 l 115 986 z "},"Y":{"ha":881,"x_min":11,"x_max":871,"o":"m 117 986 l 440 456 l 765 986 l 871 986 l 488 367 l 488 0 l 392 0 l 392 369 l 11 986 l 117 986 z "},"Ý":{"ha":881,"x_min":11,"x_max":871,"o":"m 117 986 l 440 456 l 765 986 l 871 986 l 488 367 l 488 0 l 392 0 l 392 369 l 11 986 l 117 986 m 449 1121 l 386 1144 l 468 1274 l 568 1274 l 449 1121 z "},"Ŷ":{"ha":881,"x_min":11,"x_max":871,"o":"m 117 986 l 440 456 l 765 986 l 871 986 l 488 367 l 488 0 l 392 0 l 392 369 l 11 986 l 117 986 m 268 1156 l 404 1274 l 474 1274 l 611 1156 l 557 1126 l 439 1214 l 321 1126 l 268 1156 z "},"Ÿ":{"ha":881,"x_min":11,"x_max":871,"o":"m 117 986 l 440 456 l 765 986 l 871 986 l 488 367 l 488 0 l 392 0 l 392 369 l 11 986 l 117 986 m 296 1139 l 296 1269 l 376 1269 l 376 1139 l 296 1139 m 503 1139 l 503 1269 l 583 1269 l 583 1139 l 503 1139 z "},"Ỳ":{"ha":881,"x_min":11,"x_max":871,"o":"m 117 986 l 440 456 l 765 986 l 871 986 l 488 367 l 488 0 l 392 0 l 392 369 l 11 986 l 117 986 m 311 1274 l 410 1274 l 493 1144 l 432 1121 l 311 1274 z "},"Ỹ":{"ha":881,"x_min":11,"x_max":871,"o":"m 117 986 l 440 456 l 765 986 l 871 986 l 488 367 l 488 0 l 392 0 l 392 369 l 11 986 l 117 986 m 525 1146 q 470 1154 493 1146 q 427 1173 447 1163 q 388 1192 407 1183 q 347 1201 369 1201 q 310 1192 324 1201 q 290 1170 297 1182 q 280 1148 282 1158 q 278 1135 278 1138 l 219 1135 q 224 1163 219 1142 q 243 1207 229 1185 q 282 1247 257 1229 q 346 1264 307 1264 q 397 1255 375 1264 q 438 1235 418 1246 q 477 1215 457 1224 q 524 1206 497 1206 q 566 1215 550 1206 q 590 1238 582 1225 q 601 1260 599 1250 q 603 1274 603 1271 l 661 1274 q 656 1246 661 1267 q 635 1203 650 1225 q 594 1163 621 1181 q 525 1146 567 1146 z "},"Z":{"ha":867,"x_min":39,"x_max":822,"o":"m 39 76 l 710 900 l 50 900 l 50 986 l 822 986 l 822 910 l 160 86 l 821 86 l 821 0 l 39 0 l 39 76 z "},"Ź":{"ha":867,"x_min":39,"x_max":822,"o":"m 464 1121 l 401 1144 l 483 1274 l 583 1274 l 464 1121 m 39 76 l 710 900 l 50 900 l 50 986 l 822 986 l 822 910 l 160 86 l 821 86 l 821 0 l 39 0 l 39 76 z "},"Ž":{"ha":867,"x_min":39,"x_max":822,"o":"m 338 1274 l 456 1186 l 574 1274 l 628 1246 l 490 1126 l 421 1126 l 285 1246 l 338 1274 m 39 76 l 710 900 l 50 900 l 50 986 l 822 986 l 822 910 l 160 86 l 821 86 l 821 0 l 39 0 l 39 76 z "},"Ż":{"ha":867,"x_min":39,"x_max":822,"o":"m 39 76 l 710 900 l 50 900 l 50 986 l 822 986 l 822 910 l 160 86 l 821 86 l 821 0 l 39 0 l 39 76 m 413 1139 l 413 1274 l 499 1274 l 499 1139 l 413 1139 z "},"a":{"ha":761,"x_min":44,"x_max":690,"o":"m 293 -14 q 192 3 238 -14 q 113 51 146 21 q 63 122 81 82 q 44 207 44 163 q 67 298 44 257 q 129 368 89 339 q 226 413 169 397 q 350 429 282 429 q 461 419 404 429 q 563 392 518 410 l 563 457 q 508 609 563 553 q 360 665 453 665 q 244 643 301 665 q 126 579 186 621 l 93 642 q 231 713 164 689 q 369 736 297 736 q 579 660 501 736 q 657 449 657 583 l 657 122 q 690 83 657 83 l 690 0 q 669 -2 679 -1 q 653 -3 660 -3 q 602 14 625 -3 q 576 64 579 31 l 574 121 q 449 22 526 57 q 293 -14 372 -14 m 317 58 q 441 85 379 58 q 539 160 503 113 q 556 187 549 172 q 563 214 563 201 l 563 332 q 464 360 515 350 q 364 369 413 369 q 199 328 263 369 q 136 215 136 288 q 147 158 136 186 q 181 108 158 131 q 238 72 204 86 q 317 58 271 58 z "},"á":{"ha":761,"x_min":44,"x_max":690,"o":"m 293 -14 q 192 3 238 -14 q 113 51 146 21 q 63 122 81 82 q 44 207 44 163 q 67 298 44 257 q 129 368 89 339 q 226 413 169 397 q 350 429 282 429 q 461 419 404 429 q 563 392 518 410 l 563 457 q 508 609 563 553 q 360 665 453 665 q 244 643 301 665 q 126 579 186 621 l 93 642 q 231 713 164 689 q 369 736 297 736 q 579 660 501 736 q 657 449 657 583 l 657 122 q 690 83 657 83 l 690 0 q 669 -2 679 -1 q 653 -3 660 -3 q 602 14 625 -3 q 576 64 579 31 l 574 121 q 449 22 526 57 q 293 -14 372 -14 m 317 58 q 441 85 379 58 q 539 160 503 113 q 556 187 549 172 q 563 214 563 201 l 563 332 q 464 360 515 350 q 364 369 413 369 q 199 328 263 369 q 136 215 136 288 q 147 158 136 186 q 181 108 158 131 q 238 72 204 86 q 317 58 271 58 m 374 861 l 311 885 l 393 1014 l 493 1014 l 374 861 z "},"ă":{"ha":761,"x_min":44,"x_max":690,"o":"m 293 -14 q 192 3 238 -14 q 113 51 146 21 q 63 122 81 82 q 44 207 44 163 q 67 298 44 257 q 129 368 89 339 q 226 413 169 397 q 350 429 282 429 q 461 419 404 429 q 563 392 518 410 l 563 457 q 508 609 563 553 q 360 665 453 665 q 244 643 301 665 q 126 579 186 621 l 93 642 q 231 713 164 689 q 369 736 297 736 q 579 660 501 736 q 657 449 657 583 l 657 122 q 690 83 657 83 l 690 0 q 669 -2 679 -1 q 653 -3 660 -3 q 602 14 625 -3 q 576 64 579 31 l 574 121 q 449 22 526 57 q 293 -14 372 -14 m 317 58 q 441 85 379 58 q 539 160 503 113 q 556 187 549 172 q 563 214 563 201 l 563 332 q 464 360 515 350 q 364 369 413 369 q 199 328 263 369 q 136 215 136 288 q 147 158 136 186 q 181 108 158 131 q 238 72 204 86 q 317 58 271 58 m 365 922 q 417 949 394 922 q 444 1014 440 975 l 501 1014 q 491 959 501 985 q 462 915 481 933 q 418 885 443 896 q 365 874 393 874 q 268 914 307 874 q 229 1014 229 954 l 288 1014 q 311 950 288 978 q 365 922 335 922 z "},"â":{"ha":761,"x_min":44,"x_max":690,"o":"m 293 -14 q 192 3 238 -14 q 113 51 146 21 q 63 122 81 82 q 44 207 44 163 q 67 298 44 257 q 129 368 89 339 q 226 413 169 397 q 350 429 282 429 q 461 419 404 429 q 563 392 518 410 l 563 457 q 508 609 563 553 q 360 665 453 665 q 244 643 301 665 q 126 579 186 621 l 93 642 q 231 713 164 689 q 369 736 297 736 q 579 660 501 736 q 657 449 657 583 l 657 122 q 690 83 657 83 l 690 0 q 669 -2 679 -1 q 653 -3 660 -3 q 602 14 625 -3 q 576 64 579 31 l 574 121 q 449 22 526 57 q 293 -14 372 -14 m 317 58 q 441 85 379 58 q 539 160 503 113 q 556 187 549 172 q 563 214 563 201 l 563 332 q 464 360 515 350 q 364 369 413 369 q 199 328 263 369 q 136 215 136 288 q 147 158 136 186 q 181 108 158 131 q 238 72 204 86 q 317 58 271 58 m 194 896 l 331 1014 l 400 1014 l 538 896 l 483 867 l 365 954 l 247 867 l 194 896 z "},"ä":{"ha":761,"x_min":44,"x_max":690,"o":"m 293 -14 q 192 3 238 -14 q 113 51 146 21 q 63 122 81 82 q 44 207 44 163 q 67 298 44 257 q 129 368 89 339 q 226 413 169 397 q 350 429 282 429 q 461 419 404 429 q 563 392 518 410 l 563 457 q 508 609 563 553 q 360 665 453 665 q 244 643 301 665 q 126 579 186 621 l 93 642 q 231 713 164 689 q 369 736 297 736 q 579 660 501 736 q 657 449 657 583 l 657 122 q 690 83 657 83 l 690 0 q 669 -2 679 -1 q 653 -3 660 -3 q 602 14 625 -3 q 576 64 579 31 l 574 121 q 449 22 526 57 q 293 -14 372 -14 m 317 58 q 441 85 379 58 q 539 160 503 113 q 556 187 549 172 q 563 214 563 201 l 563 332 q 464 360 515 350 q 364 369 413 369 q 199 328 263 369 q 136 215 136 288 q 147 158 136 186 q 181 108 158 131 q 238 72 204 86 q 317 58 271 58 m 221 879 l 221 1010 l 301 1010 l 301 879 l 221 879 m 428 879 l 428 1010 l 508 1010 l 508 879 l 428 879 z "},"æ":{"ha":1294,"x_min":47,"x_max":1254,"o":"m 286 -14 q 192 3 236 -14 q 116 51 149 21 q 65 123 83 82 q 47 211 47 164 q 69 299 47 258 q 131 368 92 339 q 226 413 171 397 q 349 429 282 429 q 446 422 397 429 q 535 401 494 414 q 542 456 538 428 q 558 507 547 483 q 494 624 546 582 q 358 665 442 665 q 247 643 304 665 q 128 579 189 621 l 94 642 q 367 736 235 736 q 521 699 457 736 q 617 592 585 661 q 734 697 663 657 q 893 736 806 736 q 1038 706 972 736 q 1152 626 1104 676 q 1227 506 1200 575 q 1254 361 1254 438 q 1254 344 1254 356 q 1253 328 1254 332 l 624 328 q 651 220 628 269 q 713 135 675 171 q 799 78 750 99 q 901 58 847 58 q 971 68 936 58 q 1035 94 1006 78 q 1088 135 1065 111 q 1124 189 1111 160 l 1206 167 q 1158 94 1189 126 q 1088 37 1128 61 q 999 -1 1047 13 q 897 -14 950 -14 q 724 30 801 -14 q 600 146 647 74 q 540 74 576 104 q 461 24 504 43 q 373 -5 418 4 q 286 -14 328 -14 m 308 58 q 445 86 383 58 q 539 160 507 114 q 564 208 561 182 q 543 273 550 236 q 535 342 536 310 q 361 369 451 369 q 199 328 261 369 q 136 218 136 286 q 149 156 136 185 q 186 105 163 126 q 241 71 210 83 q 308 58 272 58 m 1164 392 q 1138 501 1160 451 q 1079 586 1115 550 q 995 642 1043 622 q 892 663 947 663 q 789 642 836 663 q 706 586 742 622 q 648 500 669 550 q 624 392 626 450 l 1164 392 z "},"ǽ":{"ha":1294,"x_min":47,"x_max":1254,"o":"m 625 861 l 563 885 l 644 1014 l 744 1014 l 625 861 m 286 -14 q 192 3 236 -14 q 116 51 149 21 q 65 123 83 82 q 47 211 47 164 q 69 299 47 258 q 131 368 92 339 q 226 413 171 397 q 349 429 282 429 q 446 422 397 429 q 535 401 494 414 q 542 456 538 428 q 558 507 547 483 q 494 624 546 582 q 358 665 442 665 q 247 643 304 665 q 128 579 189 621 l 94 642 q 367 736 235 736 q 521 699 457 736 q 617 592 585 661 q 734 697 663 657 q 893 736 806 736 q 1038 706 972 736 q 1152 626 1104 676 q 1227 506 1200 575 q 1254 361 1254 438 q 1254 344 1254 356 q 1253 328 1254 332 l 624 328 q 651 220 628 269 q 713 135 675 171 q 799 78 750 99 q 901 58 847 58 q 971 68 936 58 q 1035 94 1006 78 q 1088 135 1065 111 q 1124 189 1111 160 l 1206 167 q 1158 94 1189 126 q 1088 37 1128 61 q 999 -1 1047 13 q 897 -14 950 -14 q 724 30 801 -14 q 600 146 647 74 q 540 74 576 104 q 461 24 504 43 q 373 -5 418 4 q 286 -14 328 -14 m 308 58 q 445 86 383 58 q 539 160 507 114 q 564 208 561 182 q 543 273 550 236 q 535 342 536 310 q 361 369 451 369 q 199 328 261 369 q 136 218 136 286 q 149 156 136 185 q 186 105 163 126 q 241 71 210 83 q 308 58 272 58 m 1164 392 q 1138 501 1160 451 q 1079 586 1115 550 q 995 642 1043 622 q 892 663 947 663 q 789 642 836 663 q 706 586 742 622 q 648 500 669 550 q 624 392 626 450 l 1164 392 z "},"à":{"ha":761,"x_min":44,"x_max":690,"o":"m 293 -14 q 192 3 238 -14 q 113 51 146 21 q 63 122 81 82 q 44 207 44 163 q 67 298 44 257 q 129 368 89 339 q 226 413 169 397 q 350 429 282 429 q 461 419 404 429 q 563 392 518 410 l 563 457 q 508 609 563 553 q 360 665 453 665 q 244 643 301 665 q 126 579 186 621 l 93 642 q 231 713 164 689 q 369 736 297 736 q 579 660 501 736 q 657 449 657 583 l 657 122 q 690 83 657 83 l 690 0 q 669 -2 679 -1 q 653 -3 660 -3 q 602 14 625 -3 q 576 64 579 31 l 574 121 q 449 22 526 57 q 293 -14 372 -14 m 317 58 q 441 85 379 58 q 539 160 503 113 q 556 187 549 172 q 563 214 563 201 l 563 332 q 464 360 515 350 q 364 369 413 369 q 199 328 263 369 q 136 215 136 288 q 147 158 136 186 q 181 108 158 131 q 238 72 204 86 q 317 58 271 58 m 236 1014 l 335 1014 l 418 885 l 357 861 l 236 1014 z "},"ā":{"ha":761,"x_min":44,"x_max":690,"o":"m 293 -14 q 192 3 238 -14 q 113 51 146 21 q 63 122 81 82 q 44 207 44 163 q 67 298 44 257 q 129 368 89 339 q 226 413 169 397 q 350 429 282 429 q 461 419 404 429 q 563 392 518 410 l 563 457 q 508 609 563 553 q 360 665 453 665 q 244 643 301 665 q 126 579 186 621 l 93 642 q 231 713 164 689 q 369 736 297 736 q 579 660 501 736 q 657 449 657 583 l 657 122 q 690 83 657 83 l 690 0 q 669 -2 679 -1 q 653 -3 660 -3 q 602 14 625 -3 q 576 64 579 31 l 574 121 q 449 22 526 57 q 293 -14 372 -14 m 317 58 q 441 85 379 58 q 539 160 503 113 q 556 187 549 172 q 563 214 563 201 l 563 332 q 464 360 515 350 q 364 369 413 369 q 199 328 263 369 q 136 215 136 288 q 147 158 136 186 q 181 108 158 131 q 238 72 204 86 q 317 58 271 58 m 165 921 l 165 986 l 567 986 l 567 921 l 165 921 z "},"&":{"ha":933,"x_min":67,"x_max":919,"o":"m 794 0 l 681 119 q 546 22 622 57 q 381 -14 469 -14 q 258 6 315 -14 q 159 60 201 25 q 92 145 117 96 q 67 254 67 194 q 83 345 67 304 q 129 422 100 386 q 196 488 158 457 q 275 547 233 518 q 212 619 238 588 q 170 678 186 651 q 147 731 154 706 q 140 782 140 756 q 159 867 140 828 q 211 936 178 907 q 290 982 244 965 q 388 999 335 999 q 478 985 436 999 q 551 945 519 971 q 600 883 582 919 q 618 804 618 847 q 601 725 618 761 q 554 657 583 689 q 486 597 525 625 q 403 539 447 568 l 679 250 q 723 365 707 303 q 739 494 739 426 l 819 494 q 797 332 818 408 q 735 192 775 256 l 919 0 l 794 0 m 390 63 q 522 92 461 63 q 628 175 582 122 l 329 490 q 207 383 256 439 q 158 251 158 326 q 178 170 158 206 q 231 110 199 135 q 306 74 264 86 q 390 63 347 63 m 228 785 q 233 751 228 768 q 251 713 238 735 q 287 663 264 692 q 347 596 310 635 q 422 648 388 624 q 480 697 456 672 q 517 747 504 721 q 531 801 531 772 q 490 890 531 856 q 388 925 450 925 q 324 914 353 925 q 273 883 294 903 q 240 839 251 864 q 228 785 228 814 z "},"ą":{"ha":761,"x_min":44,"x_max":690,"o":"m 622 -243 q 544 -205 571 -232 q 518 -142 518 -178 q 543 -72 518 -107 q 625 1 568 -36 q 592 24 606 8 q 576 64 578 39 l 574 121 q 449 22 526 57 q 293 -14 372 -14 q 192 3 238 -14 q 113 51 146 21 q 63 122 81 82 q 44 207 44 163 q 67 298 44 257 q 129 368 89 339 q 226 413 169 397 q 350 429 282 429 q 461 419 404 429 q 563 392 518 410 l 563 457 q 508 609 563 553 q 360 665 453 665 q 244 643 301 665 q 126 579 186 621 l 93 642 q 231 713 164 689 q 369 736 297 736 q 579 660 501 736 q 657 449 657 583 l 657 122 q 690 83 657 83 l 690 0 q 602 -69 628 -39 q 576 -129 576 -99 q 649 -190 576 -181 l 622 -243 m 317 58 q 441 85 379 58 q 539 160 503 113 q 556 187 549 172 q 563 214 563 201 l 563 332 q 464 360 515 350 q 364 369 413 369 q 199 328 263 369 q 136 215 136 288 q 147 158 136 186 q 181 108 158 131 q 238 72 204 86 q 317 58 271 58 z "},"ʼ":{"ha":510,"x_min":189,"x_max":372,"o":"m 251 861 l 189 885 l 242 967 l 242 1014 l 372 1014 l 251 861 z "},"å":{"ha":761,"x_min":44,"x_max":690,"o":"m 293 -14 q 192 3 238 -14 q 113 51 146 21 q 63 122 81 82 q 44 207 44 163 q 67 298 44 257 q 129 368 89 339 q 226 413 169 397 q 350 429 282 429 q 461 419 404 429 q 563 392 518 410 l 563 457 q 508 609 563 553 q 360 665 453 665 q 244 643 301 665 q 126 579 186 621 l 93 642 q 231 713 164 689 q 369 736 297 736 q 579 660 501 736 q 657 449 657 583 l 657 122 q 690 83 657 83 l 690 0 q 669 -2 679 -1 q 653 -3 660 -3 q 602 14 625 -3 q 576 64 579 31 l 574 121 q 449 22 526 57 q 293 -14 372 -14 m 317 58 q 441 85 379 58 q 539 160 503 113 q 556 187 549 172 q 563 214 563 201 l 563 332 q 464 360 515 350 q 364 369 413 369 q 199 328 263 369 q 136 215 136 288 q 147 158 136 186 q 181 108 158 131 q 238 72 204 86 q 317 58 271 58 m 261 924 q 290 989 261 964 q 364 1014 319 1014 q 438 989 408 1014 q 467 924 467 964 q 438 857 467 882 q 364 832 408 832 q 290 857 319 832 q 261 924 261 882 m 364 976 q 324 962 340 976 q 308 924 308 947 q 324 885 308 900 q 364 869 340 869 q 403 885 386 869 q 421 924 421 900 q 404 962 421 947 q 364 976 388 976 z "},"ǻ":{"ha":761,"x_min":44,"x_max":690,"o":"m 293 -14 q 192 3 238 -14 q 113 51 146 21 q 63 122 81 82 q 44 207 44 163 q 67 298 44 257 q 129 368 89 339 q 226 413 169 397 q 350 429 282 429 q 461 419 404 429 q 563 392 518 410 l 563 457 q 508 609 563 553 q 360 665 453 665 q 244 643 301 665 q 126 579 186 621 l 93 642 q 231 713 164 689 q 369 736 297 736 q 579 660 501 736 q 657 449 657 583 l 657 122 q 690 83 657 83 l 690 0 q 669 -2 679 -1 q 653 -3 660 -3 q 602 14 625 -3 q 576 64 579 31 l 574 121 q 449 22 526 57 q 293 -14 372 -14 m 317 58 q 441 85 379 58 q 539 160 503 113 q 556 187 549 172 q 563 214 563 201 l 563 332 q 464 360 515 350 q 364 369 413 369 q 199 328 263 369 q 136 215 136 288 q 147 158 136 186 q 181 108 158 131 q 238 72 204 86 q 317 58 271 58 m 374 1069 l 311 1093 l 393 1222 l 493 1222 l 374 1069 m 261 924 q 290 989 261 964 q 364 1014 319 1014 q 438 989 408 1014 q 467 924 467 964 q 438 857 467 882 q 364 832 408 832 q 290 857 319 832 q 261 924 261 882 m 364 976 q 324 962 340 976 q 308 924 308 947 q 324 885 308 900 q 364 869 340 869 q 403 885 386 869 q 421 924 421 900 q 404 962 421 947 q 364 976 388 976 z "},"^":{"ha":751,"x_min":61,"x_max":690,"o":"m 61 421 l 336 986 l 417 986 l 690 421 l 607 421 l 376 897 l 142 421 l 61 421 z "},"~":{"ha":706,"x_min":90,"x_max":618,"o":"m 90 335 q 98 365 90 342 q 124 413 106 388 q 170 458 142 438 q 240 478 199 478 q 300 465 272 478 q 354 438 328 453 q 407 410 381 422 q 463 397 433 397 q 507 408 489 397 q 537 431 525 418 q 553 455 549 443 q 558 469 558 467 l 618 469 q 610 445 618 467 q 585 399 603 424 q 536 355 567 375 q 461 335 506 335 q 397 347 426 335 q 341 375 368 360 q 289 403 314 390 q 239 415 264 415 q 197 403 214 415 q 170 376 181 390 q 155 349 160 361 q 150 335 150 336 l 90 335 l 90 335 z "},"*":{"ha":449,"x_min":86,"x_max":361,"o":"m 122 758 l 182 844 l 86 875 l 101 925 l 197 889 l 193 990 l 254 990 l 250 889 l 346 925 l 361 875 l 267 844 l 328 758 l 283 728 l 224 818 l 164 728 l 122 758 z "},"@":{"ha":1147,"x_min":69,"x_max":1089,"o":"m 583 838 q 778 799 686 838 q 939 691 869 761 q 1049 524 1008 621 q 1089 308 1089 426 q 1087 256 1089 289 q 1078 188 1085 224 q 1058 114 1071 151 q 1022 46 1044 76 q 967 -3 1000 15 q 886 -22 933 -22 q 830 -12 851 -22 q 796 17 808 -1 q 778 58 783 35 q 769 106 772 81 q 669 36 731 65 q 535 7 608 7 q 381 59 436 7 q 326 193 326 111 q 349 282 326 246 q 409 340 372 318 q 492 370 446 361 q 583 379 538 379 q 690 367 644 379 q 760 347 736 356 q 752 438 760 397 q 725 508 744 479 q 672 554 706 538 q 588 571 639 571 q 483 553 532 571 q 393 506 433 536 l 368 560 q 474 613 418 593 q 594 632 531 632 q 717 606 672 632 q 786 540 763 581 q 816 448 810 499 q 822 347 822 397 l 822 168 q 834 68 822 107 q 893 29 846 29 q 965 59 936 29 q 1010 132 993 89 q 1033 224 1026 175 q 1039 311 1039 274 q 1004 499 1039 411 q 908 651 969 586 q 763 753 846 715 q 582 790 679 790 q 402 755 486 790 q 256 657 318 719 q 156 508 193 594 q 119 319 119 422 q 154 134 119 221 q 249 -17 189 47 q 393 -119 310 -82 q 574 -156 476 -156 q 685 -142 633 -156 q 788 -103 736 -128 l 806 -147 q 690 -189 749 -175 q 574 -203 632 -203 q 378 -164 469 -203 q 217 -55 286 -125 q 109 111 149 15 q 69 319 69 207 q 112 533 69 438 q 226 696 154 628 q 390 801 297 764 q 583 838 483 838 m 668 97 q 742 163 726 125 q 758 239 758 200 l 758 294 q 694 311 740 297 q 581 325 647 325 q 509 319 543 325 q 449 297 475 313 q 406 258 422 282 q 390 196 390 233 q 432 102 390 138 q 539 67 474 67 q 608 76 574 67 q 668 97 642 85 z "},"ã":{"ha":761,"x_min":44,"x_max":690,"o":"m 293 -14 q 192 3 238 -14 q 113 51 146 21 q 63 122 81 82 q 44 207 44 163 q 67 298 44 257 q 129 368 89 339 q 226 413 169 397 q 350 429 282 429 q 461 419 404 429 q 563 392 518 410 l 563 457 q 508 609 563 553 q 360 665 453 665 q 244 643 301 665 q 126 579 186 621 l 93 642 q 231 713 164 689 q 369 736 297 736 q 579 660 501 736 q 657 449 657 583 l 657 122 q 690 83 657 83 l 690 0 q 669 -2 679 -1 q 653 -3 660 -3 q 602 14 625 -3 q 576 64 579 31 l 574 121 q 449 22 526 57 q 293 -14 372 -14 m 317 58 q 441 85 379 58 q 539 160 503 113 q 556 187 549 172 q 563 214 563 201 l 563 332 q 464 360 515 350 q 364 369 413 369 q 199 328 263 369 q 136 215 136 288 q 147 158 136 186 q 181 108 158 131 q 238 72 204 86 q 317 58 271 58 m 451 886 q 397 894 419 886 q 353 913 374 903 q 315 933 333 924 q 274 942 296 942 q 237 932 250 942 q 216 910 224 922 q 206 888 208 899 q 204 875 204 878 l 146 875 q 151 903 146 882 q 169 947 156 925 q 208 987 183 969 q 272 1004 233 1004 q 323 995 301 1004 q 364 975 344 986 q 403 955 383 964 q 450 946 424 946 q 492 956 476 946 q 517 978 508 965 q 527 1001 525 990 q 529 1014 529 1011 l 588 1014 q 582 986 588 1007 q 562 943 576 965 q 520 903 547 921 q 451 886 493 886 z "},"b":{"ha":856,"x_min":101,"x_max":800,"o":"m 456 -14 q 299 29 371 -14 q 186 140 226 72 l 186 0 l 101 0 l 101 1014 l 196 1014 l 196 572 q 313 691 244 646 q 472 736 381 736 q 608 704 547 736 q 712 619 669 672 q 777 498 754 565 q 800 360 800 431 q 774 215 800 283 q 701 97 747 147 q 591 16 654 46 q 456 -14 528 -14 m 433 69 q 542 94 493 69 q 627 159 592 118 q 683 252 663 200 q 703 360 703 304 q 684 469 703 417 q 631 563 665 522 q 550 628 597 604 q 446 653 503 653 q 365 638 403 653 q 296 599 328 624 q 238 541 264 574 q 196 472 213 508 l 196 247 q 226 177 201 210 q 285 121 250 144 q 358 83 319 97 q 433 69 397 69 z "},"\\":{"ha":790,"x_min":38,"x_max":750,"o":"m 146 986 l 750 0 l 643 0 l 38 986 l 146 986 z "},"|":{"ha":310,"x_min":114,"x_max":196,"o":"m 114 -181 l 114 1076 l 196 1076 l 196 -181 l 114 -181 z "},"{":{"ha":351,"x_min":74,"x_max":290,"o":"m 214 949 l 214 586 q 206 544 214 569 q 176 500 199 519 q 206 455 199 481 q 214 414 214 429 l 214 36 l 290 36 l 290 -43 l 160 -43 q 138 -34 149 -43 q 128 -1 128 -25 l 128 389 q 114 440 128 417 q 74 465 100 463 l 74 538 q 98 546 88 538 q 115 565 108 554 q 125 590 122 576 q 128 611 128 603 l 128 986 q 140 1020 128 1013 q 160 1028 153 1028 l 290 1028 l 290 949 l 214 949 z "},"}":{"ha":351,"x_min":63,"x_max":278,"o":"m 63 949 l 63 1028 l 193 1028 q 213 1020 200 1028 q 225 986 225 1013 l 225 611 q 228 590 225 603 q 237 565 231 576 q 253 546 243 554 q 278 538 263 538 l 278 465 q 238 440 251 463 q 225 389 225 417 l 225 -1 q 215 -34 225 -25 q 193 -43 204 -43 l 63 -43 l 63 36 l 139 36 l 139 414 q 146 455 139 429 q 175 500 153 481 q 146 544 153 519 q 139 586 139 569 l 139 949 l 63 949 z "},"[":{"ha":344,"x_min":117,"x_max":282,"o":"m 117 -56 l 117 1028 l 282 1028 l 282 949 l 206 949 l 206 24 l 282 24 l 282 -56 l 117 -56 z "},"]":{"ha":344,"x_min":63,"x_max":228,"o":"m 63 -56 l 63 24 l 140 24 l 140 949 l 63 949 l 63 1028 l 228 1028 l 228 -56 l 63 -56 z "},"¦":{"ha":315,"x_min":117,"x_max":199,"o":"m 199 385 l 199 -181 l 117 -181 l 117 385 l 199 385 m 199 1076 l 199 511 l 117 511 l 117 1076 l 199 1076 z "},"•":{"ha":493,"x_min":122,"x_max":371,"o":"m 371 481 q 335 392 371 428 q 247 356 299 356 q 159 392 196 356 q 122 481 122 428 q 132 528 122 506 q 159 567 142 550 q 199 594 176 585 q 247 604 222 604 q 295 594 272 604 q 335 567 318 585 q 361 528 351 550 q 371 481 371 506 z "},"c":{"ha":764,"x_min":54,"x_max":718,"o":"m 54 364 q 81 508 54 440 q 155 627 107 576 q 269 707 203 678 q 417 736 336 736 q 596 690 519 736 q 711 564 672 643 l 619 535 q 535 622 589 590 q 414 653 481 653 q 310 631 358 653 q 227 570 263 608 q 172 479 192 532 q 151 364 151 426 q 172 249 151 303 q 229 155 193 194 q 313 92 265 115 q 415 69 361 69 q 484 79 450 69 q 547 106 518 89 q 597 146 576 124 q 626 193 618 168 l 718 165 q 674 94 703 126 q 605 37 644 61 q 517 -1 565 13 q 418 -14 469 -14 q 272 16 339 -14 q 157 98 206 46 q 81 218 108 150 q 54 364 54 286 z "},"ć":{"ha":764,"x_min":54,"x_max":718,"o":"m 422 861 l 360 885 l 442 1014 l 542 1014 l 422 861 m 54 364 q 81 508 54 440 q 155 627 107 576 q 269 707 203 678 q 417 736 336 736 q 596 690 519 736 q 711 564 672 643 l 619 535 q 535 622 589 590 q 414 653 481 653 q 310 631 358 653 q 227 570 263 608 q 172 479 192 532 q 151 364 151 426 q 172 249 151 303 q 229 155 193 194 q 313 92 265 115 q 415 69 361 69 q 484 79 450 69 q 547 106 518 89 q 597 146 576 124 q 626 193 618 168 l 718 165 q 674 94 703 126 q 605 37 644 61 q 517 -1 565 13 q 418 -14 469 -14 q 272 16 339 -14 q 157 98 206 46 q 81 218 108 150 q 54 364 54 286 z "},"č":{"ha":764,"x_min":54,"x_max":718,"o":"m 296 1014 l 414 926 l 532 1014 l 586 986 l 449 867 l 379 867 l 243 986 l 296 1014 m 54 364 q 81 508 54 440 q 155 627 107 576 q 269 707 203 678 q 417 736 336 736 q 596 690 519 736 q 711 564 672 643 l 619 535 q 535 622 589 590 q 414 653 481 653 q 310 631 358 653 q 227 570 263 608 q 172 479 192 532 q 151 364 151 426 q 172 249 151 303 q 229 155 193 194 q 313 92 265 115 q 415 69 361 69 q 484 79 450 69 q 547 106 518 89 q 597 146 576 124 q 626 193 618 168 l 718 165 q 674 94 703 126 q 605 37 644 61 q 517 -1 565 13 q 418 -14 469 -14 q 272 16 339 -14 q 157 98 206 46 q 81 218 108 150 q 54 364 54 286 z "},"ç":{"ha":767,"x_min":56,"x_max":719,"o":"m 311 -175 q 364 -192 331 -185 q 433 -200 397 -200 q 513 -151 513 -200 q 494 -112 513 -124 q 443 -101 475 -101 q 382 -108 414 -101 q 332 -121 350 -114 l 390 -12 q 256 25 317 -7 q 150 108 194 57 q 81 224 106 158 q 56 364 56 290 q 82 508 56 440 q 156 627 108 576 q 271 707 204 678 q 418 736 338 736 q 597 690 521 736 q 713 564 674 643 l 621 535 q 536 622 590 590 q 415 653 482 653 q 312 631 360 653 q 228 570 264 608 q 173 479 193 532 q 153 364 153 426 q 174 249 153 303 q 231 155 194 194 q 315 92 267 115 q 417 69 363 69 q 485 79 451 69 q 549 106 519 89 q 599 146 578 124 q 628 193 619 168 l 719 165 q 678 97 706 128 q 615 42 651 65 q 535 5 579 19 q 444 -12 492 -10 l 408 -71 q 435 -64 421 -65 q 461 -62 450 -62 q 538 -84 510 -62 q 567 -147 567 -106 q 531 -219 567 -194 q 425 -244 494 -244 q 350 -237 385 -244 q 288 -218 315 -229 l 311 -175 z "},"ĉ":{"ha":764,"x_min":54,"x_max":718,"o":"m 243 896 l 379 1014 l 449 1014 l 586 896 l 532 867 l 414 954 l 296 867 l 243 896 m 54 364 q 81 508 54 440 q 155 627 107 576 q 269 707 203 678 q 417 736 336 736 q 596 690 519 736 q 711 564 672 643 l 619 535 q 535 622 589 590 q 414 653 481 653 q 310 631 358 653 q 227 570 263 608 q 172 479 192 532 q 151 364 151 426 q 172 249 151 303 q 229 155 193 194 q 313 92 265 115 q 415 69 361 69 q 484 79 450 69 q 547 106 518 89 q 597 146 576 124 q 626 193 618 168 l 718 165 q 674 94 703 126 q 605 37 644 61 q 517 -1 565 13 q 418 -14 469 -14 q 272 16 339 -14 q 157 98 206 46 q 81 218 108 150 q 54 364 54 286 z "},"ċ":{"ha":764,"x_min":54,"x_max":718,"o":"m 54 364 q 81 508 54 440 q 155 627 107 576 q 269 707 203 678 q 417 736 336 736 q 596 690 519 736 q 711 564 672 643 l 619 535 q 535 622 589 590 q 414 653 481 653 q 310 631 358 653 q 227 570 263 608 q 172 479 192 532 q 151 364 151 426 q 172 249 151 303 q 229 155 193 194 q 313 92 265 115 q 415 69 361 69 q 484 79 450 69 q 547 106 518 89 q 597 146 576 124 q 626 193 618 168 l 718 165 q 674 94 703 126 q 605 37 644 61 q 517 -1 565 13 q 418 -14 469 -14 q 272 16 339 -14 q 157 98 206 46 q 81 218 108 150 q 54 364 54 286 m 371 879 l 371 1014 l 457 1014 l 457 879 l 371 879 z "},"¢":{"ha":788,"x_min":64,"x_max":729,"o":"m 388 -167 l 388 -12 q 257 27 317 -7 q 155 113 197 61 q 88 228 113 164 q 64 358 64 292 q 87 494 64 429 q 151 610 110 558 q 253 694 193 661 q 388 735 313 728 l 388 896 l 439 896 l 439 735 q 613 687 543 732 q 721 564 682 642 l 631 535 q 549 619 599 592 q 439 650 499 647 l 439 71 q 498 82 467 72 q 558 107 529 92 q 608 144 586 122 q 638 193 629 167 l 729 165 q 679 87 713 121 q 606 31 646 53 q 521 -3 565 8 q 439 -14 476 -14 l 439 -167 l 388 -167 m 161 358 q 178 259 161 307 q 225 173 194 211 q 297 109 256 135 q 388 75 339 83 l 388 647 q 292 615 333 642 q 221 549 250 589 q 176 458 192 508 q 161 358 161 408 z "},":":{"ha":274,"x_min":97,"x_max":176,"o":"m 97 583 l 97 719 l 176 719 l 176 583 l 97 583 m 97 0 l 97 136 l 176 136 l 176 0 l 97 0 z "},",":{"ha":285,"x_min":76,"x_max":186,"o":"m 76 -21 q 96 -15 86 -21 q 106 8 106 -10 l 106 136 l 186 136 l 186 -6 q 176 -46 186 -29 q 151 -73 167 -62 q 115 -88 135 -83 q 76 -93 96 -93 l 76 -21 z "},"©":{"ha":1164,"x_min":71,"x_max":1093,"o":"m 581 -10 q 377 28 471 -10 q 215 134 283 67 q 109 293 147 201 q 71 493 71 385 q 109 692 71 600 q 215 850 147 783 q 377 955 283 917 q 581 993 471 993 q 785 955 690 993 q 947 850 879 917 q 1054 692 1015 783 q 1093 493 1093 600 q 1054 293 1093 385 q 947 134 1015 201 q 785 28 879 67 q 581 -10 690 -10 m 581 36 q 763 69 678 36 q 910 163 847 103 q 1008 306 972 222 q 1044 490 1044 389 q 1010 672 1044 589 q 913 817 975 756 q 765 913 850 878 q 581 947 681 947 q 397 913 482 947 q 251 817 313 878 q 153 673 189 757 q 118 492 118 589 q 153 311 118 394 q 249 167 188 228 q 396 71 311 106 q 581 36 481 36 m 590 171 q 469 194 528 171 q 365 258 410 217 q 294 360 321 300 q 267 493 267 419 q 286 610 267 551 q 344 714 306 668 q 443 789 383 760 q 583 818 503 818 q 746 778 675 818 q 849 664 817 739 l 758 635 q 723 685 744 665 q 677 715 701 704 q 628 731 653 726 q 583 735 604 735 q 487 713 528 735 q 419 658 446 692 q 378 580 392 624 q 364 493 364 536 q 385 391 364 436 q 438 315 406 346 q 509 269 469 285 q 586 253 549 253 q 692 281 639 253 q 768 358 744 310 l 860 332 q 826 278 850 307 q 768 226 803 250 q 688 186 733 201 q 590 171 643 171 z "},"d":{"ha":865,"x_min":54,"x_max":788,"o":"m 401 -14 q 263 17 326 -14 q 152 100 199 49 q 80 219 106 151 q 54 360 54 286 q 79 505 54 436 q 148 625 104 574 q 252 706 192 676 q 385 736 313 736 q 547 688 476 736 q 660 572 618 640 l 660 1014 l 754 1014 l 754 122 q 788 83 754 83 l 788 0 q 750 -4 764 -4 q 693 16 715 -4 q 671 64 671 36 l 671 140 q 553 28 626 69 q 401 -14 481 -14 m 421 69 q 497 83 457 69 q 570 122 536 97 q 629 178 604 146 q 660 249 654 211 l 660 472 q 619 542 646 510 q 558 600 592 575 q 485 639 524 625 q 410 653 447 653 q 303 628 351 653 q 222 562 256 603 q 170 468 189 521 q 151 360 151 415 q 172 249 151 301 q 229 156 193 196 q 315 93 265 117 q 421 69 364 69 z "},"†":{"ha":575,"x_min":60,"x_max":515,"o":"m 243 -181 l 243 333 l 60 333 l 60 419 l 243 419 l 243 1076 l 333 1076 l 333 419 l 515 419 l 515 333 l 333 333 l 333 -181 l 243 -181 z "},"‡":{"ha":588,"x_min":65,"x_max":522,"o":"m 249 -181 l 249 221 l 65 221 l 65 308 l 249 308 l 249 461 l 65 461 l 65 549 l 249 549 l 249 1076 l 340 1076 l 340 549 l 522 549 l 522 461 l 340 461 l 340 308 l 522 308 l 522 221 l 340 221 l 340 -181 l 249 -181 z "},"ď":{"ha":865,"x_min":54,"x_max":986,"o":"m 867 861 l 804 885 l 886 1014 l 986 1014 l 867 861 m 401 -14 q 263 17 326 -14 q 152 100 199 49 q 80 219 106 151 q 54 360 54 286 q 79 505 54 436 q 148 625 104 574 q 252 706 192 676 q 385 736 313 736 q 547 688 476 736 q 660 572 618 640 l 660 1014 l 754 1014 l 754 122 q 788 83 754 83 l 788 0 q 750 -4 764 -4 q 693 16 715 -4 q 671 64 671 36 l 671 140 q 553 28 626 69 q 401 -14 481 -14 m 421 69 q 497 83 457 69 q 570 122 536 97 q 629 178 604 146 q 660 249 654 211 l 660 472 q 619 542 646 510 q 558 600 592 575 q 485 639 524 625 q 410 653 447 653 q 303 628 351 653 q 222 562 256 603 q 170 468 189 521 q 151 360 151 415 q 172 249 151 301 q 229 156 193 196 q 315 93 265 117 q 421 69 364 69 z "},"đ":{"ha":865,"x_min":54,"x_max":851,"o":"m 401 -14 q 263 17 326 -14 q 152 100 199 49 q 80 219 106 151 q 54 360 54 286 q 79 505 54 436 q 148 625 104 574 q 252 706 192 676 q 385 736 313 736 q 547 688 476 736 q 660 572 618 640 l 660 857 l 500 857 l 500 921 l 660 921 l 660 1014 l 754 1014 l 754 921 l 851 921 l 851 857 l 754 857 l 754 122 q 788 83 754 83 l 788 0 q 750 -4 764 -4 q 693 16 715 -4 q 671 64 671 36 l 671 140 q 553 28 626 69 q 401 -14 481 -14 m 421 69 q 497 83 457 69 q 570 122 536 97 q 629 178 604 146 q 660 249 654 211 l 660 472 q 619 542 646 510 q 558 600 592 575 q 485 639 524 625 q 410 653 447 653 q 303 628 351 653 q 222 562 256 603 q 170 468 189 521 q 151 360 151 415 q 172 249 151 301 q 229 156 193 196 q 315 93 265 117 q 421 69 364 69 z "},"°":{"ha":371,"x_min":69,"x_max":300,"o":"m 69 892 q 103 973 69 940 q 185 1006 136 1006 q 267 973 233 1006 q 300 892 300 940 q 267 808 300 842 q 185 775 233 775 q 103 808 136 775 q 69 892 69 842 m 142 933 q 124 890 124 915 q 142 847 124 865 q 185 829 160 829 q 229 847 211 829 q 246 890 246 867 q 229 933 246 914 q 185 951 213 951 q 142 933 158 951 z "},"÷":{"ha":743,"x_min":92,"x_max":651,"o":"m 331 554 l 331 681 l 413 681 l 413 554 l 331 554 m 331 103 l 331 228 l 413 228 l 413 103 l 331 103 m 92 353 l 92 432 l 651 432 l 651 353 l 92 353 z "},"$":{"ha":857,"x_min":51,"x_max":801,"o":"m 707 801 q 601 875 667 846 q 451 907 535 904 l 451 536 q 595 501 531 521 q 706 449 660 481 q 776 372 751 418 q 801 258 801 325 q 776 142 801 192 q 704 59 750 92 q 595 10 658 26 q 457 -8 532 -7 l 457 -143 l 406 -143 l 406 -7 q 51 135 199 6 l 99 214 q 229 124 147 161 q 411 79 311 86 l 411 450 q 270 489 331 468 q 169 539 210 510 q 108 609 128 568 q 88 710 88 650 q 110 826 88 775 q 176 912 133 876 q 276 967 218 947 q 406 992 335 988 l 406 1132 l 457 1132 l 457 993 q 621 960 549 990 q 753 879 693 931 l 707 801 m 700 249 q 684 319 700 290 q 637 370 668 349 q 559 408 606 392 q 451 440 513 425 l 451 78 q 635 120 569 78 q 700 249 700 163 m 186 724 q 199 656 186 683 q 240 609 213 629 q 310 574 268 589 q 411 546 353 560 l 411 906 q 240 852 293 900 q 186 724 186 804 z "},"ı":{"ha":297,"x_min":101,"x_max":196,"o":"m 101 0 l 101 724 l 196 724 l 196 0 l 101 0 z "},"ȷ":{"ha":297,"x_min":-175,"x_max":196,"o":"m -17 -251 q -103 -239 -62 -251 q -175 -197 -143 -226 l -129 -133 q -81 -160 -107 -153 q -28 -167 -54 -167 q 20 -157 -3 -167 q 61 -130 43 -147 q 90 -89 79 -112 q 101 -37 101 -65 l 101 724 l 196 724 l 196 -32 q 178 -121 196 -81 q 130 -190 160 -161 q 62 -235 100 -219 q -17 -251 24 -251 z "},"e":{"ha":815,"x_min":54,"x_max":775,"o":"m 418 -14 q 272 16 339 -14 q 157 98 206 46 q 81 218 108 150 q 54 364 54 286 q 81 508 54 440 q 157 626 108 575 q 272 706 206 676 q 417 736 338 736 q 562 706 496 736 q 675 625 628 676 q 749 507 722 574 q 775 365 775 440 q 774 343 775 354 q 772 328 774 332 l 154 328 q 181 220 158 269 q 240 135 204 171 q 322 78 275 99 q 421 58 368 58 q 492 68 457 58 q 556 94 526 78 q 608 135 585 111 q 643 189 631 160 l 725 167 q 678 94 708 126 q 607 37 647 61 q 518 -1 567 13 q 418 -14 469 -14 m 685 400 q 658 506 681 458 q 599 589 635 554 q 517 643 564 624 q 417 663 469 663 q 317 643 364 663 q 234 589 269 624 q 177 506 199 554 q 151 400 156 457 l 685 400 z "},"é":{"ha":815,"x_min":54,"x_max":775,"o":"m 421 861 l 358 885 l 440 1014 l 540 1014 l 421 861 m 418 -14 q 272 16 339 -14 q 157 98 206 46 q 81 218 108 150 q 54 364 54 286 q 81 508 54 440 q 157 626 108 575 q 272 706 206 676 q 417 736 338 736 q 562 706 496 736 q 675 625 628 676 q 749 507 722 574 q 775 365 775 440 q 774 343 775 354 q 772 328 774 332 l 154 328 q 181 220 158 269 q 240 135 204 171 q 322 78 275 99 q 421 58 368 58 q 492 68 457 58 q 556 94 526 78 q 608 135 585 111 q 643 189 631 160 l 725 167 q 678 94 708 126 q 607 37 647 61 q 518 -1 567 13 q 418 -14 469 -14 m 685 400 q 658 506 681 458 q 599 589 635 554 q 517 643 564 624 q 417 663 469 663 q 317 643 364 663 q 234 589 269 624 q 177 506 199 554 q 151 400 156 457 l 685 400 z "},"ĕ":{"ha":815,"x_min":54,"x_max":775,"o":"m 418 -14 q 272 16 339 -14 q 157 98 206 46 q 81 218 108 150 q 54 364 54 286 q 81 508 54 440 q 157 626 108 575 q 272 706 206 676 q 417 736 338 736 q 562 706 496 736 q 675 625 628 676 q 749 507 722 574 q 775 365 775 440 q 774 343 775 354 q 772 328 774 332 l 154 328 q 181 220 158 269 q 240 135 204 171 q 322 78 275 99 q 421 58 368 58 q 492 68 457 58 q 556 94 526 78 q 608 135 585 111 q 643 189 631 160 l 725 167 q 678 94 708 126 q 607 37 647 61 q 518 -1 567 13 q 418 -14 469 -14 m 685 400 q 658 506 681 458 q 599 589 635 554 q 517 643 564 624 q 417 663 469 663 q 317 643 364 663 q 234 589 269 624 q 177 506 199 554 q 151 400 156 457 l 685 400 m 413 922 q 465 949 442 922 q 492 1014 488 975 l 549 1014 q 538 959 549 985 q 509 915 528 933 q 465 885 490 896 q 413 874 440 874 q 315 914 354 874 q 276 1014 276 954 l 335 1014 q 358 950 335 978 q 413 922 382 922 z "},"ě":{"ha":815,"x_min":54,"x_max":775,"o":"m 294 1014 l 413 926 l 531 1014 l 585 986 l 447 867 l 378 867 l 242 986 l 294 1014 m 418 -14 q 272 16 339 -14 q 157 98 206 46 q 81 218 108 150 q 54 364 54 286 q 81 508 54 440 q 157 626 108 575 q 272 706 206 676 q 417 736 338 736 q 562 706 496 736 q 675 625 628 676 q 749 507 722 574 q 775 365 775 440 q 774 343 775 354 q 772 328 774 332 l 154 328 q 181 220 158 269 q 240 135 204 171 q 322 78 275 99 q 421 58 368 58 q 492 68 457 58 q 556 94 526 78 q 608 135 585 111 q 643 189 631 160 l 725 167 q 678 94 708 126 q 607 37 647 61 q 518 -1 567 13 q 418 -14 469 -14 m 685 400 q 658 506 681 458 q 599 589 635 554 q 517 643 564 624 q 417 663 469 663 q 317 643 364 663 q 234 589 269 624 q 177 506 199 554 q 151 400 156 457 l 685 400 z "},"ê":{"ha":815,"x_min":54,"x_max":775,"o":"m 242 896 l 378 1014 l 447 1014 l 585 896 l 531 867 l 413 954 l 294 867 l 242 896 m 418 -14 q 272 16 339 -14 q 157 98 206 46 q 81 218 108 150 q 54 364 54 286 q 81 508 54 440 q 157 626 108 575 q 272 706 206 676 q 417 736 338 736 q 562 706 496 736 q 675 625 628 676 q 749 507 722 574 q 775 365 775 440 q 774 343 775 354 q 772 328 774 332 l 154 328 q 181 220 158 269 q 240 135 204 171 q 322 78 275 99 q 421 58 368 58 q 492 68 457 58 q 556 94 526 78 q 608 135 585 111 q 643 189 631 160 l 725 167 q 678 94 708 126 q 607 37 647 61 q 518 -1 567 13 q 418 -14 469 -14 m 685 400 q 658 506 681 458 q 599 589 635 554 q 517 643 564 624 q 417 663 469 663 q 317 643 364 663 q 234 589 269 624 q 177 506 199 554 q 151 400 156 457 l 685 400 z "},"ë":{"ha":815,"x_min":54,"x_max":775,"o":"m 269 879 l 269 1010 l 350 1010 l 350 879 l 269 879 m 476 879 l 476 1010 l 557 1010 l 557 879 l 476 879 m 418 -14 q 272 16 339 -14 q 157 98 206 46 q 81 218 108 150 q 54 364 54 286 q 81 508 54 440 q 157 626 108 575 q 272 706 206 676 q 417 736 338 736 q 562 706 496 736 q 675 625 628 676 q 749 507 722 574 q 775 365 775 440 q 774 343 775 354 q 772 328 774 332 l 154 328 q 181 220 158 269 q 240 135 204 171 q 322 78 275 99 q 421 58 368 58 q 492 68 457 58 q 556 94 526 78 q 608 135 585 111 q 643 189 631 160 l 725 167 q 678 94 708 126 q 607 37 647 61 q 518 -1 567 13 q 418 -14 469 -14 m 685 400 q 658 506 681 458 q 599 589 635 554 q 517 643 564 624 q 417 663 469 663 q 317 643 364 663 q 234 589 269 624 q 177 506 199 554 q 151 400 156 457 l 685 400 z "},"ė":{"ha":815,"x_min":54,"x_max":775,"o":"m 418 -14 q 272 16 339 -14 q 157 98 206 46 q 81 218 108 150 q 54 364 54 286 q 81 508 54 440 q 157 626 108 575 q 272 706 206 676 q 417 736 338 736 q 562 706 496 736 q 675 625 628 676 q 749 507 722 574 q 775 365 775 440 q 774 343 775 354 q 772 328 774 332 l 154 328 q 181 220 158 269 q 240 135 204 171 q 322 78 275 99 q 421 58 368 58 q 492 68 457 58 q 556 94 526 78 q 608 135 585 111 q 643 189 631 160 l 725 167 q 678 94 708 126 q 607 37 647 61 q 518 -1 567 13 q 418 -14 469 -14 m 685 400 q 658 506 681 458 q 599 589 635 554 q 517 643 564 624 q 417 663 469 663 q 317 643 364 663 q 234 589 269 624 q 177 506 199 554 q 151 400 156 457 l 685 400 m 369 879 l 369 1014 l 456 1014 l 456 879 l 369 879 z "},"è":{"ha":815,"x_min":54,"x_max":775,"o":"m 418 -14 q 272 16 339 -14 q 157 98 206 46 q 81 218 108 150 q 54 364 54 286 q 81 508 54 440 q 157 626 108 575 q 272 706 206 676 q 417 736 338 736 q 562 706 496 736 q 675 625 628 676 q 749 507 722 574 q 775 365 775 440 q 774 343 775 354 q 772 328 774 332 l 154 328 q 181 220 158 269 q 240 135 204 171 q 322 78 275 99 q 421 58 368 58 q 492 68 457 58 q 556 94 526 78 q 608 135 585 111 q 643 189 631 160 l 725 167 q 678 94 708 126 q 607 37 647 61 q 518 -1 567 13 q 418 -14 469 -14 m 685 400 q 658 506 681 458 q 599 589 635 554 q 517 643 564 624 q 417 663 469 663 q 317 643 364 663 q 234 589 269 624 q 177 506 199 554 q 151 400 156 457 l 685 400 m 283 1014 l 382 1014 l 465 885 l 404 861 l 283 1014 z "},"₈":{"ha":553,"x_min":53,"x_max":499,"o":"m 499 154 q 481 88 499 118 q 432 38 463 58 q 360 5 401 17 q 274 -7 319 -7 q 185 6 225 -7 q 115 42 144 19 q 69 94 86 64 q 53 157 53 124 q 64 206 53 183 q 93 247 75 229 q 134 276 111 264 q 181 297 157 289 q 107 341 139 313 q 75 413 75 369 q 93 472 75 446 q 140 517 111 499 q 204 544 168 535 q 276 554 240 554 q 349 544 313 554 q 413 517 385 535 q 459 473 442 499 q 476 414 476 447 q 445 342 476 371 q 369 297 414 313 q 462 243 425 279 q 499 154 499 207 m 436 161 q 422 206 436 186 q 384 240 407 226 q 333 262 361 254 q 275 269 304 269 q 217 262 246 269 q 165 240 188 254 q 129 205 143 225 q 115 160 115 185 q 130 115 115 135 q 167 82 144 96 q 219 61 190 68 q 276 54 249 54 q 335 62 306 54 q 386 83 364 69 q 422 117 408 97 q 436 161 436 136 m 138 407 q 150 370 138 386 q 182 343 163 354 q 226 326 201 332 q 275 321 251 321 q 325 327 300 321 q 370 344 350 333 q 403 372 390 356 q 415 408 415 388 q 403 445 415 429 q 372 472 392 461 q 326 490 351 483 q 275 496 301 496 q 223 490 247 496 q 179 472 199 483 q 149 444 160 460 q 138 407 138 428 z "},"⁸":{"ha":553,"x_min":53,"x_max":499,"o":"m 499 614 q 481 548 499 578 q 432 497 463 518 q 360 465 401 476 q 274 453 319 453 q 185 466 225 453 q 115 501 144 479 q 69 553 86 524 q 53 617 53 583 q 64 665 53 643 q 93 706 75 688 q 134 736 111 724 q 181 757 157 749 q 107 801 139 772 q 75 872 75 829 q 93 931 75 906 q 140 976 111 957 q 204 1004 168 994 q 276 1014 240 1014 q 349 1004 313 1014 q 413 976 385 994 q 459 933 442 958 q 476 874 476 907 q 445 801 476 831 q 369 757 414 772 q 462 703 425 739 q 499 614 499 667 m 436 621 q 422 666 436 646 q 384 700 407 686 q 333 722 361 714 q 275 729 304 729 q 217 722 246 729 q 165 699 188 714 q 129 665 143 685 q 115 621 115 646 q 130 576 115 596 q 167 542 144 556 q 219 521 190 528 q 276 514 249 514 q 335 522 306 514 q 386 543 364 529 q 422 576 408 557 q 436 621 436 596 m 138 868 q 150 831 138 847 q 182 803 163 814 q 226 786 201 792 q 275 781 251 781 q 325 786 300 781 q 370 803 350 792 q 403 831 390 815 q 415 868 415 847 q 403 905 415 889 q 372 932 392 921 q 326 949 351 943 q 275 954 301 954 q 179 931 221 954 q 138 868 138 908 z "},"…":{"ha":636,"x_min":92,"x_max":544,"o":"m 92 0 l 92 136 l 172 136 l 172 0 l 92 0 m 278 0 l 278 136 l 358 136 l 358 0 l 278 0 m 464 0 l 464 136 l 544 136 l 544 0 l 464 0 z "},"ē":{"ha":815,"x_min":54,"x_max":775,"o":"m 418 -14 q 272 16 339 -14 q 157 98 206 46 q 81 218 108 150 q 54 364 54 286 q 81 508 54 440 q 157 626 108 575 q 272 706 206 676 q 417 736 338 736 q 562 706 496 736 q 675 625 628 676 q 749 507 722 574 q 775 365 775 440 q 774 343 775 354 q 772 328 774 332 l 154 328 q 181 220 158 269 q 240 135 204 171 q 322 78 275 99 q 421 58 368 58 q 492 68 457 58 q 556 94 526 78 q 608 135 585 111 q 643 189 631 160 l 725 167 q 678 94 708 126 q 607 37 647 61 q 518 -1 567 13 q 418 -14 469 -14 m 685 400 q 658 506 681 458 q 599 589 635 554 q 517 643 564 624 q 417 663 469 663 q 317 643 364 663 q 234 589 269 624 q 177 506 199 554 q 151 400 156 457 l 685 400 m 213 921 l 213 986 l 614 986 l 614 921 l 213 921 z "},"—":{"ha":1251,"x_min":92,"x_max":1161,"o":"m 92 335 l 92 422 l 1161 422 l 1161 335 l 92 335 z "},"–":{"ha":792,"x_min":92,"x_max":701,"o":"m 92 335 l 92 422 l 701 422 l 701 335 l 92 335 z "},"ŋ":{"ha":804,"x_min":101,"x_max":710,"o":"m 497 -251 q 411 -239 451 -251 q 339 -197 371 -226 l 385 -133 q 433 -160 407 -153 q 488 -167 460 -167 q 534 -157 511 -167 q 575 -130 557 -147 q 604 -89 593 -112 q 615 -37 615 -65 l 615 404 q 578 592 615 533 q 461 650 540 650 q 378 635 419 650 q 300 592 336 619 q 237 526 264 564 q 196 443 210 488 l 196 0 l 101 0 l 101 724 l 188 724 l 188 560 q 242 631 210 599 q 315 688 275 664 q 401 724 356 711 q 494 736 446 736 q 597 714 556 736 q 663 651 638 692 q 699 553 688 611 q 710 424 710 494 l 710 -32 q 692 -121 710 -81 q 644 -190 674 -161 q 576 -235 614 -219 q 497 -251 538 -251 z "},"ę":{"ha":818,"x_min":56,"x_max":776,"o":"m 407 -251 q 329 -213 356 -240 q 303 -150 303 -186 q 326 -83 303 -117 q 400 -14 349 -50 q 262 22 325 -10 q 153 104 199 53 q 81 222 107 156 q 56 364 56 289 q 83 508 56 440 q 158 626 110 575 q 273 706 207 676 q 418 736 339 736 q 563 706 497 736 q 676 625 629 676 q 750 507 724 574 q 776 365 776 440 q 776 343 776 354 q 774 328 775 332 l 156 328 q 183 220 160 269 q 241 135 206 171 q 323 78 276 99 q 422 58 369 58 q 493 68 458 58 q 557 94 528 78 q 609 135 586 111 q 644 189 632 160 l 726 167 q 628 49 697 97 q 472 -10 560 1 q 386 -78 411 -49 q 361 -137 361 -107 q 433 -199 361 -189 l 407 -251 m 686 400 q 659 506 682 458 q 601 589 636 554 q 518 643 565 624 q 418 663 471 663 q 318 643 365 663 q 235 589 271 624 q 178 506 200 554 q 153 400 157 457 l 686 400 z "},"=":{"ha":613,"x_min":97,"x_max":517,"o":"m 97 269 l 97 338 l 517 338 l 517 269 l 97 269 m 97 429 l 97 497 l 517 497 l 517 429 l 97 429 z "},"ð":{"ha":838,"x_min":57,"x_max":776,"o":"m 688 949 l 572 878 q 671 756 632 819 q 733 630 710 693 q 767 505 757 567 q 776 385 776 443 q 747 222 776 294 q 668 96 718 149 q 551 15 618 43 q 411 -14 485 -14 q 274 13 338 -14 q 161 85 210 39 q 85 192 113 131 q 57 324 57 253 q 84 453 57 392 q 157 560 111 514 q 265 632 203 606 q 397 658 326 658 q 566 613 490 658 q 679 496 642 568 q 626 669 665 583 q 500 842 588 756 l 346 744 l 315 788 l 461 878 q 263 1014 383 944 l 396 1014 q 535 914 472 968 l 657 990 l 688 949 m 154 322 q 174 224 154 269 q 230 143 194 178 q 313 89 265 108 q 414 69 360 69 q 517 91 469 69 q 601 149 565 113 q 658 233 638 185 q 679 335 679 281 q 658 431 679 386 q 602 508 638 475 q 519 560 567 542 q 418 579 472 579 q 315 559 364 579 q 231 504 267 539 q 175 422 196 469 q 154 322 154 375 z "},"ẽ":{"ha":815,"x_min":54,"x_max":775,"o":"m 418 -14 q 272 16 339 -14 q 157 98 206 46 q 81 218 108 150 q 54 364 54 286 q 81 508 54 440 q 157 626 108 575 q 272 706 206 676 q 417 736 338 736 q 562 706 496 736 q 675 625 628 676 q 749 507 722 574 q 775 365 775 440 q 774 343 775 354 q 772 328 774 332 l 154 328 q 181 220 158 269 q 240 135 204 171 q 322 78 275 99 q 421 58 368 58 q 492 68 457 58 q 556 94 526 78 q 608 135 585 111 q 643 189 631 160 l 725 167 q 678 94 708 126 q 607 37 647 61 q 518 -1 567 13 q 418 -14 469 -14 m 685 400 q 658 506 681 458 q 599 589 635 554 q 517 643 564 624 q 417 663 469 663 q 317 643 364 663 q 234 589 269 624 q 177 506 199 554 q 151 400 156 457 l 685 400 m 499 886 q 444 894 467 886 q 401 913 421 903 q 362 933 381 924 q 321 942 343 942 q 284 932 297 942 q 263 910 271 922 q 253 888 256 899 q 251 875 251 878 l 193 875 q 198 903 193 882 q 217 947 203 925 q 256 987 231 969 q 319 1004 281 1004 q 370 995 349 1004 q 411 975 392 986 q 451 955 431 964 q 497 946 471 946 q 540 956 524 946 q 564 978 556 965 q 574 1001 572 990 q 576 1014 576 1011 l 635 1014 q 629 986 635 1007 q 609 943 624 965 q 567 903 594 921 q 499 886 540 886 z "},"!":{"ha":338,"x_min":122,"x_max":217,"o":"m 122 317 l 122 996 l 217 996 l 217 317 l 122 317 m 122 0 l 122 156 l 217 156 l 217 0 l 122 0 z "},"¡":{"ha":339,"x_min":122,"x_max":217,"o":"m 217 676 l 217 -3 l 122 -3 l 122 676 l 217 676 m 217 993 l 217 838 l 122 838 l 122 993 l 217 993 z "},"f":{"ha":479,"x_min":40,"x_max":506,"o":"m 140 0 l 140 564 l 40 564 l 40 639 l 140 639 l 140 743 q 197 952 140 876 q 354 1028 254 1028 q 436 1015 396 1028 q 506 982 476 1003 l 476 914 q 428 938 457 929 q 372 946 400 946 q 270 894 306 946 q 235 746 235 843 l 235 639 l 435 639 l 435 564 l 235 564 l 235 0 l 140 0 z "},"ﬀ":{"ha":832,"x_min":40,"x_max":844,"o":"m 715 944 q 642 926 672 944 q 592 881 611 908 q 565 817 574 853 q 556 746 556 781 l 556 639 l 785 639 l 785 564 l 556 564 l 556 0 l 461 0 l 461 564 l 235 564 l 235 0 l 140 0 l 140 564 l 40 564 l 40 639 l 140 639 l 140 700 q 153 802 140 753 q 194 890 167 851 q 263 951 221 928 q 360 974 304 974 q 451 963 411 974 q 517 938 490 951 q 590 1003 546 978 q 700 1028 635 1028 q 756 1022 732 1028 q 797 1009 781 1017 q 826 994 814 1001 q 844 982 838 986 l 817 914 q 781 935 801 925 q 715 944 760 944 m 461 735 q 467 800 461 763 q 488 864 474 838 q 433 886 464 881 q 375 892 401 892 q 308 873 335 892 q 265 826 282 854 q 242 765 249 799 q 235 703 235 732 l 235 639 l 461 639 l 461 735 z "},"ﬃ":{"ha":1018,"x_min":40,"x_max":926,"o":"m 140 564 l 40 564 l 40 639 l 140 639 l 140 700 q 153 802 140 753 q 194 890 167 851 q 263 951 221 928 q 360 974 304 974 q 451 963 411 974 q 517 938 490 951 q 597 1003 549 978 q 715 1028 646 1028 q 784 1021 751 1028 q 844 1004 817 1014 q 892 983 871 994 q 926 963 913 971 l 882 894 q 817 929 860 914 q 722 944 774 944 q 646 926 678 944 q 594 881 614 908 q 565 817 574 853 q 556 746 556 781 l 556 639 l 917 639 l 917 0 l 822 0 l 822 564 l 556 564 l 556 0 l 461 0 l 461 564 l 235 564 l 235 0 l 140 0 l 140 564 m 461 639 l 461 735 q 467 800 461 763 q 488 864 474 838 q 433 886 464 881 q 375 892 401 892 q 308 873 335 892 q 265 826 282 854 q 242 765 249 799 q 235 703 235 732 l 235 639 l 461 639 z "},"ﬄ":{"ha":1129,"x_min":40,"x_max":1139,"o":"m 1008 -8 q 904 31 942 -8 q 867 122 867 69 l 867 793 q 859 847 867 819 q 834 895 851 874 q 788 931 817 917 q 717 944 758 944 q 644 926 674 944 q 595 876 614 907 q 568 808 576 846 q 560 732 560 771 l 560 639 l 711 639 l 711 564 l 560 564 l 560 0 l 465 0 l 465 564 l 235 564 l 235 0 l 140 0 l 140 564 l 40 564 l 40 639 l 140 639 l 140 710 q 156 814 140 765 q 200 898 171 863 q 272 953 229 933 q 368 974 314 974 q 456 963 421 974 q 517 938 490 951 q 598 1004 549 981 q 715 1028 647 1028 q 822 1012 776 1028 q 899 967 868 996 q 946 898 931 938 q 961 811 961 858 l 961 163 q 980 105 961 133 q 1038 76 999 76 q 1092 84 1065 76 q 1121 92 1119 92 l 1139 14 q 1127 9 1139 13 q 1097 1 1115 6 q 1055 -6 1078 -3 q 1008 -8 1032 -8 m 465 639 l 465 735 q 470 804 465 767 q 486 865 475 842 q 436 887 463 882 q 385 892 410 892 q 317 876 344 892 q 270 835 289 861 q 243 778 251 810 q 235 713 235 746 l 235 639 l 465 639 z "},"ﬁ":{"ha":699,"x_min":40,"x_max":606,"o":"m 140 564 l 40 564 l 40 639 l 140 639 l 140 743 q 155 844 140 793 q 201 936 169 896 q 281 1002 232 976 q 396 1028 329 1028 q 528 1004 474 1028 q 606 963 582 981 l 563 894 q 496 930 539 915 q 401 944 453 944 q 326 926 357 944 q 274 881 294 908 q 244 817 254 853 q 235 746 235 781 l 235 639 l 597 639 l 597 0 l 503 0 l 503 564 l 235 564 l 235 0 l 140 0 l 140 564 z "},"ﬂ":{"ha":806,"x_min":40,"x_max":815,"o":"m 815 14 q 802 9 814 13 q 772 1 790 6 q 731 -6 754 -3 q 683 -8 707 -8 q 580 31 617 -8 q 543 122 543 69 l 543 793 q 535 847 543 819 q 510 895 528 874 q 463 931 492 917 q 392 944 435 944 q 320 926 350 944 q 272 876 290 907 q 244 808 253 846 q 235 732 235 771 l 235 639 l 388 639 l 388 564 l 235 564 l 235 0 l 140 0 l 140 564 l 40 564 l 40 639 l 140 639 l 140 750 q 156 862 140 811 q 202 949 171 913 q 281 1007 233 986 q 392 1028 328 1028 q 499 1012 453 1028 q 576 967 544 996 q 622 898 607 938 q 638 811 638 858 l 638 163 q 656 105 638 133 q 714 76 675 76 q 767 84 740 76 q 796 92 794 92 l 815 14 z "},"⅝":{"ha":1217,"x_min":56,"x_max":1160,"o":"m 1160 154 q 1142 88 1160 118 q 1093 38 1124 58 q 1022 5 1063 17 q 935 -7 981 -7 q 846 6 886 -7 q 776 42 806 19 q 731 94 747 64 q 714 157 714 124 q 725 206 714 183 q 754 247 736 229 q 795 276 772 264 q 842 297 818 289 q 768 341 800 313 q 736 413 736 369 q 754 472 736 446 q 801 517 772 499 q 865 544 829 535 q 938 554 901 554 q 1010 544 974 554 q 1074 517 1046 535 q 1120 473 1103 499 q 1138 414 1138 447 q 1106 342 1138 371 q 1031 297 1075 313 q 1123 243 1086 279 q 1160 154 1160 207 m 1097 161 q 1083 206 1097 186 q 1045 240 1068 226 q 994 262 1022 254 q 936 269 965 269 q 878 262 907 269 q 826 240 849 254 q 790 205 804 225 q 776 160 776 185 q 791 115 776 135 q 828 82 806 96 q 881 61 851 68 q 938 54 910 54 q 996 62 967 54 q 1047 83 1025 69 q 1083 117 1069 97 q 1097 161 1097 136 m 799 407 q 811 370 799 386 q 843 343 824 354 q 888 326 863 332 q 936 321 913 321 q 986 327 961 321 q 1031 344 1011 333 q 1064 372 1051 356 q 1076 408 1076 388 q 1065 445 1076 429 q 1033 472 1053 461 q 988 490 1013 483 q 936 496 963 496 q 884 490 908 496 q 840 472 860 483 q 810 444 821 460 q 799 407 799 428 m 275 813 q 358 799 319 813 q 426 763 397 786 q 470 708 454 740 q 486 638 486 676 q 469 562 486 596 q 421 503 451 528 q 349 466 390 479 q 261 453 308 453 q 138 481 193 453 q 56 557 83 508 l 97 592 q 166 533 122 556 q 265 511 210 511 q 377 545 332 511 q 422 638 422 579 q 408 692 422 668 q 373 731 394 715 q 324 754 351 746 q 268 763 296 763 q 188 744 226 763 q 126 697 149 726 l 68 697 q 85 769 74 722 q 108 865 96 815 q 129 956 119 914 q 142 1014 139 997 l 451 1014 l 451 953 l 189 953 l 143 771 q 275 813 193 813 m 189 38 l 578 510 l 954 992 l 1003 950 l 617 478 l 238 -6 l 189 38 z "},"⁵":{"ha":524,"x_min":46,"x_max":476,"o":"m 265 813 q 349 799 310 813 q 416 763 388 786 q 460 708 444 740 q 476 638 476 676 q 459 562 476 596 q 411 503 442 528 q 340 466 381 479 q 251 453 299 453 q 128 481 183 453 q 46 557 74 508 l 88 592 q 156 533 113 556 q 256 511 200 511 q 367 545 322 511 q 413 638 413 579 q 399 692 413 668 q 363 731 385 715 q 314 754 342 746 q 258 763 286 763 q 178 744 217 763 q 117 697 139 726 l 58 697 q 75 769 64 722 q 98 865 86 815 q 119 956 110 914 q 132 1014 129 997 l 442 1014 l 442 953 l 179 953 l 133 771 q 265 813 183 813 z "},"⁄":{"ha":214,"x_min":-300,"x_max":514,"o":"m -300 38 l 89 510 l 465 992 l 514 950 l 128 478 l -251 -6 l -300 38 z "},"₅":{"ha":522,"x_min":44,"x_max":475,"o":"m 264 353 q 347 340 308 353 q 415 304 386 328 q 459 248 443 281 q 475 176 475 215 q 458 102 475 136 q 410 44 440 68 q 338 6 379 19 q 250 -7 297 -7 q 127 22 182 -7 q 44 96 72 50 l 86 132 q 155 74 111 96 q 254 51 199 51 q 366 86 321 51 q 411 178 411 121 q 397 232 411 208 q 362 271 383 256 q 313 294 340 286 q 257 303 285 303 q 176 285 215 303 q 115 238 138 267 l 57 238 q 74 309 63 263 q 97 405 85 356 q 118 496 108 454 q 131 554 128 538 l 440 554 l 440 493 l 178 493 l 132 313 q 190 342 156 332 q 264 353 224 353 z "},"ƒ":{"ha":731,"x_min":43,"x_max":685,"o":"m 201 -251 q 115 -239 156 -251 q 43 -197 75 -226 l 89 -133 q 138 -160 111 -153 q 190 -167 164 -167 q 238 -157 215 -167 q 279 -130 261 -147 q 308 -89 297 -112 q 319 -37 319 -65 l 319 564 l 219 564 l 219 639 l 319 639 l 319 743 q 376 952 319 876 q 532 1028 433 1028 q 615 1015 574 1028 q 685 982 656 1003 l 656 914 q 608 938 636 929 q 550 946 579 946 q 449 894 483 946 q 414 746 414 843 l 414 639 l 614 639 l 614 564 l 414 564 l 414 -35 q 396 -123 414 -83 q 348 -191 378 -162 q 280 -235 318 -219 q 201 -251 242 -251 z "},"₄":{"ha":533,"x_min":33,"x_max":492,"o":"m 350 0 l 350 143 l 33 143 l 33 201 l 369 554 l 413 554 l 413 204 l 492 204 l 492 143 l 413 143 l 413 0 l 350 0 m 100 204 l 351 204 l 351 469 l 100 204 z "},"⁴":{"ha":533,"x_min":33,"x_max":492,"o":"m 350 460 l 350 603 l 33 603 l 33 661 l 369 1014 l 413 1014 l 413 663 l 492 663 l 492 603 l 413 603 l 413 460 l 350 460 m 100 663 l 351 663 l 351 929 l 100 663 z "},"g":{"ha":856,"x_min":56,"x_max":754,"o":"m 394 -10 q 258 22 319 -10 q 151 104 196 53 q 81 222 106 156 q 56 360 56 289 q 80 503 56 435 q 149 624 104 572 q 255 706 193 675 q 392 736 317 736 q 553 690 485 736 q 669 572 621 643 l 669 724 l 754 724 l 754 -3 q 726 -135 754 -78 q 649 -232 697 -193 q 536 -290 601 -271 q 399 -310 471 -310 q 199 -265 275 -310 q 75 -146 122 -221 l 133 -100 q 247 -202 176 -169 q 399 -235 318 -235 q 499 -220 451 -235 q 583 -177 547 -206 q 639 -105 618 -149 q 660 -3 660 -61 l 660 140 q 545 31 617 71 q 394 -10 474 -10 m 421 69 q 503 85 463 69 q 576 126 543 100 q 631 183 608 151 q 660 249 653 215 l 660 472 q 617 544 644 511 q 557 601 590 578 q 485 639 524 625 q 408 653 447 653 q 300 627 347 653 q 219 560 253 601 q 169 465 186 518 q 151 358 151 413 q 172 247 151 300 q 229 155 193 194 q 315 92 265 115 q 421 69 364 69 z "},"ğ":{"ha":856,"x_min":56,"x_max":754,"o":"m 394 -10 q 258 22 319 -10 q 151 104 196 53 q 81 222 106 156 q 56 360 56 289 q 80 503 56 435 q 149 624 104 572 q 255 706 193 675 q 392 736 317 736 q 553 690 485 736 q 669 572 621 643 l 669 724 l 754 724 l 754 -3 q 726 -135 754 -78 q 649 -232 697 -193 q 536 -290 601 -271 q 399 -310 471 -310 q 199 -265 275 -310 q 75 -146 122 -221 l 133 -100 q 247 -202 176 -169 q 399 -235 318 -235 q 499 -220 451 -235 q 583 -177 547 -206 q 639 -105 618 -149 q 660 -3 660 -61 l 660 140 q 545 31 617 71 q 394 -10 474 -10 m 421 69 q 503 85 463 69 q 576 126 543 100 q 631 183 608 151 q 660 249 653 215 l 660 472 q 617 544 644 511 q 557 601 590 578 q 485 639 524 625 q 408 653 447 653 q 300 627 347 653 q 219 560 253 601 q 169 465 186 518 q 151 358 151 413 q 172 247 151 300 q 229 155 193 194 q 315 92 265 115 q 421 69 364 69 m 453 922 q 505 949 482 922 q 532 1014 528 975 l 589 1014 q 578 959 589 985 q 549 915 568 933 q 506 885 531 896 q 453 874 481 874 q 356 914 394 874 q 317 1014 317 954 l 375 1014 q 399 950 375 978 q 453 922 422 922 z "},"ĝ":{"ha":856,"x_min":56,"x_max":754,"o":"m 281 896 l 417 1014 l 486 1014 l 624 896 l 569 867 l 451 954 l 333 867 l 281 896 m 394 -10 q 258 22 319 -10 q 151 104 196 53 q 81 222 106 156 q 56 360 56 289 q 80 503 56 435 q 149 624 104 572 q 255 706 193 675 q 392 736 317 736 q 553 690 485 736 q 669 572 621 643 l 669 724 l 754 724 l 754 -3 q 726 -135 754 -78 q 649 -232 697 -193 q 536 -290 601 -271 q 399 -310 471 -310 q 199 -265 275 -310 q 75 -146 122 -221 l 133 -100 q 247 -202 176 -169 q 399 -235 318 -235 q 499 -220 451 -235 q 583 -177 547 -206 q 639 -105 618 -149 q 660 -3 660 -61 l 660 140 q 545 31 617 71 q 394 -10 474 -10 m 421 69 q 503 85 463 69 q 576 126 543 100 q 631 183 608 151 q 660 249 653 215 l 660 472 q 617 544 644 511 q 557 601 590 578 q 485 639 524 625 q 408 653 447 653 q 300 627 347 653 q 219 560 253 601 q 169 465 186 518 q 151 358 151 413 q 172 247 151 300 q 229 155 193 194 q 315 92 265 115 q 421 69 364 69 z "},"ģ":{"ha":856,"x_min":56,"x_max":754,"o":"m 461 861 l 399 885 l 481 1014 l 581 1014 l 461 861 m 394 -10 q 258 22 319 -10 q 151 104 196 53 q 81 222 106 156 q 56 360 56 289 q 80 503 56 435 q 149 624 104 572 q 255 706 193 675 q 392 736 317 736 q 553 690 485 736 q 669 572 621 643 l 669 724 l 754 724 l 754 -3 q 726 -135 754 -78 q 649 -232 697 -193 q 536 -290 601 -271 q 399 -310 471 -310 q 199 -265 275 -310 q 75 -146 122 -221 l 133 -100 q 247 -202 176 -169 q 399 -235 318 -235 q 499 -220 451 -235 q 583 -177 547 -206 q 639 -105 618 -149 q 660 -3 660 -61 l 660 140 q 545 31 617 71 q 394 -10 474 -10 m 421 69 q 503 85 463 69 q 576 126 543 100 q 631 183 608 151 q 660 249 653 215 l 660 472 q 617 544 644 511 q 557 601 590 578 q 485 639 524 625 q 408 653 447 653 q 300 627 347 653 q 219 560 253 601 q 169 465 186 518 q 151 358 151 413 q 172 247 151 300 q 229 155 193 194 q 315 92 265 115 q 421 69 364 69 z "},"ġ":{"ha":856,"x_min":56,"x_max":754,"o":"m 394 -10 q 258 22 319 -10 q 151 104 196 53 q 81 222 106 156 q 56 360 56 289 q 80 503 56 435 q 149 624 104 572 q 255 706 193 675 q 392 736 317 736 q 553 690 485 736 q 669 572 621 643 l 669 724 l 754 724 l 754 -3 q 726 -135 754 -78 q 649 -232 697 -193 q 536 -290 601 -271 q 399 -310 471 -310 q 199 -265 275 -310 q 75 -146 122 -221 l 133 -100 q 247 -202 176 -169 q 399 -235 318 -235 q 499 -220 451 -235 q 583 -177 547 -206 q 639 -105 618 -149 q 660 -3 660 -61 l 660 140 q 545 31 617 71 q 394 -10 474 -10 m 421 69 q 503 85 463 69 q 576 126 543 100 q 631 183 608 151 q 660 249 653 215 l 660 472 q 617 544 644 511 q 557 601 590 578 q 485 639 524 625 q 408 653 447 653 q 300 627 347 653 q 219 560 253 601 q 169 465 186 518 q 151 358 151 413 q 172 247 151 300 q 229 155 193 194 q 315 92 265 115 q 421 69 364 69 m 408 879 l 408 1014 l 494 1014 l 494 879 l 408 879 z "},"ß":{"ha":765,"x_min":101,"x_max":710,"o":"m 328 79 q 535 133 457 81 q 613 293 613 186 q 596 382 613 342 q 549 451 579 422 q 475 495 518 479 q 381 511 432 511 l 356 511 l 356 597 l 379 597 q 501 641 454 597 q 549 756 549 685 q 535 822 549 793 q 497 869 521 850 q 442 899 474 889 q 376 908 411 908 q 296 892 331 908 q 238 848 261 876 q 203 782 215 819 q 192 701 192 744 l 192 0 l 101 0 l 101 715 q 122 827 101 776 q 180 915 143 878 q 267 972 217 951 q 379 992 318 992 q 482 975 435 992 q 564 929 529 958 q 619 859 599 900 q 639 769 639 818 q 627 697 639 732 q 595 635 615 663 q 549 587 575 607 q 492 560 522 567 q 653 463 596 538 q 710 288 710 389 q 682 163 710 217 q 604 72 654 110 q 484 15 554 35 q 328 -8 414 -6 l 328 79 z "},">":{"ha":703,"x_min":74,"x_max":657,"o":"m 657 332 l 74 -15 l 74 89 l 519 360 l 74 632 l 74 733 l 657 383 l 657 332 z "},"«":{"ha":803,"x_min":61,"x_max":713,"o":"m 61 383 l 407 631 l 407 549 l 139 360 l 407 174 l 407 92 l 61 332 l 61 383 m 368 383 l 713 631 l 713 549 l 446 360 l 713 174 l 713 92 l 368 332 l 368 383 z "},"»":{"ha":803,"x_min":89,"x_max":740,"o":"m 740 332 l 396 92 l 396 174 l 663 360 l 396 549 l 396 631 l 740 383 l 740 332 m 433 332 l 89 92 l 89 174 l 357 360 l 89 549 l 89 631 l 433 383 l 433 332 z "},"‹":{"ha":496,"x_min":61,"x_max":407,"o":"m 61 383 l 407 631 l 407 549 l 139 360 l 407 174 l 407 92 l 61 332 l 61 383 z "},"›":{"ha":496,"x_min":89,"x_max":433,"o":"m 433 332 l 89 92 l 89 174 l 357 360 l 89 549 l 89 631 l 433 383 l 433 332 z "},"h":{"ha":804,"x_min":101,"x_max":710,"o":"m 710 0 l 615 0 l 615 404 q 573 589 615 528 q 449 650 531 650 q 369 634 408 650 q 294 590 329 618 q 234 525 260 563 q 196 443 208 488 l 196 0 l 101 0 l 101 1014 l 196 1014 l 196 560 q 317 689 240 642 q 481 736 393 736 q 587 713 543 736 q 658 649 631 690 q 697 551 685 608 q 710 424 710 493 l 710 0 z "},"ħ":{"ha":804,"x_min":17,"x_max":710,"o":"m 710 0 l 615 0 l 615 404 q 573 589 615 528 q 449 650 531 650 q 369 634 408 650 q 294 590 329 618 q 234 525 260 563 q 196 443 208 488 l 196 0 l 101 0 l 101 857 l 17 857 l 17 921 l 101 921 l 101 1014 l 196 1014 l 196 921 l 367 921 l 367 857 l 196 857 l 196 560 q 317 689 240 642 q 481 736 393 736 q 587 713 543 736 q 658 649 631 690 q 697 551 685 608 q 710 424 710 493 l 710 0 z "},"ĥ":{"ha":804,"x_min":101,"x_max":710,"o":"m 303 894 l 432 1011 l 497 1011 l 628 894 l 576 865 l 465 953 l 353 865 l 303 894 m 710 0 l 615 0 l 615 404 q 573 589 615 528 q 449 650 531 650 q 369 634 408 650 q 294 590 329 618 q 234 525 260 563 q 196 443 208 488 l 196 0 l 101 0 l 101 1014 l 196 1014 l 196 560 q 317 689 240 642 q 481 736 393 736 q 587 713 543 736 q 658 649 631 690 q 697 551 685 608 q 710 424 710 493 l 710 0 z "},"-":{"ha":588,"x_min":92,"x_max":496,"o":"m 92 335 l 92 422 l 496 422 l 496 335 l 92 335 z "},"i":{"ha":297,"x_min":101,"x_max":196,"o":"m 101 0 l 101 724 l 196 724 l 196 0 l 101 0 m 101 875 l 101 1014 l 196 1014 l 196 875 l 101 875 z "},"í":{"ha":297,"x_min":94,"x_max":276,"o":"m 157 861 l 94 885 l 176 1014 l 276 1014 l 157 861 m 101 0 l 101 724 l 196 724 l 196 0 l 101 0 z "},"ĭ":{"ha":297,"x_min":13,"x_max":285,"o":"m 101 0 l 101 724 l 196 724 l 196 0 l 101 0 m 149 922 q 201 949 178 922 q 228 1014 224 975 l 285 1014 q 274 959 285 985 q 245 915 264 933 q 201 885 226 896 q 149 874 176 874 q 51 914 90 874 q 13 1014 13 954 l 71 1014 q 94 950 71 978 q 149 922 118 922 z "},"î":{"ha":297,"x_min":-22,"x_max":321,"o":"m -22 896 l 114 1014 l 183 1014 l 321 896 l 267 867 l 149 954 l 31 867 l -22 896 m 101 0 l 101 724 l 196 724 l 196 0 l 101 0 z "},"ï":{"ha":297,"x_min":6,"x_max":293,"o":"m 6 879 l 6 1010 l 86 1010 l 86 879 l 6 879 m 213 879 l 213 1010 l 293 1010 l 293 879 l 213 879 m 101 0 l 101 724 l 196 724 l 196 0 l 101 0 z "},"ì":{"ha":297,"x_min":19,"x_max":201,"o":"m 101 0 l 101 724 l 196 724 l 196 0 l 101 0 m 19 1014 l 118 1014 l 201 885 l 140 861 l 19 1014 z "},"ĳ":{"ha":594,"x_min":101,"x_max":493,"o":"m 101 0 l 101 724 l 196 724 l 196 0 l 101 0 m 101 875 l 101 1014 l 196 1014 l 196 875 l 101 875 m 281 -251 q 194 -239 235 -251 q 122 -197 154 -226 l 168 -133 q 217 -160 190 -153 q 269 -167 243 -167 q 317 -157 294 -167 q 358 -130 340 -147 q 388 -89 376 -112 q 399 -37 399 -65 l 399 724 l 493 724 l 493 -32 q 475 -121 493 -81 q 427 -190 457 -161 q 359 -235 397 -219 q 281 -251 321 -251 m 399 875 l 399 1014 l 493 1014 l 493 875 l 399 875 z "},"j":{"ha":297,"x_min":-175,"x_max":196,"o":"m -17 -251 q -103 -239 -62 -251 q -175 -197 -143 -226 l -129 -133 q -81 -160 -107 -153 q -28 -167 -54 -167 q 20 -157 -3 -167 q 61 -130 43 -147 q 90 -89 79 -112 q 101 -37 101 -65 l 101 724 l 196 724 l 196 -32 q 178 -121 196 -81 q 130 -190 160 -161 q 62 -235 100 -219 q -17 -251 24 -251 m 101 875 l 101 1014 l 196 1014 l 196 875 l 101 875 z "},"ī":{"ha":297,"x_min":-51,"x_max":350,"o":"m 101 0 l 101 724 l 196 724 l 196 0 l 101 0 m -51 921 l -51 986 l 350 986 l 350 921 l -51 921 z "},"į":{"ha":299,"x_min":25,"x_max":197,"o":"m 129 -243 q 51 -205 78 -232 q 25 -142 25 -178 q 50 -72 25 -107 q 129 0 75 -37 l 103 0 l 103 724 l 197 724 l 197 0 q 109 -69 135 -39 q 83 -129 83 -99 q 156 -190 83 -181 l 129 -243 m 103 875 l 103 1014 l 197 1014 l 197 875 l 103 875 z "},"ĩ":{"ha":297,"x_min":-71,"x_max":371,"o":"m 101 0 l 101 724 l 196 724 l 196 0 l 101 0 m 235 886 q 180 894 203 886 q 137 913 157 903 q 98 933 117 924 q 57 942 79 942 q 20 932 33 942 q -1 910 7 922 q -10 888 -8 899 q -12 875 -12 878 l -71 875 q -66 903 -71 882 q -47 947 -61 925 q -8 987 -33 969 q 56 1004 17 1004 q 106 995 85 1004 q 147 975 128 986 q 187 955 167 964 q 233 946 207 946 q 276 956 260 946 q 300 978 292 965 q 310 1001 308 990 q 313 1014 313 1011 l 371 1014 q 365 986 371 1007 q 345 943 360 965 q 303 903 331 921 q 235 886 276 886 z "},"ĵ":{"ha":297,"x_min":-175,"x_max":321,"o":"m -17 -251 q -103 -239 -62 -251 q -175 -197 -143 -226 l -129 -133 q -81 -160 -107 -153 q -28 -167 -54 -167 q 20 -157 -3 -167 q 61 -130 43 -147 q 90 -89 79 -112 q 101 -37 101 -65 l 101 724 l 196 724 l 196 -32 q 178 -121 196 -81 q 130 -190 160 -161 q 62 -235 100 -219 q -17 -251 24 -251 m -22 896 l 114 1014 l 183 1014 l 321 896 l 267 867 l 149 954 l 31 867 l -22 896 z "},"k":{"ha":732,"x_min":101,"x_max":721,"o":"m 618 0 l 351 371 l 196 226 l 196 0 l 101 0 l 101 1014 l 196 1014 l 196 325 l 603 722 l 710 722 l 414 426 l 721 0 l 618 0 z "},"ķ":{"ha":732,"x_min":101,"x_max":721,"o":"m 311 -182 q 340 -157 340 -182 l 340 -68 l 421 -68 l 421 -157 q 390 -215 421 -200 q 311 -229 360 -229 l 311 -182 m 618 0 l 351 371 l 196 226 l 196 0 l 101 0 l 101 1014 l 196 1014 l 196 325 l 603 722 l 710 722 l 414 426 l 721 0 l 618 0 z "},"ĸ":{"ha":732,"x_min":101,"x_max":721,"o":"m 618 0 l 351 371 l 196 226 l 196 0 l 101 0 l 101 724 l 196 724 l 196 325 l 603 722 l 710 722 l 414 426 l 721 0 l 618 0 z "},"l":{"ha":367,"x_min":106,"x_max":376,"o":"m 106 1014 l 200 1014 l 200 164 q 222 101 200 124 q 285 78 244 78 q 321 82 300 78 q 360 93 342 86 l 376 17 q 312 -1 350 6 q 246 -8 274 -8 q 143 28 181 -8 q 106 132 106 65 l 106 1014 z "},"ĺ":{"ha":367,"x_min":89,"x_max":376,"o":"m 151 1074 l 89 1097 l 171 1226 l 271 1226 l 151 1074 m 106 1014 l 200 1014 l 200 164 q 222 101 200 124 q 285 78 244 78 q 321 82 300 78 q 360 93 342 86 l 376 17 q 312 -1 350 6 q 246 -8 274 -8 q 143 28 181 -8 q 106 132 106 65 l 106 1014 z "},"ľ":{"ha":367,"x_min":106,"x_max":446,"o":"m 326 861 l 264 885 l 346 1014 l 446 1014 l 326 861 m 106 1014 l 200 1014 l 200 164 q 222 101 200 124 q 285 78 244 78 q 321 82 300 78 q 360 93 342 86 l 376 17 q 312 -1 350 6 q 246 -8 274 -8 q 143 28 181 -8 q 106 132 106 65 l 106 1014 z "},"ļ":{"ha":367,"x_min":106,"x_max":376,"o":"m 169 -182 q 199 -157 199 -182 l 199 -68 l 279 -68 l 279 -157 q 249 -215 279 -200 q 169 -229 218 -229 l 169 -182 m 106 1014 l 200 1014 l 200 164 q 222 101 200 124 q 285 78 244 78 q 321 82 300 78 q 360 93 342 86 l 376 17 q 312 -1 350 6 q 246 -8 274 -8 q 143 28 181 -8 q 106 132 106 65 l 106 1014 z "},"ŀ":{"ha":435,"x_min":106,"x_max":411,"o":"m 106 1014 l 200 1014 l 200 164 q 222 101 200 124 q 285 78 244 78 q 321 82 300 78 q 360 93 342 86 l 376 17 q 312 -1 350 6 q 246 -8 274 -8 q 143 28 181 -8 q 106 132 106 65 l 106 1014 m 331 365 l 331 521 l 411 521 l 411 365 l 331 365 z "},"<":{"ha":703,"x_min":47,"x_max":629,"o":"m 47 383 l 629 733 l 629 632 l 183 360 l 629 89 l 629 -15 l 47 332 l 47 383 z "},"¬":{"ha":818,"x_min":110,"x_max":719,"o":"m 719 506 l 719 175 l 636 175 l 636 419 l 110 419 l 110 506 l 719 506 z "},"ł":{"ha":394,"x_min":8,"x_max":400,"o":"m 129 471 l 40 401 l 8 456 l 129 551 l 129 1014 l 224 1014 l 224 625 l 347 724 l 379 669 l 224 546 l 224 164 q 246 101 224 124 q 308 78 268 78 q 344 82 324 78 q 383 93 365 86 l 400 17 q 335 -1 374 6 q 269 -8 297 -8 q 167 28 204 -8 q 129 132 129 65 l 129 471 z "},"m":{"ha":1272,"x_min":101,"x_max":1178,"o":"m 1178 0 l 1083 0 l 1083 404 q 1044 590 1083 531 q 924 650 1004 650 q 845 635 882 650 q 777 592 808 619 q 722 526 746 564 q 686 442 699 488 l 686 0 l 592 0 l 592 404 q 553 592 592 533 q 433 650 514 650 q 288 593 351 650 q 196 443 224 536 l 196 0 l 101 0 l 101 724 l 188 724 l 188 560 q 304 690 232 643 q 464 736 376 736 q 611 685 556 736 q 678 550 667 633 q 958 736 779 736 q 1060 714 1018 736 q 1128 651 1103 692 q 1166 552 1154 610 q 1178 424 1178 494 l 1178 0 z "},"−":{"ha":756,"x_min":97,"x_max":657,"o":"m 97 371 l 97 449 l 657 449 l 657 371 l 97 371 z "},"µ":{"ha":831,"x_min":111,"x_max":765,"o":"m 111 724 l 206 724 l 206 315 q 376 69 206 69 q 458 83 418 69 q 531 124 497 97 q 592 186 565 150 q 636 268 619 222 l 636 724 l 731 724 l 731 122 q 765 83 731 83 l 765 0 q 742 -3 751 -3 q 725 -4 733 -4 q 671 15 693 -4 q 649 64 649 35 l 649 164 q 600 94 629 126 q 535 38 571 63 q 457 0 499 14 q 372 -14 415 -14 q 263 19 304 -14 q 201 104 221 51 l 201 -294 l 111 -294 l 111 724 z "},"×":{"ha":642,"x_min":92,"x_max":550,"o":"m 550 210 l 489 150 l 321 318 l 151 150 l 92 211 l 260 378 l 93 546 l 154 606 l 321 439 l 488 607 l 547 546 l 381 378 l 550 210 z "},"n":{"ha":804,"x_min":101,"x_max":710,"o":"m 710 0 l 615 0 l 615 404 q 578 592 615 533 q 461 650 540 650 q 378 635 419 650 q 300 592 336 619 q 237 526 264 564 q 196 443 210 488 l 196 0 l 101 0 l 101 724 l 188 724 l 188 560 q 242 631 210 599 q 315 688 275 664 q 401 724 356 711 q 494 736 446 736 q 597 714 556 736 q 663 651 638 692 q 699 553 688 611 q 710 424 710 494 l 710 0 z "},"ń":{"ha":804,"x_min":101,"x_max":710,"o":"m 418 861 l 356 885 l 438 1014 l 538 1014 l 418 861 m 710 0 l 615 0 l 615 404 q 578 592 615 533 q 461 650 540 650 q 378 635 419 650 q 300 592 336 619 q 237 526 264 564 q 196 443 210 488 l 196 0 l 101 0 l 101 724 l 188 724 l 188 560 q 242 631 210 599 q 315 688 275 664 q 401 724 356 711 q 494 736 446 736 q 597 714 556 736 q 663 651 638 692 q 699 553 688 611 q 710 424 710 494 l 710 0 z "},"ŉ":{"ha":804,"x_min":-7,"x_max":710,"o":"m 56 861 l -7 885 l 46 967 l 46 1014 l 176 1014 l 56 861 m 710 0 l 615 0 l 615 404 q 578 592 615 533 q 461 650 540 650 q 378 635 419 650 q 300 592 336 619 q 237 526 264 564 q 196 443 210 488 l 196 0 l 101 0 l 101 724 l 188 724 l 188 560 q 242 631 210 599 q 315 688 275 664 q 401 724 356 711 q 494 736 446 736 q 597 714 556 736 q 663 651 638 692 q 699 553 688 611 q 710 424 710 494 l 710 0 z "},"ň":{"ha":804,"x_min":101,"x_max":710,"o":"m 290 1014 l 408 926 l 526 1014 l 581 986 l 443 867 l 374 867 l 238 986 l 290 1014 m 710 0 l 615 0 l 615 404 q 578 592 615 533 q 461 650 540 650 q 378 635 419 650 q 300 592 336 619 q 237 526 264 564 q 196 443 210 488 l 196 0 l 101 0 l 101 724 l 188 724 l 188 560 q 242 631 210 599 q 315 688 275 664 q 401 724 356 711 q 494 736 446 736 q 597 714 556 736 q 663 651 638 692 q 699 553 688 611 q 710 424 710 494 l 710 0 z "},"ņ":{"ha":804,"x_min":101,"x_max":710,"o":"m 329 -182 q 358 -157 358 -182 l 358 -68 l 439 -68 l 439 -157 q 408 -215 439 -200 q 329 -229 378 -229 l 329 -182 m 710 0 l 615 0 l 615 404 q 578 592 615 533 q 461 650 540 650 q 378 635 419 650 q 300 592 336 619 q 237 526 264 564 q 196 443 210 488 l 196 0 l 101 0 l 101 724 l 188 724 l 188 560 q 242 631 210 599 q 315 688 275 664 q 401 724 356 711 q 494 736 446 736 q 597 714 556 736 q 663 651 638 692 q 699 553 688 611 q 710 424 710 494 l 710 0 z "},"ṅ":{"ha":804,"x_min":101,"x_max":710,"o":"m 365 879 l 365 1014 l 451 1014 l 451 879 l 365 879 m 710 0 l 615 0 l 615 404 q 578 592 615 533 q 461 650 540 650 q 378 635 419 650 q 300 592 336 619 q 237 526 264 564 q 196 443 210 488 l 196 0 l 101 0 l 101 724 l 188 724 l 188 560 q 242 631 210 599 q 315 688 275 664 q 401 724 356 711 q 494 736 446 736 q 597 714 556 736 q 663 651 638 692 q 699 553 688 611 q 710 424 710 494 l 710 0 z "},"₉":{"ha":563,"x_min":47,"x_max":507,"o":"m 47 368 q 65 442 47 407 q 113 503 82 476 q 185 544 144 529 q 275 558 226 558 q 442 496 378 558 q 507 321 507 433 q 442 74 507 156 q 268 -7 376 -7 q 154 19 206 -7 q 78 92 103 44 l 117 132 q 177 74 136 96 q 269 51 218 51 q 398 109 349 51 q 447 271 447 167 q 419 233 438 250 q 378 205 401 217 q 326 187 354 193 q 271 181 299 181 q 183 195 224 181 q 112 235 142 210 q 65 294 82 260 q 47 368 47 328 m 274 501 q 210 491 240 501 q 156 462 179 481 q 120 419 133 443 q 107 368 107 394 q 121 317 107 340 q 158 275 135 293 q 211 247 181 257 q 275 236 242 236 q 340 247 310 236 q 394 275 371 257 q 430 317 417 293 q 443 368 443 340 q 429 419 443 394 q 392 462 415 443 q 339 491 369 481 q 274 501 308 501 z "},"⁹":{"ha":563,"x_min":47,"x_max":507,"o":"m 47 822 q 65 897 47 863 q 113 958 82 932 q 185 999 144 985 q 275 1014 226 1014 q 442 951 378 1014 q 507 776 507 889 q 442 528 507 610 q 268 447 376 447 q 154 474 206 447 q 78 547 103 500 l 117 586 q 177 528 136 550 q 269 506 218 506 q 398 563 349 506 q 447 726 447 621 q 419 689 438 706 q 378 660 401 672 q 326 642 354 649 q 271 635 299 635 q 183 649 224 635 q 112 690 142 664 q 65 749 82 715 q 47 822 47 783 m 274 957 q 210 947 240 957 q 156 917 179 936 q 120 874 133 899 q 107 824 107 850 q 121 772 107 796 q 158 730 135 749 q 211 701 181 711 q 275 690 242 690 q 340 701 310 690 q 394 729 371 711 q 430 772 417 747 q 443 822 443 796 q 429 874 443 849 q 392 917 415 899 q 339 946 369 935 q 274 957 308 957 z "},"ñ":{"ha":804,"x_min":101,"x_max":710,"o":"m 710 0 l 615 0 l 615 404 q 578 592 615 533 q 461 650 540 650 q 378 635 419 650 q 300 592 336 619 q 237 526 264 564 q 196 443 210 488 l 196 0 l 101 0 l 101 724 l 188 724 l 188 560 q 242 631 210 599 q 315 688 275 664 q 401 724 356 711 q 494 736 446 736 q 597 714 556 736 q 663 651 638 692 q 699 553 688 611 q 710 424 710 494 l 710 0 m 494 886 q 440 894 463 886 q 397 913 417 903 q 358 933 376 924 q 317 942 339 942 q 280 932 293 942 q 259 910 267 922 q 249 888 251 899 q 247 875 247 878 l 189 875 q 194 903 189 882 q 213 947 199 925 q 251 987 226 969 q 315 1004 276 1004 q 366 995 344 1004 q 407 975 388 986 q 447 955 426 964 q 493 946 467 946 q 535 956 519 946 q 560 978 551 965 q 570 1001 568 990 q 572 1014 572 1011 l 631 1014 q 625 986 631 1007 q 605 943 619 965 q 563 903 590 921 q 494 886 536 886 z "},"#":{"ha":950,"x_min":56,"x_max":896,"o":"m 896 635 l 715 635 l 650 363 l 836 363 l 836 288 l 632 288 l 563 0 l 482 0 l 553 288 l 290 288 l 221 0 l 140 0 l 213 288 l 56 288 l 56 363 l 229 363 l 296 635 l 114 635 l 114 706 l 314 706 l 381 986 l 461 986 l 392 706 l 654 706 l 722 986 l 803 986 l 733 706 l 896 706 l 896 635 m 571 363 l 638 635 l 374 635 l 308 363 l 571 363 z "},"o":{"ha":826,"x_min":54,"x_max":774,"o":"m 414 -14 q 269 16 335 -14 q 155 97 203 46 q 81 217 107 149 q 54 360 54 285 q 81 504 54 436 q 156 624 108 572 q 270 706 204 675 q 414 736 336 736 q 558 706 492 736 q 672 624 624 675 q 747 504 719 572 q 774 360 774 436 q 747 217 774 285 q 672 97 719 149 q 558 16 624 46 q 414 -14 492 -14 m 151 358 q 172 245 151 297 q 227 153 192 193 q 310 92 263 114 q 413 69 358 69 q 515 92 467 69 q 599 155 563 115 q 656 247 635 194 q 676 361 676 300 q 656 474 676 421 q 599 567 635 528 q 515 630 563 607 q 414 653 468 653 q 312 630 360 653 q 228 567 264 607 q 172 473 193 526 q 151 358 151 419 z "},"ó":{"ha":826,"x_min":54,"x_max":774,"o":"m 422 861 l 360 885 l 442 1014 l 542 1014 l 422 861 m 414 -14 q 269 16 335 -14 q 155 97 203 46 q 81 217 107 149 q 54 360 54 285 q 81 504 54 436 q 156 624 108 572 q 270 706 204 675 q 414 736 336 736 q 558 706 492 736 q 672 624 624 675 q 747 504 719 572 q 774 360 774 436 q 747 217 774 285 q 672 97 719 149 q 558 16 624 46 q 414 -14 492 -14 m 151 358 q 172 245 151 297 q 227 153 192 193 q 310 92 263 114 q 413 69 358 69 q 515 92 467 69 q 599 155 563 115 q 656 247 635 194 q 676 361 676 300 q 656 474 676 421 q 599 567 635 528 q 515 630 563 607 q 414 653 468 653 q 312 630 360 653 q 228 567 264 607 q 172 473 193 526 q 151 358 151 419 z "},"ŏ":{"ha":826,"x_min":54,"x_max":774,"o":"m 414 -14 q 269 16 335 -14 q 155 97 203 46 q 81 217 107 149 q 54 360 54 285 q 81 504 54 436 q 156 624 108 572 q 270 706 204 675 q 414 736 336 736 q 558 706 492 736 q 672 624 624 675 q 747 504 719 572 q 774 360 774 436 q 747 217 774 285 q 672 97 719 149 q 558 16 624 46 q 414 -14 492 -14 m 151 358 q 172 245 151 297 q 227 153 192 193 q 310 92 263 114 q 413 69 358 69 q 515 92 467 69 q 599 155 563 115 q 656 247 635 194 q 676 361 676 300 q 656 474 676 421 q 599 567 635 528 q 515 630 563 607 q 414 653 468 653 q 312 630 360 653 q 228 567 264 607 q 172 473 193 526 q 151 358 151 419 m 414 922 q 466 949 443 922 q 493 1014 489 975 l 550 1014 q 540 959 550 985 q 510 915 529 933 q 467 885 492 896 q 414 874 442 874 q 317 914 356 874 q 278 1014 278 954 l 336 1014 q 360 950 336 978 q 414 922 383 922 z "},"ô":{"ha":826,"x_min":54,"x_max":774,"o":"m 242 896 l 378 1014 l 447 1014 l 585 896 l 531 867 l 413 954 l 294 867 l 242 896 m 414 -14 q 269 16 335 -14 q 155 97 203 46 q 81 217 107 149 q 54 360 54 285 q 81 504 54 436 q 156 624 108 572 q 270 706 204 675 q 414 736 336 736 q 558 706 492 736 q 672 624 624 675 q 747 504 719 572 q 774 360 774 436 q 747 217 774 285 q 672 97 719 149 q 558 16 624 46 q 414 -14 492 -14 m 151 358 q 172 245 151 297 q 227 153 192 193 q 310 92 263 114 q 413 69 358 69 q 515 92 467 69 q 599 155 563 115 q 656 247 635 194 q 676 361 676 300 q 656 474 676 421 q 599 567 635 528 q 515 630 563 607 q 414 653 468 653 q 312 630 360 653 q 228 567 264 607 q 172 473 193 526 q 151 358 151 419 z "},"ö":{"ha":826,"x_min":54,"x_max":774,"o":"m 269 879 l 269 1010 l 350 1010 l 350 879 l 269 879 m 476 879 l 476 1010 l 557 1010 l 557 879 l 476 879 m 414 -14 q 269 16 335 -14 q 155 97 203 46 q 81 217 107 149 q 54 360 54 285 q 81 504 54 436 q 156 624 108 572 q 270 706 204 675 q 414 736 336 736 q 558 706 492 736 q 672 624 624 675 q 747 504 719 572 q 774 360 774 436 q 747 217 774 285 q 672 97 719 149 q 558 16 624 46 q 414 -14 492 -14 m 151 358 q 172 245 151 297 q 227 153 192 193 q 310 92 263 114 q 413 69 358 69 q 515 92 467 69 q 599 155 563 115 q 656 247 635 194 q 676 361 676 300 q 656 474 676 421 q 599 567 635 528 q 515 630 563 607 q 414 653 468 653 q 312 630 360 653 q 228 567 264 607 q 172 473 193 526 q 151 358 151 419 z "},"œ":{"ha":1439,"x_min":56,"x_max":1396,"o":"m 413 -14 q 271 15 336 -14 q 158 94 206 44 q 83 213 110 144 q 56 358 56 281 q 83 507 56 438 q 159 627 111 576 q 273 707 207 678 q 414 736 339 736 q 603 674 521 736 q 724 507 686 613 q 844 676 763 615 q 1038 736 925 736 q 1177 709 1114 736 q 1287 633 1240 682 q 1362 515 1333 585 q 1396 361 1390 446 q 1396 344 1396 356 q 1394 328 1396 332 l 776 328 q 804 222 781 271 q 865 136 828 172 q 951 79 903 100 q 1054 58 1000 58 q 1127 68 1092 58 q 1192 94 1163 78 q 1244 135 1222 111 q 1278 189 1267 160 l 1357 167 q 1308 93 1339 126 q 1235 36 1276 60 q 1147 -1 1194 13 q 1050 -14 1100 -14 q 949 2 997 -14 q 858 48 900 18 q 782 119 817 78 q 725 213 747 161 q 598 47 679 107 q 413 -14 517 -14 m 414 69 q 517 92 469 69 q 601 153 565 114 q 656 246 636 193 q 676 360 676 299 q 656 474 676 421 q 601 567 636 528 q 517 630 565 607 q 415 653 469 653 q 313 630 361 653 q 228 567 264 607 q 172 472 193 526 q 151 357 151 418 q 172 243 151 296 q 227 152 192 190 q 310 92 263 114 q 414 69 358 69 m 1304 392 q 1277 501 1300 451 q 1218 586 1254 550 q 1135 642 1182 622 q 1035 663 1088 663 q 935 642 982 663 q 855 586 889 622 q 799 500 821 550 q 775 392 778 450 l 1304 392 z "},"ò":{"ha":826,"x_min":54,"x_max":774,"o":"m 414 -14 q 269 16 335 -14 q 155 97 203 46 q 81 217 107 149 q 54 360 54 285 q 81 504 54 436 q 156 624 108 572 q 270 706 204 675 q 414 736 336 736 q 558 706 492 736 q 672 624 624 675 q 747 504 719 572 q 774 360 774 436 q 747 217 774 285 q 672 97 719 149 q 558 16 624 46 q 414 -14 492 -14 m 151 358 q 172 245 151 297 q 227 153 192 193 q 310 92 263 114 q 413 69 358 69 q 515 92 467 69 q 599 155 563 115 q 656 247 635 194 q 676 361 676 300 q 656 474 676 421 q 599 567 635 528 q 515 630 563 607 q 414 653 468 653 q 312 630 360 653 q 228 567 264 607 q 172 473 193 526 q 151 358 151 419 m 285 1014 l 383 1014 l 467 885 l 406 861 l 285 1014 z "},"ő":{"ha":826,"x_min":54,"x_max":774,"o":"m 325 861 l 274 885 l 353 1014 l 442 1014 l 325 861 m 500 861 l 447 885 l 526 1014 l 615 1014 l 500 861 m 414 -14 q 269 16 335 -14 q 155 97 203 46 q 81 217 107 149 q 54 360 54 285 q 81 504 54 436 q 156 624 108 572 q 270 706 204 675 q 414 736 336 736 q 558 706 492 736 q 672 624 624 675 q 747 504 719 572 q 774 360 774 436 q 747 217 774 285 q 672 97 719 149 q 558 16 624 46 q 414 -14 492 -14 m 151 358 q 172 245 151 297 q 227 153 192 193 q 310 92 263 114 q 413 69 358 69 q 515 92 467 69 q 599 155 563 115 q 656 247 635 194 q 676 361 676 300 q 656 474 676 421 q 599 567 635 528 q 515 630 563 607 q 414 653 468 653 q 312 630 360 653 q 228 567 264 607 q 172 473 193 526 q 151 358 151 419 z "},"ō":{"ha":826,"x_min":54,"x_max":774,"o":"m 214 921 l 214 986 l 615 986 l 615 921 l 214 921 m 414 -14 q 269 16 335 -14 q 155 97 203 46 q 81 217 107 149 q 54 360 54 285 q 81 504 54 436 q 156 624 108 572 q 270 706 204 675 q 414 736 336 736 q 558 706 492 736 q 672 624 624 675 q 747 504 719 572 q 774 360 774 436 q 747 217 774 285 q 672 97 719 149 q 558 16 624 46 q 414 -14 492 -14 m 151 358 q 172 245 151 297 q 227 153 192 193 q 310 92 263 114 q 413 69 358 69 q 515 92 467 69 q 599 155 563 115 q 656 247 635 194 q 676 361 676 300 q 656 474 676 421 q 599 567 635 528 q 515 630 563 607 q 414 653 468 653 q 312 630 360 653 q 228 567 264 607 q 172 473 193 526 q 151 358 151 419 z "},"⅛":{"ha":1201,"x_min":67,"x_max":1144,"o":"m 1144 154 q 1126 88 1144 118 q 1078 38 1108 58 q 1006 5 1047 17 q 919 -7 965 -7 q 831 6 871 -7 q 761 42 790 19 q 715 94 732 64 q 699 157 699 124 q 710 206 699 183 q 739 247 721 229 q 780 276 757 264 q 826 297 803 289 q 753 341 785 313 q 721 413 721 369 q 739 472 721 446 q 785 517 757 499 q 850 544 814 535 q 922 554 886 554 q 994 544 958 554 q 1059 517 1031 535 q 1105 473 1088 499 q 1122 414 1122 447 q 1091 342 1122 371 q 1015 297 1060 313 q 1108 243 1071 279 q 1144 154 1144 207 m 1082 161 q 1067 206 1082 186 q 1030 240 1053 226 q 978 262 1007 254 q 921 269 950 269 q 863 262 892 269 q 811 240 833 254 q 775 205 789 225 q 761 160 761 185 q 776 115 761 135 q 813 82 790 96 q 865 61 836 68 q 922 54 894 54 q 981 62 951 54 q 1032 83 1010 69 q 1068 117 1054 97 q 1082 161 1082 136 m 783 407 q 796 370 783 386 q 828 343 808 354 q 872 326 847 332 q 921 321 897 321 q 971 327 946 321 q 1016 344 996 333 q 1049 372 1036 356 q 1061 408 1061 388 q 1049 445 1061 429 q 1017 472 1038 461 q 972 490 997 483 q 921 496 947 496 q 869 490 893 496 q 825 472 844 483 q 794 444 806 460 q 783 407 783 428 m 367 515 l 367 453 l 86 453 l 86 515 l 199 515 l 199 944 q 176 924 192 936 q 142 902 161 913 q 103 884 124 892 q 67 876 83 876 l 67 939 q 112 950 89 939 q 154 975 135 961 q 186 1001 174 989 q 199 1015 199 1014 l 263 1015 l 263 515 l 367 515 m 160 38 l 549 510 l 925 992 l 974 950 l 588 478 l 208 -6 l 160 38 z "},"¹":{"ha":378,"x_min":47,"x_max":347,"o":"m 347 515 l 347 453 l 67 453 l 67 515 l 179 515 l 179 944 q 157 924 172 936 q 123 902 142 913 q 84 884 104 892 q 47 876 64 876 l 47 939 q 92 950 69 939 q 135 975 115 961 q 167 1001 154 989 q 179 1015 179 1014 l 243 1015 l 243 515 l 347 515 z "},"½":{"ha":1207,"x_min":68,"x_max":1147,"o":"m 722 0 q 733 94 722 54 q 765 164 743 133 q 818 217 786 194 q 893 256 850 239 q 956 279 924 268 q 1016 306 989 290 q 1060 344 1043 322 q 1078 397 1078 365 q 1044 471 1078 440 q 940 501 1010 501 q 879 494 907 501 q 831 474 851 486 q 794 449 810 463 q 768 424 778 435 l 728 468 q 750 490 733 475 q 794 522 767 506 q 860 549 821 538 q 949 561 899 561 q 1097 514 1047 561 q 1146 396 1146 467 q 1126 324 1146 353 q 1078 275 1107 294 q 1017 243 1050 256 q 957 222 985 231 q 881 188 911 207 q 834 146 851 168 q 809 101 817 124 q 801 61 801 79 l 1147 61 l 1147 0 l 722 0 m 368 515 l 368 453 l 88 453 l 88 515 l 200 515 l 200 944 q 178 924 193 936 q 144 902 163 913 q 105 884 125 892 q 68 876 85 876 l 68 939 q 113 950 90 939 q 156 975 136 961 q 188 1001 175 989 q 200 1015 200 1014 l 264 1015 l 264 515 l 368 515 m 140 38 l 529 510 l 906 992 l 954 950 l 568 478 l 189 -6 l 140 38 z "},"₂":{"ha":544,"x_min":50,"x_max":486,"o":"m 50 0 q 60 94 50 54 q 93 164 71 133 q 148 217 115 194 q 225 256 181 239 q 290 279 257 268 q 351 306 324 290 q 397 344 379 322 q 415 397 415 365 q 380 471 415 440 q 274 501 344 501 q 211 494 239 501 q 161 474 183 486 q 123 449 139 463 q 97 424 107 435 l 56 468 q 78 490 61 475 q 124 522 96 506 q 191 549 151 538 q 282 561 231 561 q 434 514 383 561 q 485 396 485 467 q 465 324 485 353 q 417 275 446 294 q 353 243 388 256 q 290 222 319 231 q 213 188 244 207 q 164 146 182 168 q 138 101 146 124 q 131 61 131 79 l 486 61 l 486 0 l 50 0 z "},"₁":{"ha":397,"x_min":47,"x_max":368,"o":"m 368 61 l 368 0 l 67 0 l 67 61 l 190 61 l 190 490 q 166 469 182 481 q 129 448 150 458 q 87 431 108 438 q 47 424 65 424 l 47 485 q 96 497 71 485 q 142 522 121 508 q 176 549 163 536 q 190 563 190 561 l 253 563 l 253 61 l 368 61 z "},"¼":{"ha":1153,"x_min":64,"x_max":1099,"o":"m 957 0 l 957 143 l 640 143 l 640 201 l 976 554 l 1019 554 l 1019 204 l 1099 204 l 1099 143 l 1019 143 l 1019 0 l 957 0 m 707 204 l 958 204 l 958 469 l 707 204 m 364 515 l 364 453 l 83 453 l 83 515 l 196 515 l 196 944 q 174 924 189 936 q 140 902 158 913 q 101 884 121 892 q 64 876 81 876 l 64 939 q 109 950 86 939 q 151 975 132 961 q 183 1001 171 989 q 196 1015 196 1014 l 260 1015 l 260 515 l 364 515 m 186 38 l 575 510 l 951 992 l 1000 950 l 614 478 l 235 -6 l 186 38 z "},"⅓":{"ha":1204,"x_min":68,"x_max":1147,"o":"m 922 -7 q 776 26 835 -7 q 707 117 718 58 l 744 156 q 760 121 746 139 q 797 88 774 103 q 853 64 821 74 q 922 54 885 54 q 1037 81 990 54 q 1083 153 1083 108 q 1028 229 1083 201 q 876 257 972 257 l 844 257 l 844 313 l 876 313 q 1014 335 964 313 q 1064 406 1064 358 q 1052 446 1064 428 q 1020 477 1040 464 q 973 497 1000 490 q 917 504 946 504 q 817 483 858 504 q 756 426 776 461 l 713 474 q 794 538 738 514 q 917 561 850 561 q 1001 549 963 561 q 1069 517 1040 538 q 1115 469 1099 497 q 1131 410 1131 442 q 1004 286 1131 314 q 1109 237 1071 276 q 1147 144 1147 197 q 1129 81 1147 108 q 1080 33 1111 53 q 1008 3 1049 14 q 922 -7 968 -7 m 368 515 l 368 453 l 88 453 l 88 515 l 200 515 l 200 944 q 178 924 193 936 q 144 902 163 913 q 105 884 125 892 q 68 876 85 876 l 68 939 q 113 950 90 939 q 156 975 136 961 q 188 1001 175 989 q 200 1015 200 1014 l 264 1015 l 264 515 l 368 515 m 143 38 l 532 510 l 908 992 l 957 950 l 571 478 l 192 -6 l 143 38 z "},"₃":{"ha":544,"x_min":50,"x_max":490,"o":"m 265 -7 q 119 26 178 -7 q 50 117 61 58 l 88 156 q 103 121 89 139 q 140 88 117 103 q 196 64 164 74 q 265 54 228 54 q 380 81 333 54 q 426 153 426 108 q 371 229 426 201 q 219 257 315 257 l 188 257 l 188 313 l 219 313 q 357 335 307 313 q 407 406 407 358 q 395 446 407 428 q 363 477 383 464 q 316 497 343 490 q 260 504 289 504 q 160 483 201 504 q 99 426 119 461 l 56 474 q 137 538 81 514 q 260 561 193 561 q 344 549 306 561 q 413 517 383 538 q 458 469 442 497 q 474 410 474 442 q 347 286 474 314 q 452 237 414 276 q 490 144 490 197 q 472 81 490 108 q 423 33 454 53 q 351 3 392 14 q 265 -7 311 -7 z "},"ǫ":{"ha":829,"x_min":56,"x_max":775,"o":"m 403 -251 q 325 -213 351 -240 q 299 -150 299 -186 q 322 -83 299 -117 q 396 -14 344 -50 q 258 22 321 -10 q 150 103 194 53 q 81 220 106 154 q 56 360 56 286 q 83 504 56 436 q 158 624 110 572 q 272 706 206 675 q 415 736 338 736 q 559 706 493 736 q 673 624 625 675 q 748 504 721 572 q 775 360 775 436 q 752 228 775 290 q 689 115 729 165 q 592 33 649 65 q 468 -10 536 0 q 382 -78 407 -49 q 357 -137 357 -107 q 429 -199 357 -189 l 403 -251 m 153 358 q 173 245 153 297 q 228 153 193 193 q 312 92 264 114 q 414 69 360 69 q 516 92 468 69 q 600 155 564 115 q 657 247 636 194 q 678 361 678 300 q 657 474 678 421 q 600 567 636 528 q 517 630 564 607 q 415 653 469 653 q 313 630 361 653 q 230 567 265 607 q 174 473 194 526 q 153 358 153 419 z "},"ª":{"ha":603,"x_min":65,"x_max":522,"o":"m 231 481 q 165 492 196 481 q 113 525 135 504 q 78 574 90 546 q 65 633 65 601 q 81 694 65 667 q 124 742 96 722 q 189 774 151 763 q 272 785 226 785 q 348 778 311 785 q 414 760 385 772 l 414 799 q 378 893 414 858 q 281 928 343 928 q 122 871 208 928 l 94 922 q 288 986 192 986 q 440 935 385 986 q 496 790 496 885 l 496 592 q 522 561 496 563 l 522 489 q 505 487 513 488 q 490 486 497 486 q 445 499 463 486 q 426 536 428 513 l 425 571 q 340 503 390 526 q 231 481 289 481 m 253 543 q 310 551 282 543 q 362 573 339 560 q 399 603 385 586 q 414 639 414 621 l 414 711 q 351 728 385 724 q 286 733 318 733 q 183 708 222 733 q 143 639 143 682 q 174 571 143 599 q 253 543 206 543 z "},"º":{"ha":622,"x_min":61,"x_max":561,"o":"m 311 481 q 210 501 256 481 q 131 557 164 522 q 79 638 97 592 q 61 733 61 683 q 79 831 61 785 q 131 911 97 876 q 210 966 164 946 q 311 986 256 986 q 413 966 367 986 q 492 911 458 946 q 543 831 525 876 q 561 733 561 785 q 543 638 561 683 q 492 557 525 592 q 413 501 458 522 q 311 481 367 481 m 144 732 q 158 661 144 694 q 193 603 171 628 q 246 565 215 579 q 311 551 276 551 q 376 566 346 551 q 428 606 406 581 q 465 664 451 631 q 478 735 478 697 q 465 806 478 772 q 428 863 451 839 q 376 900 406 886 q 311 914 346 914 q 247 900 276 914 q 194 862 217 886 q 158 804 171 838 q 144 732 144 771 z "},"ø":{"ha":826,"x_min":54,"x_max":774,"o":"m 183 69 q 88 197 122 122 q 54 360 54 272 q 81 504 54 436 q 156 624 108 572 q 270 706 204 675 q 414 736 336 736 q 513 722 467 736 q 600 683 560 708 l 632 726 l 697 726 l 642 651 q 739 523 704 599 q 774 360 774 447 q 747 217 774 285 q 672 97 719 149 q 558 16 624 46 q 414 -14 492 -14 q 312 0 360 -14 q 224 39 264 14 l 193 -1 l 129 -1 l 183 69 m 151 358 q 175 236 151 292 q 239 140 199 181 l 550 610 q 485 641 519 629 q 414 653 450 653 q 312 630 360 653 q 228 567 264 607 q 172 473 193 526 q 151 358 151 419 m 413 69 q 515 92 467 69 q 599 155 563 115 q 656 247 635 194 q 676 361 676 300 q 652 483 676 426 q 588 579 628 539 l 276 111 q 413 69 338 69 z "},"ǿ":{"ha":826,"x_min":54,"x_max":774,"o":"m 183 69 q 88 197 122 122 q 54 360 54 272 q 81 504 54 436 q 156 624 108 572 q 270 706 204 675 q 414 736 336 736 q 513 722 467 736 q 600 683 560 708 l 632 726 l 697 726 l 642 651 q 739 523 704 599 q 774 360 774 447 q 747 217 774 285 q 672 97 719 149 q 558 16 624 46 q 414 -14 492 -14 q 312 0 360 -14 q 224 39 264 14 l 193 -1 l 129 -1 l 183 69 m 151 358 q 175 236 151 292 q 239 140 199 181 l 550 610 q 485 641 519 629 q 414 653 450 653 q 312 630 360 653 q 228 567 264 607 q 172 473 193 526 q 151 358 151 419 m 413 69 q 515 92 467 69 q 599 155 563 115 q 656 247 635 194 q 676 361 676 300 q 652 483 676 426 q 588 579 628 539 l 276 111 q 413 69 338 69 m 422 861 l 360 885 l 442 1014 l 542 1014 l 422 861 z "},"õ":{"ha":826,"x_min":54,"x_max":774,"o":"m 414 -14 q 269 16 335 -14 q 155 97 203 46 q 81 217 107 149 q 54 360 54 285 q 81 504 54 436 q 156 624 108 572 q 270 706 204 675 q 414 736 336 736 q 558 706 492 736 q 672 624 624 675 q 747 504 719 572 q 774 360 774 436 q 747 217 774 285 q 672 97 719 149 q 558 16 624 46 q 414 -14 492 -14 m 151 358 q 172 245 151 297 q 227 153 192 193 q 310 92 263 114 q 413 69 358 69 q 515 92 467 69 q 599 155 563 115 q 656 247 635 194 q 676 361 676 300 q 656 474 676 421 q 599 567 635 528 q 515 630 563 607 q 414 653 468 653 q 312 630 360 653 q 228 567 264 607 q 172 473 193 526 q 151 358 151 419 m 500 886 q 445 894 468 886 q 402 913 422 903 q 363 933 382 924 q 322 942 344 942 q 285 932 299 942 q 265 910 272 922 q 255 888 257 899 q 253 875 253 878 l 194 875 q 199 903 194 882 q 218 947 204 925 q 257 987 232 969 q 321 1004 282 1004 q 372 995 350 1004 q 413 975 393 986 q 452 955 432 964 q 499 946 472 946 q 541 956 525 946 q 565 978 557 965 q 576 1001 574 990 q 578 1014 578 1011 l 636 1014 q 631 986 636 1007 q 610 943 625 965 q 569 903 596 921 q 500 886 542 886 z "},"p":{"ha":854,"x_min":101,"x_max":800,"o":"m 472 -14 q 310 33 381 -14 q 196 150 239 79 l 196 -296 l 101 -296 l 101 724 l 186 724 l 186 583 q 301 694 231 651 q 456 736 372 736 q 594 705 531 736 q 703 622 657 674 q 774 501 749 569 q 800 361 800 433 q 776 217 800 285 q 709 97 753 149 q 605 16 665 46 q 472 -14 544 -14 m 446 69 q 551 94 504 69 q 633 160 599 119 q 685 253 667 201 q 703 361 703 306 q 682 472 703 419 q 625 565 661 525 q 540 629 589 606 q 433 653 490 653 q 358 638 397 653 q 285 599 319 624 q 226 542 250 575 q 196 474 201 510 l 196 251 q 238 179 213 213 q 297 122 264 146 q 367 83 329 97 q 446 69 406 69 z "},"¶":{"ha":832,"x_min":50,"x_max":776,"o":"m 50 651 q 153 898 50 810 q 442 986 256 986 l 776 986 l 776 911 l 679 911 l 679 -111 l 596 -111 l 596 321 l 493 321 l 493 -111 l 411 -111 l 411 321 q 261 345 328 322 q 147 411 194 368 q 75 515 100 454 q 50 651 50 575 m 132 654 q 154 542 132 589 q 215 463 176 494 q 303 415 253 432 q 411 396 354 399 l 411 911 q 203 841 275 910 q 132 654 132 772 m 596 911 l 493 911 l 493 396 l 596 396 l 596 911 z "},"(":{"ha":372,"x_min":61,"x_max":328,"o":"m 61 481 q 76 620 61 551 q 118 756 92 689 q 180 891 144 824 q 256 1026 215 958 l 328 992 q 267 889 299 950 q 210 758 236 828 q 167 616 185 689 q 150 476 150 543 q 197 240 150 368 q 326 -14 244 111 l 256 -51 q 115 213 168 79 q 61 481 61 347 z "},")":{"ha":372,"x_min":44,"x_max":311,"o":"m 311 481 q 258 213 311 347 q 117 -51 204 79 l 46 -14 q 175 240 128 111 q 222 476 222 368 q 205 616 222 543 q 161 758 188 689 q 103 889 135 828 q 44 992 72 950 l 117 1026 q 192 891 157 958 q 254 756 228 824 q 296 620 281 689 q 311 481 311 551 z "},"%":{"ha":1006,"x_min":63,"x_max":943,"o":"m 269 601 q 189 617 226 601 q 123 659 151 632 q 78 722 94 686 q 63 800 63 758 q 78 878 63 842 q 123 941 94 914 q 189 984 151 968 q 269 1000 226 1000 q 351 984 313 1000 q 417 941 389 968 q 461 878 444 914 q 478 800 478 842 q 461 722 478 758 q 417 659 444 686 q 351 617 389 632 q 269 601 313 601 m 269 656 q 324 667 299 656 q 367 699 349 679 q 397 745 386 719 q 407 800 407 771 q 396 857 407 831 q 365 903 385 883 q 321 933 346 922 q 269 944 296 944 q 217 933 242 944 q 173 901 192 921 q 144 855 154 881 q 133 800 133 829 q 144 744 133 771 q 174 698 156 718 q 217 667 193 678 q 269 656 242 656 m 736 -14 q 656 1 693 -14 q 590 44 618 17 q 545 108 561 71 q 529 186 529 144 q 545 264 529 228 q 590 327 561 300 q 656 369 618 354 q 736 385 693 385 q 817 369 779 385 q 883 327 854 354 q 927 264 911 300 q 943 186 943 228 q 927 108 943 144 q 883 44 911 71 q 817 1 854 17 q 736 -14 779 -14 m 736 42 q 790 53 765 42 q 833 85 814 65 q 862 131 851 104 q 872 186 872 157 q 861 242 872 215 q 831 288 850 268 q 788 319 813 308 q 736 331 763 331 q 683 319 707 331 q 640 287 658 307 q 610 241 621 267 q 600 186 600 215 q 640 83 600 125 q 736 42 679 42 m 96 38 l 485 510 l 861 992 l 910 950 l 524 478 l 144 -6 l 96 38 z "},".":{"ha":263,"x_min":92,"x_max":172,"o":"m 92 0 l 92 136 l 172 136 l 172 0 l 92 0 z "},"‰":{"ha":1486,"x_min":68,"x_max":1439,"o":"m 276 601 q 195 617 233 601 q 129 659 157 632 q 85 722 101 686 q 68 800 68 758 q 85 878 68 842 q 129 941 101 914 q 195 984 157 968 q 276 1000 233 1000 q 357 984 319 1000 q 423 941 394 968 q 467 878 451 914 q 483 800 483 842 q 467 722 483 758 q 423 659 451 686 q 357 617 394 632 q 276 601 319 601 m 276 656 q 329 667 304 656 q 373 699 354 679 q 402 745 392 719 q 413 800 413 771 q 401 857 413 831 q 372 903 390 883 q 328 933 353 922 q 276 944 303 944 q 222 933 247 944 q 178 901 197 921 q 149 855 160 881 q 139 800 139 829 q 150 744 139 771 q 180 698 161 718 q 224 667 199 678 q 276 656 249 656 m 742 -14 q 661 1 699 -14 q 595 44 624 17 q 551 108 567 71 q 535 186 535 144 q 551 264 535 228 q 595 327 567 300 q 661 369 624 354 q 742 385 699 385 q 823 369 785 385 q 889 327 861 354 q 933 264 917 300 q 950 186 950 228 q 933 108 950 144 q 889 44 917 71 q 823 1 861 17 q 742 -14 785 -14 m 742 42 q 796 53 771 42 q 840 85 821 65 q 869 131 858 104 q 879 186 879 157 q 868 242 879 215 q 838 288 857 268 q 793 319 818 308 q 742 331 768 331 q 689 319 714 331 q 645 287 664 307 q 616 241 626 267 q 606 186 606 215 q 617 129 606 156 q 647 83 628 103 q 690 53 665 64 q 742 42 714 42 m 1232 -14 q 1151 1 1189 -14 q 1085 44 1113 17 q 1040 108 1057 71 q 1024 186 1024 144 q 1040 264 1024 228 q 1085 327 1057 300 q 1151 369 1113 354 q 1232 385 1189 385 q 1313 369 1275 385 q 1378 327 1350 354 q 1423 264 1407 300 q 1439 186 1439 228 q 1423 108 1439 144 q 1378 44 1407 71 q 1313 1 1350 17 q 1232 -14 1275 -14 m 1232 42 q 1285 53 1260 42 q 1328 85 1310 65 q 1358 131 1347 104 q 1368 186 1368 157 q 1357 242 1368 215 q 1327 288 1346 268 q 1283 319 1308 308 q 1232 331 1258 331 q 1178 319 1203 331 q 1134 287 1153 307 q 1105 241 1115 267 q 1094 186 1094 215 q 1106 129 1094 156 q 1135 83 1117 103 q 1179 53 1154 64 q 1232 42 1204 42 m 101 38 l 490 510 l 867 992 l 915 950 l 529 478 l 150 -6 l 101 38 z "},"+":{"ha":581,"x_min":74,"x_max":507,"o":"m 507 532 l 507 454 l 333 454 l 333 267 l 247 267 l 247 454 l 74 454 l 74 532 l 247 532 l 247 719 l 333 719 l 333 532 l 507 532 z "},"±":{"ha":639,"x_min":96,"x_max":544,"o":"m 96 85 l 96 164 l 544 164 l 544 85 l 96 85 m 544 546 l 544 467 l 363 467 l 363 272 l 276 272 l 276 467 l 96 467 l 96 546 l 276 546 l 276 740 l 363 740 l 363 546 l 544 546 z "},"q":{"ha":854,"x_min":54,"x_max":786,"o":"m 382 -14 q 248 17 308 -14 q 144 101 188 49 q 78 220 101 153 q 54 361 54 288 q 81 504 54 436 q 153 624 107 572 q 263 706 200 675 q 399 736 326 736 q 555 692 483 736 q 668 582 626 649 l 668 724 l 753 724 l 753 -169 q 786 -210 753 -208 l 786 -292 q 746 -296 767 -296 q 684 -271 710 -296 q 658 -210 658 -246 l 658 150 q 535 28 606 69 q 382 -14 465 -14 m 411 69 q 491 83 454 69 q 559 120 528 97 q 615 174 590 143 q 658 240 639 206 l 658 464 q 629 535 653 501 q 572 596 606 569 q 497 638 538 622 q 418 653 457 653 q 310 628 360 653 q 226 562 261 603 q 171 468 190 521 q 151 360 151 415 q 171 249 151 301 q 224 156 190 196 q 306 93 258 117 q 411 69 354 69 z "},"?":{"ha":665,"x_min":49,"x_max":610,"o":"m 215 281 q 244 426 215 372 q 333 517 272 481 q 394 551 361 533 q 457 593 428 568 q 506 653 486 618 q 526 739 526 688 q 510 818 526 785 q 468 874 494 851 q 408 908 442 897 q 338 919 374 919 q 203 878 263 919 q 114 778 144 838 l 49 819 q 99 896 68 863 q 167 952 129 929 q 249 987 206 975 q 339 999 293 999 q 439 983 390 999 q 526 933 488 967 q 587 850 564 900 q 610 733 610 800 q 594 640 610 678 q 551 574 578 601 q 491 526 525 546 q 422 486 457 506 q 375 458 397 472 q 335 420 353 443 q 306 364 317 397 q 296 281 296 331 l 215 281 m 217 0 l 217 149 l 299 149 l 299 0 l 217 0 z "},"¿":{"ha":656,"x_min":50,"x_max":611,"o":"m 444 422 q 416 276 444 331 q 326 186 388 222 q 265 152 299 169 q 203 110 232 135 q 153 50 174 85 q 133 -36 133 15 q 149 -115 133 -82 q 192 -172 165 -149 q 252 -206 218 -194 q 322 -217 286 -217 q 456 -176 397 -217 q 546 -75 515 -135 l 611 -117 q 561 -193 592 -160 q 492 -249 531 -226 q 410 -284 454 -272 q 321 -296 367 -296 q 221 -280 269 -296 q 134 -231 172 -264 q 73 -147 96 -197 q 50 -31 50 -97 q 66 63 50 25 q 108 129 82 101 q 168 177 135 157 q 238 217 201 197 q 285 245 263 231 q 325 283 307 260 q 353 339 343 306 q 364 422 364 372 l 444 422 m 443 703 l 443 554 l 361 554 l 361 703 l 443 703 z "},"\"":{"ha":389,"x_min":86,"x_max":301,"o":"m 86 818 l 86 994 l 169 994 l 169 818 l 86 818 m 219 818 l 219 994 l 301 994 l 301 818 l 219 818 z "},"„":{"ha":447,"x_min":76,"x_max":349,"o":"m 76 -21 q 96 -15 86 -21 q 106 8 106 -10 l 106 136 l 186 136 l 186 -6 q 176 -46 186 -29 q 151 -73 167 -62 q 115 -88 135 -83 q 76 -93 96 -93 l 76 -21 m 239 -21 q 258 -15 249 -21 q 268 8 268 -10 l 268 136 l 349 136 l 349 -6 q 339 -46 349 -29 q 313 -73 329 -62 q 278 -88 297 -83 q 239 -93 258 -93 l 239 -21 z "},"‚":{"ha":285,"x_min":76,"x_max":186,"o":"m 76 -21 q 96 -15 86 -21 q 106 8 106 -10 l 106 136 l 186 136 l 186 -6 q 176 -46 186 -29 q 151 -73 167 -62 q 115 -88 135 -83 q 76 -93 96 -93 l 76 -21 z "},"“":{"ha":453,"x_min":81,"x_max":368,"o":"m 190 758 q 150 763 169 758 q 115 778 131 768 q 90 806 100 789 q 81 847 81 824 l 81 1014 l 161 1014 l 161 860 q 171 836 161 842 q 190 831 181 831 l 190 758 m 368 758 q 328 763 347 758 q 293 778 308 768 q 268 806 278 789 q 258 847 258 824 l 258 1014 l 339 1014 l 339 860 q 349 836 339 842 q 368 831 358 831 l 368 758 z "},"‘":{"ha":275,"x_min":81,"x_max":190,"o":"m 190 758 q 150 763 169 758 q 115 778 131 768 q 90 806 100 789 q 81 847 81 824 l 81 1014 l 161 1014 l 161 860 q 171 836 161 842 q 190 831 181 831 l 190 758 z "},"”":{"ha":453,"x_min":74,"x_max":361,"o":"m 74 1014 q 114 1009 94 1014 q 149 994 133 1004 q 174 966 164 983 q 183 925 183 949 l 183 758 l 103 758 l 103 913 q 93 936 103 931 q 74 942 83 942 l 74 1014 m 251 1014 q 292 1009 272 1014 q 326 994 311 1004 q 351 966 342 983 q 361 925 361 949 l 361 758 l 281 758 l 281 913 q 271 936 281 931 q 251 942 261 942 l 251 1014 z "},"’":{"ha":275,"x_min":74,"x_max":183,"o":"m 74 1014 q 114 1009 94 1014 q 149 994 133 1004 q 174 966 164 983 q 183 925 183 949 l 183 758 l 103 758 l 103 913 q 93 936 103 931 q 74 942 83 942 l 74 1014 z "},"'":{"ha":236,"x_min":76,"x_max":160,"o":"m 76 839 l 76 994 l 160 994 l 160 839 l 76 839 z "},"r":{"ha":488,"x_min":101,"x_max":463,"o":"m 463 640 q 296 588 367 638 q 196 450 225 538 l 196 0 l 101 0 l 101 724 l 190 724 l 190 550 q 289 677 228 626 q 421 728 350 728 q 444 728 433 728 q 463 726 456 728 l 463 640 z "},"ŕ":{"ha":488,"x_min":101,"x_max":463,"o":"m 285 861 l 222 885 l 304 1014 l 404 1014 l 285 861 m 463 640 q 296 588 367 638 q 196 450 225 538 l 196 0 l 101 0 l 101 724 l 190 724 l 190 550 q 289 677 228 626 q 421 728 350 728 q 444 728 433 728 q 463 726 456 728 l 463 640 z "},"ř":{"ha":488,"x_min":101,"x_max":463,"o":"m 158 1014 l 276 926 l 394 1014 l 449 986 l 311 867 l 242 867 l 106 986 l 158 1014 m 463 640 q 296 588 367 638 q 196 450 225 538 l 196 0 l 101 0 l 101 724 l 190 724 l 190 550 q 289 677 228 626 q 421 728 350 728 q 444 728 433 728 q 463 726 456 728 l 463 640 z "},"ŗ":{"ha":488,"x_min":76,"x_max":463,"o":"m 76 -182 q 106 -157 106 -182 l 106 -68 l 186 -68 l 186 -157 q 156 -215 186 -200 q 76 -229 125 -229 l 76 -182 m 463 640 q 296 588 367 638 q 196 450 225 538 l 196 0 l 101 0 l 101 724 l 190 724 l 190 550 q 289 677 228 626 q 421 728 350 728 q 444 728 433 728 q 463 726 456 728 l 463 640 z "},"®":{"ha":1164,"x_min":71,"x_max":1093,"o":"m 581 -10 q 377 28 471 -10 q 215 134 283 67 q 109 293 147 201 q 71 493 71 385 q 109 692 71 600 q 215 850 147 783 q 377 955 283 917 q 581 993 471 993 q 785 955 690 993 q 947 850 879 917 q 1054 692 1015 783 q 1093 493 1093 600 q 1054 293 1093 385 q 947 134 1015 201 q 785 28 879 67 q 581 -10 690 -10 m 581 35 q 763 68 678 35 q 910 161 847 101 q 1008 305 972 221 q 1043 492 1043 389 q 1008 672 1043 589 q 912 817 974 756 q 765 913 850 878 q 581 947 681 947 q 397 913 481 947 q 251 817 313 878 q 156 673 190 756 q 121 493 121 590 q 156 311 121 394 q 251 166 190 228 q 397 69 313 104 q 581 35 481 35 m 369 806 l 635 806 q 709 788 675 806 q 768 742 743 771 q 807 678 793 714 q 821 607 821 643 q 782 485 821 539 q 679 419 743 432 l 833 176 l 753 176 l 606 410 l 442 410 l 442 176 l 369 176 l 369 806 m 635 474 q 721 512 692 474 q 750 607 750 550 q 716 702 750 665 q 629 739 682 739 l 442 739 l 442 474 l 635 474 z "},"s":{"ha":676,"x_min":40,"x_max":626,"o":"m 344 -14 q 179 14 260 -14 q 40 94 99 42 l 83 158 q 208 83 144 108 q 343 58 271 58 q 483 94 431 58 q 535 194 535 129 q 521 245 535 225 q 480 281 507 265 q 412 308 453 296 q 317 332 371 319 q 208 363 254 347 q 133 397 163 378 q 88 445 103 417 q 74 517 74 474 q 95 613 74 571 q 153 681 117 654 q 240 722 190 708 q 344 736 289 736 q 496 709 428 736 q 606 638 564 682 l 560 582 q 462 644 519 624 q 342 665 404 665 q 272 658 304 665 q 216 633 240 650 q 178 591 192 617 q 164 531 164 565 q 174 483 164 501 q 206 452 183 465 q 262 428 228 439 q 344 407 296 418 q 467 374 414 390 q 555 335 519 357 q 608 281 590 313 q 626 203 626 249 q 550 44 626 103 q 344 -14 474 -14 z "},"ﬆ":{"ha":1122,"x_min":50,"x_max":1113,"o":"m 1113 35 q 1088 24 1104 31 q 1051 9 1072 17 q 1003 -3 1029 1 q 951 -8 978 -8 q 843 26 888 -8 q 799 131 799 60 l 799 649 l 697 649 l 697 724 l 799 724 q 794 852 799 801 q 775 933 789 903 q 735 974 761 963 q 668 986 710 986 q 594 975 624 986 q 545 945 564 964 q 518 901 526 926 q 510 846 510 875 q 520 772 510 807 q 544 708 531 736 q 569 661 557 679 q 585 639 582 643 l 540 583 q 442 649 496 632 q 338 665 388 665 q 269 658 303 665 q 210 636 236 651 q 169 595 185 621 q 153 532 153 569 q 172 466 153 490 q 219 428 190 442 q 283 408 249 414 q 351 397 318 401 q 449 381 399 390 q 538 350 499 371 q 603 294 578 329 q 629 200 629 258 q 605 103 629 143 q 541 36 581 63 q 451 -2 501 10 q 350 -14 401 -14 q 181 17 260 -14 q 50 92 103 47 l 92 157 q 349 58 214 58 q 417 65 382 58 q 479 88 451 72 q 524 130 507 104 q 542 193 542 156 q 519 257 542 233 q 465 294 497 281 q 394 314 432 308 q 326 324 357 319 q 228 340 275 329 q 146 372 182 350 q 88 428 110 393 q 67 518 67 463 q 90 618 67 576 q 152 686 114 660 q 238 724 190 713 q 333 736 285 736 q 424 726 378 736 q 506 693 471 715 q 474 765 488 732 q 460 847 460 799 q 472 920 460 886 q 510 981 483 954 q 580 1022 536 1007 q 689 1038 624 1038 q 802 1017 761 1038 q 863 958 843 997 q 888 859 883 918 q 893 724 893 800 l 1057 724 l 1057 649 l 893 649 l 893 157 q 919 98 893 117 q 981 79 944 79 q 1016 83 999 79 q 1048 92 1033 88 q 1074 103 1063 97 q 1089 111 1085 108 l 1113 35 z "},"ś":{"ha":676,"x_min":40,"x_max":626,"o":"m 350 861 l 288 885 l 369 1014 l 469 1014 l 350 861 m 344 -14 q 179 14 260 -14 q 40 94 99 42 l 83 158 q 208 83 144 108 q 343 58 271 58 q 483 94 431 58 q 535 194 535 129 q 521 245 535 225 q 480 281 507 265 q 412 308 453 296 q 317 332 371 319 q 208 363 254 347 q 133 397 163 378 q 88 445 103 417 q 74 517 74 474 q 95 613 74 571 q 153 681 117 654 q 240 722 190 708 q 344 736 289 736 q 496 709 428 736 q 606 638 564 682 l 560 582 q 462 644 519 624 q 342 665 404 665 q 272 658 304 665 q 216 633 240 650 q 178 591 192 617 q 164 531 164 565 q 174 483 164 501 q 206 452 183 465 q 262 428 228 439 q 344 407 296 418 q 467 374 414 390 q 555 335 519 357 q 608 281 590 313 q 626 203 626 249 q 550 44 626 103 q 344 -14 474 -14 z "},"š":{"ha":676,"x_min":40,"x_max":626,"o":"m 224 1014 l 342 926 l 460 1014 l 514 986 l 376 867 l 307 867 l 171 986 l 224 1014 m 344 -14 q 179 14 260 -14 q 40 94 99 42 l 83 158 q 208 83 144 108 q 343 58 271 58 q 483 94 431 58 q 535 194 535 129 q 521 245 535 225 q 480 281 507 265 q 412 308 453 296 q 317 332 371 319 q 208 363 254 347 q 133 397 163 378 q 88 445 103 417 q 74 517 74 474 q 95 613 74 571 q 153 681 117 654 q 240 722 190 708 q 344 736 289 736 q 496 709 428 736 q 606 638 564 682 l 560 582 q 462 644 519 624 q 342 665 404 665 q 272 658 304 665 q 216 633 240 650 q 178 591 192 617 q 164 531 164 565 q 174 483 164 501 q 206 452 183 465 q 262 428 228 439 q 344 407 296 418 q 467 374 414 390 q 555 335 519 357 q 608 281 590 313 q 626 203 626 249 q 550 44 626 103 q 344 -14 474 -14 z "},"ə":{"ha":815,"x_min":40,"x_max":761,"o":"m 403 -14 q 258 16 324 -14 q 144 97 192 46 q 68 215 96 147 q 40 360 40 283 q 41 378 40 367 q 43 394 42 389 l 661 394 q 634 502 657 453 q 576 587 611 551 q 493 642 540 622 q 394 663 446 663 q 260 627 322 663 q 172 533 197 592 l 90 556 q 138 628 107 594 q 208 685 168 661 q 297 722 249 708 q 399 736 346 736 q 543 706 476 736 q 658 624 610 676 q 734 503 707 572 q 761 357 761 435 q 735 213 761 281 q 660 95 708 146 q 547 15 613 44 q 403 -14 482 -14 m 403 58 q 502 78 456 58 q 583 135 549 99 q 639 222 618 172 q 664 329 660 271 l 133 329 q 160 220 138 269 q 219 135 182 171 q 303 78 256 99 q 403 58 350 58 z "},"ŝ":{"ha":676,"x_min":40,"x_max":626,"o":"m 171 896 l 307 1014 l 376 1014 l 514 896 l 460 867 l 342 954 l 224 867 l 171 896 m 344 -14 q 179 14 260 -14 q 40 94 99 42 l 83 158 q 208 83 144 108 q 343 58 271 58 q 483 94 431 58 q 535 194 535 129 q 521 245 535 225 q 480 281 507 265 q 412 308 453 296 q 317 332 371 319 q 208 363 254 347 q 133 397 163 378 q 88 445 103 417 q 74 517 74 474 q 95 613 74 571 q 153 681 117 654 q 240 722 190 708 q 344 736 289 736 q 496 709 428 736 q 606 638 564 682 l 560 582 q 462 644 519 624 q 342 665 404 665 q 272 658 304 665 q 216 633 240 650 q 178 591 192 617 q 164 531 164 565 q 174 483 164 501 q 206 452 183 465 q 262 428 228 439 q 344 407 296 418 q 467 374 414 390 q 555 335 519 357 q 608 281 590 313 q 626 203 626 249 q 550 44 626 103 q 344 -14 474 -14 z "},"§":{"ha":711,"x_min":68,"x_max":646,"o":"m 582 271 q 630 215 614 251 q 646 129 646 178 q 619 15 646 63 q 552 -62 593 -32 q 460 -108 511 -93 q 363 -122 410 -122 q 278 -111 318 -122 q 203 -82 238 -100 q 140 -42 168 -64 q 90 4 111 -19 l 151 63 q 357 -32 251 -32 q 427 -22 393 -32 q 488 8 461 -12 q 532 57 515 28 q 549 125 549 86 q 531 189 549 165 q 488 225 514 213 q 431 242 461 238 q 374 249 400 246 q 173 313 243 260 q 103 469 103 367 q 113 542 103 511 q 139 593 124 574 q 89 657 110 614 q 68 753 68 700 q 91 851 68 807 q 152 926 114 894 q 241 976 190 958 q 349 993 292 993 q 499 953 438 993 q 596 861 560 914 l 522 826 q 448 889 499 871 q 349 907 397 907 q 278 897 313 907 q 219 867 244 888 q 178 818 193 847 q 163 750 163 789 q 184 676 163 703 q 235 635 206 649 q 295 619 264 622 q 346 614 326 615 q 451 599 401 611 q 540 562 501 586 q 601 498 578 538 q 624 401 624 458 q 612 324 624 358 q 582 271 600 290 m 194 457 q 228 367 194 394 q 310 329 263 340 q 409 315 358 318 q 493 299 460 311 q 523 342 513 314 q 533 399 533 369 q 516 465 533 439 q 472 506 499 490 q 412 528 444 522 q 349 536 379 535 q 289 540 317 538 q 229 556 261 543 q 204 515 214 540 q 194 457 194 489 z "},";":{"ha":294,"x_min":81,"x_max":190,"o":"m 110 583 l 110 719 l 190 719 l 190 583 l 110 583 m 81 -21 q 100 -15 90 -21 q 110 8 110 -10 l 110 136 l 190 136 l 190 -6 q 181 -46 190 -29 q 155 -73 171 -62 q 119 -88 139 -83 q 81 -93 100 -93 l 81 -21 z "},"⅞":{"ha":1189,"x_min":63,"x_max":1135,"o":"m 1135 154 q 1117 88 1135 118 q 1068 38 1099 58 q 997 5 1038 17 q 910 -7 956 -7 q 821 6 861 -7 q 751 42 781 19 q 706 94 722 64 q 689 157 689 124 q 700 206 689 183 q 729 247 711 229 q 770 276 747 264 q 817 297 793 289 q 743 341 775 313 q 711 413 711 369 q 729 472 711 446 q 776 517 747 499 q 840 544 804 535 q 913 554 876 554 q 985 544 949 554 q 1049 517 1021 535 q 1095 473 1078 499 q 1113 414 1113 447 q 1081 342 1113 371 q 1006 297 1050 313 q 1098 243 1061 279 q 1135 154 1135 207 m 1072 161 q 1058 206 1072 186 q 1020 240 1043 226 q 969 262 997 254 q 911 269 940 269 q 853 262 882 269 q 801 240 824 254 q 765 205 779 225 q 751 160 751 185 q 766 115 751 135 q 803 82 781 96 q 856 61 826 68 q 913 54 885 54 q 971 62 942 54 q 1022 83 1000 69 q 1058 117 1044 97 q 1072 161 1072 136 m 774 407 q 786 370 774 386 q 818 343 799 354 q 863 326 838 332 q 911 321 888 321 q 961 327 936 321 q 1006 344 986 333 q 1039 372 1026 356 q 1051 408 1051 388 q 1040 445 1051 429 q 1008 472 1028 461 q 963 490 988 483 q 911 496 938 496 q 859 490 883 496 q 815 472 835 483 q 785 444 796 460 q 774 407 774 428 m 99 38 l 488 510 l 864 992 l 913 950 l 526 478 l 147 -6 l 99 38 m 408 953 l 63 953 l 63 1014 l 508 1014 l 182 460 l 111 460 l 408 953 z "},"⁷":{"ha":489,"x_min":38,"x_max":483,"o":"m 383 953 l 38 953 l 38 1014 l 483 1014 l 157 460 l 86 460 l 383 953 z "},"₇":{"ha":489,"x_min":38,"x_max":483,"o":"m 385 493 l 38 493 l 38 554 l 483 554 l 157 0 l 86 0 l 385 493 z "},"₆":{"ha":563,"x_min":57,"x_max":517,"o":"m 517 183 q 499 109 517 143 q 450 49 481 75 q 377 8 419 22 q 288 -7 335 -7 q 121 56 185 -7 q 57 231 57 118 q 122 477 57 396 q 296 558 188 558 q 409 533 358 558 q 485 460 460 507 l 447 419 q 386 478 428 456 q 293 500 344 500 q 165 443 214 500 q 115 279 117 386 q 186 346 136 321 q 292 371 236 371 q 381 356 339 371 q 452 316 422 342 q 499 256 482 290 q 517 183 517 222 m 289 50 q 354 60 324 50 q 408 89 385 71 q 444 131 431 107 q 457 182 457 156 q 444 234 457 210 q 408 277 431 258 q 353 306 385 296 q 288 317 322 317 q 222 306 253 317 q 169 277 192 296 q 133 234 146 258 q 119 183 119 210 q 133 132 119 156 q 170 90 147 108 q 224 60 193 71 q 289 50 254 50 z "},"⁶":{"ha":563,"x_min":57,"x_max":517,"o":"m 517 639 q 499 564 517 599 q 450 503 481 529 q 377 462 419 476 q 288 447 335 447 q 121 510 185 447 q 57 685 57 572 q 122 932 57 850 q 296 1014 188 1014 q 409 988 358 1014 q 485 915 460 963 l 447 875 q 386 933 428 911 q 293 956 344 956 q 165 898 214 956 q 115 735 117 840 q 186 801 136 776 q 292 825 236 825 q 381 810 339 825 q 452 771 422 796 q 499 712 482 746 q 517 639 517 678 m 289 504 q 354 515 324 504 q 408 544 385 525 q 444 586 431 563 q 457 638 457 610 q 444 690 457 665 q 408 732 431 714 q 353 760 385 750 q 288 771 322 771 q 222 760 253 771 q 169 732 192 750 q 133 690 146 714 q 119 639 119 665 q 133 587 119 611 q 170 544 147 563 q 224 515 193 525 q 289 504 254 504 z "},"Æ":{"ha":1376,"x_min":-1,"x_max":1314,"o":"m 633 986 l 1301 986 l 1301 900 l 754 900 l 754 546 l 1226 546 l 1226 460 l 754 460 l 754 86 l 1314 86 l 1314 0 l 660 0 l 660 308 l 300 308 l 104 0 l -1 0 l 633 986 m 653 394 l 653 869 l 344 394 l 653 394 z "},"£":{"ha":701,"x_min":74,"x_max":636,"o":"m 74 517 l 204 517 q 172 574 189 546 q 142 632 156 603 q 119 692 128 661 q 110 756 110 722 q 130 849 110 806 q 184 924 150 892 q 264 974 218 956 q 363 993 310 993 q 505 954 438 993 q 614 847 572 915 l 558 789 q 472 881 525 847 q 360 914 418 914 q 297 901 326 914 q 245 867 267 889 q 211 815 224 844 q 199 750 199 785 q 208 691 199 719 q 232 634 218 663 q 263 577 246 606 q 294 517 279 549 l 542 517 l 542 442 l 322 442 q 333 358 333 400 q 301 224 333 289 q 189 75 269 160 q 292 88 240 88 q 346 83 321 88 q 394 75 371 79 q 441 67 418 71 q 489 63 464 63 q 546 69 517 63 q 613 88 575 75 l 636 15 q 485 -21 561 -21 q 425 -16 453 -21 q 369 -5 397 -11 q 313 7 342 1 q 253 13 285 13 q 180 6 221 13 q 103 -11 139 0 l 78 58 q 158 145 125 106 q 212 219 192 185 q 241 287 232 254 q 250 353 250 319 q 247 399 250 376 q 236 442 243 421 l 74 442 l 74 517 z "},"t":{"ha":461,"x_min":35,"x_max":451,"o":"m 451 35 q 427 24 443 31 q 390 10 411 17 q 343 -3 369 3 q 288 -8 317 -8 q 229 0 257 -8 q 181 26 201 8 q 147 69 160 43 q 135 131 135 96 l 135 649 l 35 649 l 35 724 l 135 724 l 135 968 l 229 968 l 229 724 l 396 724 l 396 649 l 229 649 l 229 157 q 257 98 232 117 q 317 79 282 79 q 388 92 357 79 q 426 111 418 106 l 451 35 z "},"ŧ":{"ha":463,"x_min":36,"x_max":453,"o":"m 453 35 q 428 24 444 31 q 392 10 413 17 q 344 -3 371 3 q 289 -8 318 -8 q 231 0 258 -8 q 182 26 203 8 q 149 69 161 43 q 136 131 136 96 l 136 426 l 36 426 l 36 490 l 136 490 l 136 649 l 36 649 l 36 724 l 136 724 l 136 968 l 231 968 l 231 724 l 397 724 l 397 649 l 231 649 l 231 490 l 397 490 l 397 426 l 231 426 l 231 157 q 258 98 233 117 q 318 79 283 79 q 389 92 358 79 q 428 111 419 106 l 453 35 z "},"ť":{"ha":461,"x_min":35,"x_max":503,"o":"m 383 861 l 321 885 l 403 1014 l 503 1014 l 383 861 m 451 35 q 427 24 443 31 q 390 10 411 17 q 343 -3 369 3 q 288 -8 317 -8 q 229 0 257 -8 q 181 26 201 8 q 147 69 160 43 q 135 131 135 96 l 135 649 l 35 649 l 35 724 l 135 724 l 135 968 l 229 968 l 229 724 l 396 724 l 396 649 l 229 649 l 229 157 q 257 98 232 117 q 317 79 282 79 q 388 92 357 79 q 426 111 418 106 l 451 35 z "},"þ":{"ha":836,"x_min":101,"x_max":782,"o":"m 782 357 q 753 213 781 282 q 677 92 725 144 q 565 9 629 40 q 426 -22 501 -22 q 290 15 351 -22 q 199 103 229 53 l 199 -296 l 101 -296 l 101 986 l 199 986 l 199 603 q 297 699 239 660 q 439 739 354 739 q 583 705 519 739 q 690 616 646 671 q 758 493 735 561 q 782 357 782 425 m 686 358 q 668 469 686 415 q 617 563 650 522 q 537 628 583 604 q 435 653 490 653 q 357 639 393 653 q 292 601 321 625 q 239 547 263 578 q 199 483 215 517 l 199 239 q 221 174 199 206 q 276 118 243 142 q 349 80 310 94 q 425 65 389 65 q 530 90 482 65 q 613 156 578 115 q 667 249 647 196 q 686 358 686 301 z "},"⅜":{"ha":1211,"x_min":64,"x_max":1153,"o":"m 279 446 q 133 479 192 446 q 64 569 75 513 l 101 610 q 117 575 103 593 q 154 542 131 557 q 210 518 178 528 q 279 508 242 508 q 394 535 347 508 q 440 607 440 563 q 385 683 440 656 q 233 710 329 710 l 201 710 l 201 767 l 233 767 q 371 790 321 767 q 421 858 421 813 q 377 931 421 904 q 274 958 333 958 q 174 937 215 958 q 113 881 133 915 l 69 928 q 151 992 94 968 q 274 1015 207 1015 q 358 1003 319 1015 q 426 972 397 992 q 472 924 456 951 q 488 863 488 896 q 361 740 488 767 q 466 691 428 731 q 504 599 504 651 q 486 534 504 563 q 437 486 468 506 q 365 456 406 467 q 279 446 325 446 m 1153 154 q 1135 88 1153 118 q 1086 38 1117 58 q 1015 5 1056 17 q 928 -7 974 -7 q 839 6 879 -7 q 769 42 799 19 q 724 94 740 64 q 707 157 707 124 q 718 206 707 183 q 747 247 729 229 q 788 276 765 264 q 835 297 811 289 q 761 341 793 313 q 729 413 729 369 q 747 472 729 446 q 794 517 765 499 q 858 544 822 535 q 931 554 894 554 q 1003 544 967 554 q 1067 517 1039 535 q 1113 473 1096 499 q 1131 414 1131 447 q 1099 342 1131 371 q 1024 297 1068 313 q 1116 243 1079 279 q 1153 154 1153 207 m 1090 161 q 1076 206 1090 186 q 1038 240 1061 226 q 987 262 1015 254 q 929 269 958 269 q 871 262 900 269 q 819 240 842 254 q 783 205 797 225 q 769 160 769 185 q 784 115 769 135 q 822 82 799 96 q 874 61 844 68 q 931 54 903 54 q 989 62 960 54 q 1040 83 1018 69 q 1076 117 1063 97 q 1090 161 1090 136 m 792 407 q 804 370 792 386 q 836 343 817 354 q 881 326 856 332 q 929 321 906 321 q 979 327 954 321 q 1024 344 1004 333 q 1057 372 1044 356 q 1069 408 1069 388 q 1058 445 1069 429 q 1026 472 1046 461 q 981 490 1006 483 q 929 496 956 496 q 877 490 901 496 q 833 472 853 483 q 803 444 814 460 q 792 407 792 428 m 196 38 l 585 510 l 961 992 l 1010 950 l 624 478 l 244 -6 l 196 38 z "},"³":{"ha":544,"x_min":50,"x_max":490,"o":"m 265 446 q 119 479 178 446 q 50 569 61 513 l 88 610 q 103 575 89 593 q 140 542 117 557 q 196 518 164 528 q 265 508 228 508 q 380 535 333 508 q 426 607 426 563 q 371 683 426 656 q 219 710 315 710 l 188 710 l 188 767 l 219 767 q 357 790 307 767 q 407 858 407 813 q 363 931 407 904 q 260 958 319 958 q 160 937 201 958 q 99 881 119 915 l 56 928 q 137 992 81 968 q 260 1015 193 1015 q 344 1003 306 1015 q 413 972 383 992 q 458 924 442 951 q 474 863 474 896 q 347 740 474 767 q 452 691 414 731 q 490 599 490 651 q 472 534 490 563 q 423 486 454 506 q 351 456 392 467 q 265 446 311 446 z "},"¾":{"ha":1175,"x_min":61,"x_max":1113,"o":"m 276 446 q 131 479 189 446 q 61 569 72 513 l 99 610 q 114 575 100 593 q 151 542 128 557 q 207 518 175 528 q 276 508 239 508 q 391 535 344 508 q 438 607 438 563 q 382 683 438 656 q 231 710 326 710 l 199 710 l 199 767 l 231 767 q 368 790 318 767 q 418 858 418 813 q 374 931 418 904 q 271 958 331 958 q 172 937 213 958 q 110 881 131 915 l 67 928 q 148 992 92 968 q 271 1015 204 1015 q 356 1003 317 1015 q 424 972 394 992 q 469 924 453 951 q 485 863 485 896 q 358 740 485 767 q 463 691 425 731 q 501 599 501 651 q 483 534 501 563 q 434 486 465 506 q 363 456 403 467 q 276 446 322 446 m 971 0 l 971 143 l 654 143 l 654 201 l 990 554 l 1033 554 l 1033 204 l 1113 204 l 1113 143 l 1033 143 l 1033 0 l 971 0 m 721 204 l 972 204 l 972 469 l 721 204 m 235 38 l 624 510 l 1000 992 l 1049 950 l 663 478 l 283 -6 l 235 38 z "},"™":{"ha":1007,"x_min":82,"x_max":899,"o":"m 413 922 l 281 922 l 281 589 l 214 589 l 214 922 l 82 922 l 82 989 l 413 989 l 413 922 m 806 986 l 899 986 l 899 589 l 832 589 l 832 890 l 715 647 l 660 647 l 543 890 l 543 589 l 476 589 l 476 986 l 568 986 l 688 726 l 806 986 z "},"²":{"ha":542,"x_min":51,"x_max":486,"o":"m 51 454 q 62 548 51 508 q 94 617 72 588 q 149 669 115 647 q 226 708 182 690 q 292 733 258 721 q 353 760 325 744 q 399 797 381 775 q 417 851 417 819 q 381 924 417 894 q 275 954 346 954 q 213 947 240 954 q 163 927 185 939 q 124 902 140 915 q 99 878 108 889 l 57 921 q 79 944 63 928 q 124 976 96 960 q 192 1003 153 992 q 283 1015 232 1015 q 435 968 385 1015 q 486 853 486 921 q 464 774 486 804 q 410 724 442 743 q 346 695 379 706 q 290 676 313 685 q 217 642 246 661 q 172 603 189 624 q 149 560 156 582 q 143 514 143 538 l 479 514 l 479 454 l 51 454 z "},"⅔":{"ha":1225,"x_min":67,"x_max":1165,"o":"m 940 -7 q 794 26 853 -7 q 725 117 736 58 l 763 156 q 778 121 764 139 q 815 88 792 103 q 871 64 839 74 q 940 54 903 54 q 1055 81 1008 54 q 1101 153 1101 108 q 1046 229 1101 201 q 894 257 990 257 l 863 257 l 863 313 l 894 313 q 1032 335 982 313 q 1082 406 1082 358 q 1070 446 1082 428 q 1038 477 1058 464 q 991 497 1018 490 q 935 504 964 504 q 835 483 876 504 q 774 426 794 461 l 731 474 q 812 538 756 514 q 935 561 868 561 q 1019 549 981 561 q 1088 517 1058 538 q 1133 469 1117 497 q 1149 410 1149 442 q 1022 286 1149 314 q 1127 237 1089 276 q 1165 144 1165 197 q 1147 81 1165 108 q 1098 33 1129 53 q 1026 3 1067 14 q 940 -7 986 -7 m 67 454 q 77 548 67 508 q 108 617 88 588 q 161 669 129 647 q 238 708 193 690 q 301 733 268 721 q 362 760 335 744 q 406 797 389 775 q 424 851 424 819 q 390 924 424 894 q 285 954 356 954 q 224 947 251 954 q 175 927 196 939 q 138 902 154 915 q 113 878 122 889 l 72 921 q 94 944 78 928 q 138 976 110 960 q 204 1003 165 992 q 293 1015 243 1015 q 442 968 393 1015 q 490 853 490 921 q 469 774 490 804 q 417 724 447 743 q 354 695 386 706 q 300 676 322 685 q 185 603 214 646 q 156 514 156 561 l 485 514 l 485 454 l 67 454 m 218 38 l 607 510 l 983 992 l 1032 950 l 646 478 l 267 -6 l 218 38 z "},"u":{"ha":825,"x_min":94,"x_max":747,"o":"m 325 -14 q 153 65 211 -14 q 94 299 94 143 l 94 724 l 189 724 l 189 315 q 357 69 189 69 q 439 83 399 69 q 513 124 479 97 q 574 186 547 150 q 618 268 601 222 l 618 724 l 713 724 l 713 122 q 747 83 713 83 l 747 0 q 708 -4 719 -4 q 653 15 676 -4 q 631 64 631 35 l 631 164 q 501 33 582 79 q 325 -14 421 -14 z "},"ú":{"ha":825,"x_min":94,"x_max":747,"o":"m 410 861 l 347 885 l 429 1014 l 529 1014 l 410 861 m 325 -14 q 153 65 211 -14 q 94 299 94 143 l 94 724 l 189 724 l 189 315 q 357 69 189 69 q 439 83 399 69 q 513 124 479 97 q 574 186 547 150 q 618 268 601 222 l 618 724 l 713 724 l 713 122 q 747 83 713 83 l 747 0 q 708 -4 719 -4 q 653 15 676 -4 q 631 64 631 35 l 631 164 q 501 33 582 79 q 325 -14 421 -14 z "},"ŭ":{"ha":825,"x_min":94,"x_max":747,"o":"m 325 -14 q 153 65 211 -14 q 94 299 94 143 l 94 724 l 189 724 l 189 315 q 357 69 189 69 q 439 83 399 69 q 513 124 479 97 q 574 186 547 150 q 618 268 601 222 l 618 724 l 713 724 l 713 122 q 747 83 713 83 l 747 0 q 708 -4 719 -4 q 653 15 676 -4 q 631 64 631 35 l 631 164 q 501 33 582 79 q 325 -14 421 -14 m 401 922 q 453 949 431 922 q 481 1014 476 975 l 538 1014 q 527 959 538 985 q 498 915 517 933 q 454 885 479 896 q 401 874 429 874 q 304 914 343 874 q 265 1014 265 954 l 324 1014 q 347 950 324 978 q 401 922 371 922 z "},"û":{"ha":825,"x_min":94,"x_max":747,"o":"m 231 896 l 367 1014 l 436 1014 l 574 896 l 519 867 l 401 954 l 283 867 l 231 896 m 325 -14 q 153 65 211 -14 q 94 299 94 143 l 94 724 l 189 724 l 189 315 q 357 69 189 69 q 439 83 399 69 q 513 124 479 97 q 574 186 547 150 q 618 268 601 222 l 618 724 l 713 724 l 713 122 q 747 83 713 83 l 747 0 q 708 -4 719 -4 q 653 15 676 -4 q 631 64 631 35 l 631 164 q 501 33 582 79 q 325 -14 421 -14 z "},"ü":{"ha":825,"x_min":94,"x_max":747,"o":"m 257 879 l 257 1010 l 338 1010 l 338 879 l 257 879 m 464 879 l 464 1010 l 544 1010 l 544 879 l 464 879 m 325 -14 q 153 65 211 -14 q 94 299 94 143 l 94 724 l 189 724 l 189 315 q 357 69 189 69 q 439 83 399 69 q 513 124 479 97 q 574 186 547 150 q 618 268 601 222 l 618 724 l 713 724 l 713 122 q 747 83 713 83 l 747 0 q 708 -4 719 -4 q 653 15 676 -4 q 631 64 631 35 l 631 164 q 501 33 582 79 q 325 -14 421 -14 z "},"ù":{"ha":825,"x_min":94,"x_max":747,"o":"m 325 -14 q 153 65 211 -14 q 94 299 94 143 l 94 724 l 189 724 l 189 315 q 357 69 189 69 q 439 83 399 69 q 513 124 479 97 q 574 186 547 150 q 618 268 601 222 l 618 724 l 713 724 l 713 122 q 747 83 713 83 l 747 0 q 708 -4 719 -4 q 653 15 676 -4 q 631 64 631 35 l 631 164 q 501 33 582 79 q 325 -14 421 -14 m 272 1014 l 371 1014 l 454 885 l 393 861 l 272 1014 z "},"ű":{"ha":825,"x_min":94,"x_max":747,"o":"m 325 -14 q 153 65 211 -14 q 94 299 94 143 l 94 724 l 189 724 l 189 315 q 357 69 189 69 q 439 83 399 69 q 513 124 479 97 q 574 186 547 150 q 618 268 601 222 l 618 724 l 713 724 l 713 122 q 747 83 713 83 l 747 0 q 708 -4 719 -4 q 653 15 676 -4 q 631 64 631 35 l 631 164 q 501 33 582 79 q 325 -14 421 -14 m 313 861 l 261 885 l 340 1014 l 429 1014 l 313 861 m 488 861 l 435 885 l 514 1014 l 603 1014 l 488 861 z "},"ū":{"ha":825,"x_min":94,"x_max":747,"o":"m 325 -14 q 153 65 211 -14 q 94 299 94 143 l 94 724 l 189 724 l 189 315 q 357 69 189 69 q 439 83 399 69 q 513 124 479 97 q 574 186 547 150 q 618 268 601 222 l 618 724 l 713 724 l 713 122 q 747 83 713 83 l 747 0 q 708 -4 719 -4 q 653 15 676 -4 q 631 64 631 35 l 631 164 q 501 33 582 79 q 325 -14 421 -14 m 201 921 l 201 986 l 603 986 l 603 921 l 201 921 z "},"_":{"ha":576,"x_min":24,"x_max":553,"o":"m 24 -86 l 24 0 l 553 0 l 553 -86 l 24 -86 z "}," ":{"ha":356,"x_min":0,"x_max":0,"o":""},"­":{"ha":792,"x_min":92,"x_max":701,"o":"m 92 335 l 92 422 l 701 422 l 701 335 l 92 335 z "},"Ş":{"ha":850,"x_min":49,"x_max":799,"o":"m 343 -175 q 396 -192 363 -185 q 465 -200 429 -200 q 544 -151 544 -200 q 526 -112 544 -124 q 475 -101 507 -101 q 414 -108 446 -101 q 364 -121 382 -114 l 425 -8 q 49 135 204 -1 l 96 214 q 242 117 150 157 q 446 78 333 78 q 631 120 564 78 q 697 249 697 163 q 678 326 697 294 q 622 380 660 357 q 528 419 585 403 q 399 453 472 436 q 263 490 321 471 q 165 539 204 510 q 105 609 125 568 q 85 710 85 650 q 110 831 85 778 q 183 920 136 885 q 294 974 229 956 q 436 993 358 993 q 610 963 533 993 q 750 879 688 933 l 704 801 q 592 878 663 849 q 435 907 522 907 q 243 858 303 907 q 183 724 183 808 q 199 651 183 679 q 249 601 215 622 q 335 565 283 581 q 458 535 388 550 q 600 498 538 518 q 707 447 663 478 q 775 370 751 415 q 799 258 799 325 q 775 145 799 193 q 709 65 751 97 q 608 14 667 32 q 479 -7 550 -4 l 440 -71 q 467 -64 453 -65 q 493 -62 482 -62 q 570 -84 542 -62 q 599 -147 599 -106 q 563 -219 599 -194 q 457 -244 526 -244 q 382 -237 417 -244 q 319 -218 347 -229 l 343 -175 z "},"ş":{"ha":678,"x_min":40,"x_max":626,"o":"m 238 -175 q 290 -192 257 -185 q 360 -200 324 -200 q 439 -151 439 -200 q 420 -112 439 -124 q 369 -101 401 -101 q 308 -108 340 -101 q 258 -121 276 -114 l 317 -12 q 165 19 238 -8 q 40 94 93 46 l 83 158 q 208 83 144 108 q 343 58 271 58 q 483 94 431 58 q 535 194 535 129 q 521 245 535 225 q 480 281 507 265 q 412 308 453 296 q 317 332 371 319 q 208 363 254 347 q 133 397 163 378 q 88 445 103 417 q 74 517 74 474 q 95 613 74 571 q 153 681 117 654 q 240 722 190 708 q 344 736 289 736 q 496 709 428 736 q 606 638 564 682 l 560 582 q 462 644 519 624 q 342 665 404 665 q 272 658 304 665 q 216 633 240 650 q 178 591 192 617 q 164 531 164 565 q 174 483 164 501 q 206 452 183 465 q 262 428 228 439 q 344 407 296 418 q 467 374 414 390 q 555 335 519 357 q 608 281 590 313 q 626 203 626 249 q 558 51 626 108 q 371 -12 489 -6 l 335 -71 q 362 -64 347 -65 q 388 -62 376 -62 q 465 -84 436 -62 q 493 -147 493 -106 q 457 -219 493 -194 q 351 -244 421 -244 q 276 -237 311 -244 q 214 -218 242 -229 l 238 -175 z "},"Ţ":{"ha":853,"x_min":26,"x_max":826,"o":"m 319 -175 q 372 -192 339 -185 q 442 -200 406 -200 q 521 -151 521 -200 q 502 -112 521 -124 q 451 -101 483 -101 q 390 -108 422 -101 q 340 -121 358 -114 l 406 0 l 378 0 l 378 900 l 26 900 l 26 986 l 826 986 l 826 900 l 475 900 l 475 0 l 461 0 l 417 -71 q 444 -64 429 -65 q 469 -62 458 -62 q 547 -84 518 -62 q 575 -147 575 -106 q 539 -219 575 -194 q 433 -244 503 -244 q 358 -237 393 -244 q 296 -218 324 -229 l 319 -175 z "},"ţ":{"ha":461,"x_min":35,"x_max":451,"o":"m 179 -175 q 232 -192 199 -185 q 301 -200 265 -200 q 381 -151 381 -200 q 362 -112 381 -124 q 311 -101 343 -101 q 250 -108 282 -101 q 200 -121 218 -114 l 261 -7 q 172 34 208 0 q 135 131 135 68 l 135 649 l 35 649 l 35 724 l 135 724 l 135 968 l 229 968 l 229 724 l 396 724 l 396 649 l 229 649 l 229 157 q 257 98 232 117 q 317 79 282 79 q 388 92 357 79 q 426 111 418 106 l 451 35 q 401 13 436 28 q 317 -7 365 -1 l 276 -71 q 303 -64 289 -65 q 329 -62 318 -62 q 406 -84 378 -62 q 435 -147 435 -106 q 399 -219 435 -194 q 293 -244 363 -244 q 218 -237 253 -244 q 156 -218 183 -229 l 179 -175 z "},"Ș":{"ha":850,"x_min":49,"x_max":799,"o":"m 376 -182 q 406 -157 406 -182 l 406 -68 l 486 -68 l 486 -157 q 456 -215 486 -200 q 376 -229 425 -229 l 376 -182 m 704 801 q 592 878 663 849 q 435 907 522 907 q 243 858 303 907 q 183 724 183 808 q 199 651 183 679 q 249 601 215 622 q 335 565 283 581 q 458 535 388 550 q 600 498 538 518 q 707 447 663 478 q 775 370 751 415 q 799 258 799 325 q 772 140 799 190 q 699 57 746 90 q 586 8 651 24 q 444 -8 521 -8 q 49 135 213 -8 l 96 214 q 242 117 150 157 q 446 78 333 78 q 631 120 564 78 q 697 249 697 163 q 678 326 697 294 q 622 380 660 357 q 528 419 585 403 q 399 453 472 436 q 263 490 321 471 q 165 539 204 510 q 105 609 125 568 q 85 710 85 650 q 110 831 85 778 q 183 920 136 885 q 294 974 229 956 q 436 993 358 993 q 610 963 533 993 q 750 879 688 933 l 704 801 z "},"ș":{"ha":676,"x_min":40,"x_max":626,"o":"m 275 -182 q 304 -157 304 -182 l 304 -68 l 385 -68 l 385 -157 q 354 -215 385 -200 q 275 -229 324 -229 l 275 -182 m 344 -14 q 179 14 260 -14 q 40 94 99 42 l 83 158 q 208 83 144 108 q 343 58 271 58 q 483 94 431 58 q 535 194 535 129 q 521 245 535 225 q 480 281 507 265 q 412 308 453 296 q 317 332 371 319 q 208 363 254 347 q 133 397 163 378 q 88 445 103 417 q 74 517 74 474 q 95 613 74 571 q 153 681 117 654 q 240 722 190 708 q 344 736 289 736 q 496 709 428 736 q 606 638 564 682 l 560 582 q 462 644 519 624 q 342 665 404 665 q 272 658 304 665 q 216 633 240 650 q 178 591 192 617 q 164 531 164 565 q 174 483 164 501 q 206 452 183 465 q 262 428 228 439 q 344 407 296 418 q 467 374 414 390 q 555 335 519 357 q 608 281 590 313 q 626 203 626 249 q 550 44 626 103 q 344 -14 474 -14 z "},"Ț":{"ha":853,"x_min":26,"x_max":826,"o":"m 360 -182 q 389 -157 389 -182 l 389 -68 l 469 -68 l 469 -157 q 439 -215 469 -200 q 360 -229 408 -229 l 360 -182 m 826 900 l 475 900 l 475 0 l 378 0 l 378 900 l 26 900 l 26 986 l 826 986 l 826 900 z "},"ț":{"ha":461,"x_min":35,"x_max":451,"o":"m 217 -182 q 246 -157 246 -182 l 246 -68 l 326 -68 l 326 -157 q 296 -215 326 -200 q 217 -229 265 -229 l 217 -182 m 451 35 q 427 24 443 31 q 390 10 411 17 q 343 -3 369 3 q 288 -8 317 -8 q 229 0 257 -8 q 181 26 201 8 q 147 69 160 43 q 135 131 135 96 l 135 649 l 35 649 l 35 724 l 135 724 l 135 968 l 229 968 l 229 724 l 396 724 l 396 649 l 229 649 l 229 157 q 257 98 232 117 q 317 79 282 79 q 388 92 357 79 q 426 111 418 106 l 451 35 z "},"μ":{"ha":833,"x_min":101,"x_max":756,"o":"m 101 724 l 196 724 l 196 315 q 367 69 196 69 q 448 83 408 69 q 522 124 488 97 q 583 186 556 150 q 626 268 610 222 l 626 724 l 721 724 l 721 122 q 756 83 721 83 l 756 0 q 733 -3 742 -3 q 715 -4 724 -4 q 661 15 683 -4 q 639 64 639 35 l 639 164 q 590 94 619 126 q 525 38 561 63 q 447 0 489 14 q 363 -14 406 -14 q 253 19 294 -14 q 192 104 211 51 l 192 -294 l 101 -294 l 101 724 z "},"∕":{"ha":806,"x_min":-17,"x_max":824,"o":"m -17 42 l 767 992 l 824 944 l 42 -6 l -17 42 z "},"∙":{"ha":263,"x_min":92,"x_max":172,"o":"m 92 342 l 92 497 l 172 497 l 172 342 l 92 342 z "},"ų":{"ha":825,"x_min":94,"x_max":747,"o":"m 325 -14 q 153 65 211 -14 q 94 299 94 143 l 94 724 l 189 724 l 189 315 q 357 69 189 69 q 439 83 399 69 q 513 124 479 97 q 574 186 547 150 q 618 268 601 222 l 618 724 l 713 724 l 713 122 q 747 83 713 83 l 747 0 q 659 -69 685 -39 q 633 -129 633 -99 q 706 -190 633 -181 l 679 -243 q 601 -205 628 -232 q 575 -142 575 -178 q 600 -72 575 -107 q 679 0 625 -37 q 644 24 657 7 q 631 64 631 40 l 631 164 q 501 33 582 79 q 325 -14 421 -14 z "},"ů":{"ha":825,"x_min":94,"x_max":747,"o":"m 299 924 q 328 989 299 964 q 401 1014 357 1014 q 475 989 446 1014 q 504 924 504 964 q 475 857 504 882 q 401 832 446 832 q 328 857 357 832 q 299 924 299 882 m 401 976 q 362 962 378 976 q 346 924 346 947 q 362 885 346 900 q 401 869 378 869 q 441 885 424 869 q 458 924 458 900 q 442 962 458 947 q 401 976 425 976 m 325 -14 q 153 65 211 -14 q 94 299 94 143 l 94 724 l 189 724 l 189 315 q 357 69 189 69 q 439 83 399 69 q 513 124 479 97 q 574 186 547 150 q 618 268 601 222 l 618 724 l 713 724 l 713 122 q 747 83 713 83 l 747 0 q 708 -4 719 -4 q 653 15 676 -4 q 631 64 631 35 l 631 164 q 501 33 582 79 q 325 -14 421 -14 z "},"ũ":{"ha":825,"x_min":94,"x_max":747,"o":"m 325 -14 q 153 65 211 -14 q 94 299 94 143 l 94 724 l 189 724 l 189 315 q 357 69 189 69 q 439 83 399 69 q 513 124 479 97 q 574 186 547 150 q 618 268 601 222 l 618 724 l 713 724 l 713 122 q 747 83 713 83 l 747 0 q 708 -4 719 -4 q 653 15 676 -4 q 631 64 631 35 l 631 164 q 501 33 582 79 q 325 -14 421 -14 m 488 886 q 433 894 456 886 q 390 913 410 903 q 351 933 369 924 q 310 942 332 942 q 273 932 286 942 q 252 910 260 922 q 242 888 244 899 q 240 875 240 878 l 182 875 q 187 903 182 882 q 206 947 192 925 q 244 987 219 969 q 308 1004 269 1004 q 359 995 338 1004 q 400 975 381 986 q 440 955 419 964 q 486 946 460 946 q 528 956 513 946 q 553 978 544 965 q 563 1001 561 990 q 565 1014 565 1011 l 624 1014 q 618 986 624 1007 q 598 943 613 965 q 556 903 583 921 q 488 886 529 886 z "},"v":{"ha":736,"x_min":24,"x_max":713,"o":"m 318 0 l 24 724 l 122 724 l 371 88 l 621 724 l 713 724 l 418 0 l 318 0 z "},"w":{"ha":1132,"x_min":24,"x_max":1110,"o":"m 1018 724 l 1110 724 l 800 0 l 721 0 l 567 369 l 413 0 l 333 0 l 24 724 l 114 724 l 378 97 l 515 428 l 392 722 l 472 722 l 567 486 l 660 722 l 740 722 l 618 428 l 756 97 l 1018 724 z "},"ẃ":{"ha":1132,"x_min":24,"x_max":1110,"o":"m 575 861 l 513 885 l 594 1014 l 694 1014 l 575 861 m 1018 724 l 1110 724 l 800 0 l 721 0 l 567 369 l 413 0 l 333 0 l 24 724 l 114 724 l 378 97 l 515 428 l 392 722 l 472 722 l 567 486 l 660 722 l 740 722 l 618 428 l 756 97 l 1018 724 z "},"ŵ":{"ha":1132,"x_min":24,"x_max":1110,"o":"m 394 896 l 531 1014 l 600 1014 l 738 896 l 683 867 l 565 954 l 447 867 l 394 896 m 1018 724 l 1110 724 l 800 0 l 721 0 l 567 369 l 413 0 l 333 0 l 24 724 l 114 724 l 378 97 l 515 428 l 392 722 l 472 722 l 567 486 l 660 722 l 740 722 l 618 428 l 756 97 l 1018 724 z "},"ẅ":{"ha":1132,"x_min":24,"x_max":1110,"o":"m 422 879 l 422 1010 l 503 1010 l 503 879 l 422 879 m 629 879 l 629 1010 l 710 1010 l 710 879 l 629 879 m 1018 724 l 1110 724 l 800 0 l 721 0 l 567 369 l 413 0 l 333 0 l 24 724 l 114 724 l 378 97 l 515 428 l 392 722 l 472 722 l 567 486 l 660 722 l 740 722 l 618 428 l 756 97 l 1018 724 z "},"ẁ":{"ha":1132,"x_min":24,"x_max":1110,"o":"m 1018 724 l 1110 724 l 800 0 l 721 0 l 567 369 l 413 0 l 333 0 l 24 724 l 114 724 l 378 97 l 515 428 l 392 722 l 472 722 l 567 486 l 660 722 l 740 722 l 618 428 l 756 97 l 1018 724 m 438 1014 l 536 1014 l 619 885 l 558 861 l 438 1014 z "},"x":{"ha":694,"x_min":18,"x_max":676,"o":"m 119 724 l 336 440 l 347 419 l 360 440 l 575 724 l 676 724 l 400 360 l 676 0 l 575 0 l 360 282 l 347 301 l 336 282 l 121 0 l 18 0 l 294 360 l 18 724 l 119 724 z "},"y":{"ha":753,"x_min":18,"x_max":722,"o":"m 143 -224 q 157 -226 150 -225 q 171 -226 164 -226 q 201 -224 185 -226 q 224 -218 217 -221 q 238 -206 231 -215 q 258 -174 246 -197 q 288 -110 269 -151 q 333 0 306 -69 l 18 724 l 117 724 l 385 88 l 632 724 l 722 724 l 346 -210 q 290 -286 325 -261 q 190 -311 254 -311 q 143 -307 164 -311 l 143 -224 z "},"ý":{"ha":753,"x_min":18,"x_max":722,"o":"m 143 -224 q 157 -226 150 -225 q 171 -226 164 -226 q 201 -224 185 -226 q 224 -218 217 -221 q 238 -206 231 -215 q 258 -174 246 -197 q 288 -110 269 -151 q 333 0 306 -69 l 18 724 l 117 724 l 385 88 l 632 724 l 722 724 l 346 -210 q 290 -286 325 -261 q 190 -311 254 -311 q 143 -307 164 -311 l 143 -224 m 393 861 l 331 885 l 413 1014 l 513 1014 l 393 861 z "},"ŷ":{"ha":753,"x_min":18,"x_max":722,"o":"m 143 -224 q 157 -226 150 -225 q 171 -226 164 -226 q 201 -224 185 -226 q 224 -218 217 -221 q 238 -206 231 -215 q 258 -174 246 -197 q 288 -110 269 -151 q 333 0 306 -69 l 18 724 l 117 724 l 385 88 l 632 724 l 722 724 l 346 -210 q 290 -286 325 -261 q 190 -311 254 -311 q 143 -307 164 -311 l 143 -224 m 213 896 l 349 1014 l 418 1014 l 556 896 l 501 867 l 383 954 l 265 867 l 213 896 z "},"ÿ":{"ha":753,"x_min":18,"x_max":722,"o":"m 143 -224 q 157 -226 150 -225 q 171 -226 164 -226 q 201 -224 185 -226 q 224 -218 217 -221 q 238 -206 231 -215 q 258 -174 246 -197 q 288 -110 269 -151 q 333 0 306 -69 l 18 724 l 117 724 l 385 88 l 632 724 l 722 724 l 346 -210 q 290 -286 325 -261 q 190 -311 254 -311 q 143 -307 164 -311 l 143 -224 m 240 879 l 240 1010 l 321 1010 l 321 879 l 240 879 m 447 879 l 447 1010 l 528 1010 l 528 879 l 447 879 z "},"¥":{"ha":942,"x_min":42,"x_max":901,"o":"m 601 508 l 718 508 l 718 442 l 564 442 l 518 367 l 518 329 l 719 329 l 719 263 l 518 263 l 518 0 l 421 0 l 421 263 l 222 263 l 222 329 l 421 329 l 421 369 l 378 442 l 222 442 l 222 508 l 342 508 l 42 986 l 147 986 l 469 456 l 794 986 l 901 986 l 601 508 z "},"ỳ":{"ha":753,"x_min":18,"x_max":722,"o":"m 143 -224 q 157 -226 150 -225 q 171 -226 164 -226 q 201 -224 185 -226 q 224 -218 217 -221 q 238 -206 231 -215 q 258 -174 246 -197 q 288 -110 269 -151 q 333 0 306 -69 l 18 724 l 117 724 l 385 88 l 632 724 l 722 724 l 346 -210 q 290 -286 325 -261 q 190 -311 254 -311 q 143 -307 164 -311 l 143 -224 m 256 1014 l 354 1014 l 438 885 l 376 861 l 256 1014 z "},"ỹ":{"ha":753,"x_min":18,"x_max":722,"o":"m 143 -224 q 157 -226 150 -225 q 171 -226 164 -226 q 201 -224 185 -226 q 224 -218 217 -221 q 238 -206 231 -215 q 258 -174 246 -197 q 288 -110 269 -151 q 333 0 306 -69 l 18 724 l 117 724 l 385 88 l 632 724 l 722 724 l 346 -210 q 290 -286 325 -261 q 190 -311 254 -311 q 143 -307 164 -311 l 143 -224 m 469 886 q 415 894 438 886 q 372 913 392 903 q 333 933 351 924 q 292 942 314 942 q 255 932 268 942 q 234 910 242 922 q 224 888 226 899 q 222 875 222 878 l 164 875 q 169 903 164 882 q 188 947 174 925 q 226 987 201 969 q 290 1004 251 1004 q 341 995 319 1004 q 382 975 363 986 q 422 955 401 964 q 468 946 442 946 q 510 956 494 946 q 535 978 526 965 q 545 1001 543 990 q 547 1014 547 1011 l 606 1014 q 600 986 606 1007 q 580 943 594 965 q 538 903 565 921 q 469 886 511 886 z "},"z":{"ha":675,"x_min":39,"x_max":631,"o":"m 39 64 l 528 653 l 50 653 l 50 724 l 631 724 l 631 660 l 144 71 l 631 71 l 631 0 l 39 0 l 39 64 z "},"ź":{"ha":675,"x_min":39,"x_max":631,"o":"m 361 861 l 299 885 l 381 1014 l 481 1014 l 361 861 m 39 64 l 528 653 l 50 653 l 50 724 l 631 724 l 631 660 l 144 71 l 631 71 l 631 0 l 39 0 l 39 64 z "},"ž":{"ha":675,"x_min":39,"x_max":631,"o":"m 233 1014 l 351 926 l 469 1014 l 524 986 l 386 867 l 317 867 l 181 986 l 233 1014 m 39 64 l 528 653 l 50 653 l 50 724 l 631 724 l 631 660 l 144 71 l 631 71 l 631 0 l 39 0 l 39 64 z "},"ż":{"ha":675,"x_min":39,"x_max":631,"o":"m 39 64 l 528 653 l 50 653 l 50 724 l 631 724 l 631 660 l 144 71 l 631 71 l 631 0 l 39 0 l 39 64 m 308 879 l 308 1014 l 394 1014 l 394 879 l 308 879 z "},"₀":{"ha":636,"x_min":53,"x_max":583,"o":"m 319 -7 q 203 19 253 -7 q 119 87 153 46 q 69 177 86 128 q 53 274 53 226 q 72 374 53 324 q 124 464 90 424 q 208 529 158 504 q 319 554 257 554 q 434 527 385 554 q 517 459 483 500 q 567 369 550 418 q 583 274 583 319 q 565 172 583 222 q 513 83 547 122 q 430 18 479 43 q 319 -7 381 -7 m 117 274 q 130 196 117 235 q 169 126 143 157 q 232 74 194 94 q 319 54 269 54 q 408 76 371 54 q 471 130 446 97 q 508 201 496 163 q 521 274 521 239 q 508 351 521 313 q 468 422 494 390 q 404 473 442 453 q 319 493 367 493 q 230 472 268 493 q 167 418 192 450 q 129 347 142 386 q 117 274 117 308 z "},"⁰":{"ha":636,"x_min":53,"x_max":583,"o":"m 319 453 q 203 479 253 453 q 119 547 153 506 q 69 637 86 588 q 53 733 53 686 q 72 833 53 783 q 124 924 90 883 q 208 989 158 964 q 319 1014 257 1014 q 434 987 385 1014 q 517 919 483 960 q 567 828 550 878 q 583 733 583 779 q 565 632 583 682 q 513 542 547 582 q 430 478 479 503 q 319 453 381 453 m 117 733 q 130 656 117 694 q 169 585 143 617 q 232 534 194 554 q 319 514 269 514 q 408 535 371 514 q 471 589 446 557 q 508 660 496 621 q 521 733 521 699 q 508 811 521 772 q 468 881 494 850 q 404 933 442 913 q 319 953 367 953 q 230 931 268 953 q 167 877 192 910 q 129 806 142 844 q 117 733 117 768 z "}}}
